M48
METRIC,LZ,000.000
;FILE_FORMAT=3:3
;TYPE=PLATED
;Layer: PTH_Through
;EasyEDA v6.5.33, 2023-07-29 07:31:28
;219471704c294700b8179b9d236804d4,d031c0a8eb424844af7c2e53bc7358ee,10
;Gerber Generator version 0.2
;Holesize 1 = 0.305 mm
T01C0.305
;Holesize 2 = 3.000 mm
T02C3.000
%
G05
G90
T01
X029083Y-026162
X029591Y-044831
X052832Y-016256
X048006Y-044069
X071882Y-019304
X067564Y-040259
X090932Y-019558
X086106Y-043180
X110998Y-026670
X105156Y-042926
X133731Y-019431
X124206Y-043053
X167386Y-023363
X143891Y-040132
X185928Y-023363
X162306Y-043180
X181356Y-033274
X181356Y-043053
X214757Y-019431
X200406Y-043053
X257048Y-020447
X239141Y-040640
X235204Y-020320
X223647Y-043942
X267081Y-043307
X273303Y-027559
X300482Y-043180
X300482Y-019558
X324739Y-040386
X324993Y-016383
X343154Y-043053
X343408Y-019431
X010160Y-038735
X014605Y-062103
X040005Y-054991
X039116Y-059690
X058293Y-059817
X067564Y-034163
X027178Y-034163
X077343Y-058547
X066929Y-033020
X026543Y-032766
X096901Y-059055
X026924Y-027178
X025019Y-041148
X031877Y-051562
X115316Y-059817
X111887Y-027813
X025781Y-027178
X024384Y-042037
X030861Y-052197
X134493Y-059182
X152781Y-059182
X254254Y-034417
X143891Y-032766
X171831Y-059436
X254254Y-033401
X143256Y-031369
X190881Y-059690
X254254Y-032385
X209931Y-059563
X209931Y-053086
X252221Y-037846
X247904Y-031496
X200406Y-031496
X228981Y-059690
X229108Y-052959
X252983Y-037211
X239648Y-030861
X254253Y-031496
X248031Y-060325
X272415Y-059055
X300482Y-060833
X324612Y-062230
X344041Y-063246
X321309Y-032639
X324739Y-029464
X363601Y-043942
X362712Y-062230
X341249Y-037211
X362711Y-053594
X377570Y-038227
X392303Y-039243
X316864Y-055753
X320674Y-030988
X358393Y-028702
X311657Y-077724
X339979Y-056769
X013081Y-078613
X029693Y-057679
X037211Y-056896
X027686Y-056896
X037211Y-056007
X027686Y-055372
X037211Y-054991
X043053Y-070104
X044069Y-078740
X035687Y-052832
X045212Y-070104
X062992Y-078994
X035052Y-053467
X062992Y-070231
X082169Y-078740
X034417Y-054102
X082169Y-070231
X101346Y-078486
X119507Y-070231
X139446Y-078486
X100711Y-070231
X120015Y-078867
X343281Y-071120
X343281Y-078867
X339471Y-054102
X380491Y-052197
X362331Y-078994
X300482Y-079121
X052197Y-097282
X035687Y-070612
X035052Y-071120
X034417Y-071628
X033782Y-072136
X033147Y-072644
X071374Y-097282
X090678Y-097282
X109728Y-097536
X127635Y-097790
X147447Y-097917
X268986Y-080010
X257555Y-051308
X237363Y-081661
X265938Y-054483
X218567Y-082296
X265175Y-053213
X199263Y-082296
X172847Y-052832
X264160Y-054483
X180340Y-082042
X152781Y-053593
X263144Y-054483
X161544Y-082169
X326008Y-077470
X375175Y-096647
X383412Y-092456
X324231Y-096774
X343281Y-097917
X362331Y-097663
X314325Y-095758
X319912Y-076708
X245618Y-100203
X266572Y-072263
X265937Y-071628
X265302Y-070993
X264667Y-070358
X254380Y-073787
X247522Y-073787
X246378Y-074404
X254253Y-074803
X247903Y-076073
X253872Y-075565
X219456Y-092329
X219456Y-100076
X200278Y-091694
X200533Y-100711
X181991Y-091567
X181356Y-100330
X162306Y-100330
X161925Y-090678
X043942Y-107823
X033782Y-120015
X065024Y-091567
X045974Y-092456
X057023Y-116967
X106553Y-091313
X044831Y-092456
X121793Y-120015
X126111Y-091313
X237616Y-089154
X191643Y-116459
X144653Y-091313
X235965Y-089662
X213359Y-119380
X292226Y-072516
X235584Y-116713
X291083Y-072517
X258063Y-123317
X289813Y-072517
X277240Y-121666
X290956Y-053086
X296290Y-121158
X276605Y-105156
X294258Y-091059
X287273Y-078867
X362330Y-119253
X256412Y-091313
X320039Y-092202
X334517Y-120523
X381507Y-115697
X384428Y-077597
X382697Y-034544
X387743Y-034544
X385317Y-073152
X389128Y-073660
X382523Y-075565
X385317Y-074295
X380745Y-075819
X386206Y-064389
X338581Y-037211
X355853Y-037211
X381380Y-033655
X381380Y-037719
X318261Y-037099
X318261Y-038608
X255396Y-077089
X243077Y-077089
X383540Y-065889
X382650Y-076708
X134620Y-032131
X135382Y-039497
X026543Y-030226
X035219Y-076200
X030012Y-076200
X151765Y-077724
X124841Y-031496
X158877Y-094996
X125476Y-032004
X135001Y-115824
X126111Y-031369
X131064Y-027559
X132461Y-028956
X138305Y-037804
X129286Y-032258
X137668Y-031877
X358683Y-012616
X358598Y-011303
X361568Y-012446
X360934Y-013843
X010033Y-030988
X136017Y-031115
X186182Y-027940
X029083Y-029083
X030099Y-015748
X048006Y-030929
X128651Y-032893
X155067Y-027305
X128651Y-034417
X156337Y-028956
X128651Y-033655
X156337Y-028067
X157988Y-027051
X149098Y-032766
X192405Y-024384
X190373Y-029083
X191008Y-029718
X191643Y-030353
X271017Y-025273
X161417Y-028575
X188722Y-027940
X299211Y-028956
X192405Y-025146
X194691Y-028956
X162179Y-028956
X185166Y-030734
X190500Y-031115
X199643Y-029718
X323850Y-034124
X194437Y-032385
X167513Y-032766
X165481Y-029447
X259968Y-047625
X258317Y-051562
X260937Y-055070
X249808Y-055372
X375919Y-056884
X388112Y-051816
T02
X126309Y-123317
X132659Y-120777
X014402Y-023314
X020752Y-020775
X016764Y-123317
X023114Y-120777
X038227Y-123317
X044577Y-120777
X214399Y-123329
X220749Y-120790
X304927Y-085217
X311277Y-082677
X262059Y-128059
X268409Y-125519
X300169Y-128100
X306520Y-125560
X338239Y-123319
X344589Y-120780
X393509Y-111250
X390970Y-104899
X366829Y-123319
X373179Y-120780
X347794Y-104249
X354145Y-101709
X281099Y-128079
X287449Y-125540
X235849Y-123329
X242199Y-120790
X195389Y-123329
X201740Y-120790
X057277Y-123317
X063627Y-120777
X023944Y-104249
X030295Y-101709
X052519Y-104249
X058870Y-101709
X090619Y-104249
X096970Y-101709
X128719Y-104249
X135070Y-101709
X166819Y-104249
X173170Y-101709
X204919Y-104249
X211270Y-101709
X250131Y-104249
X256482Y-101709
X328744Y-104249
X335095Y-101709
X366844Y-104249
X373195Y-101709
X366776Y-085217
X373126Y-082677
X347726Y-085217
X354076Y-082677
X281099Y-109019
X287449Y-106479
X223969Y-104249
X230320Y-101709
X185869Y-104249
X192220Y-101709
X147769Y-104249
X154120Y-101709
X109669Y-104249
X116020Y-101709
X071569Y-104249
X077920Y-101709
X016764Y-085217
X023114Y-082677
X066802Y-085217
X073152Y-082677
X104902Y-085217
X111252Y-082677
X143002Y-085217
X149352Y-082677
X181102Y-085217
X187452Y-082677
X219202Y-085217
X225552Y-082677
X269240Y-085217
X275590Y-082677
X347853Y-023314
X354203Y-020775
X328676Y-085217
X335026Y-082677
X393509Y-073150
X390970Y-066799
X366827Y-066167
X373177Y-063627
X347777Y-066167
X354127Y-063627
X304927Y-066167
X311277Y-063627
X238252Y-085217
X244602Y-082677
X200152Y-085217
X206502Y-082677
X162052Y-085217
X168402Y-082677
X123952Y-085217
X130302Y-082677
X085852Y-085217
X092202Y-082677
X047752Y-085217
X054102Y-082677
X019177Y-066167
X025527Y-063627
X062027Y-066167
X068377Y-063627
X100127Y-066167
X106477Y-063627
X138227Y-066167
X144577Y-063627
X176327Y-066167
X182677Y-063627
X214427Y-066167
X220777Y-063627
X252527Y-066167
X258877Y-063627
X281051Y-023314
X287401Y-020775
X304988Y-047117
X311338Y-044577
X328727Y-066167
X335077Y-063627
X385887Y-047117
X392237Y-044577
X366837Y-047117
X373187Y-044577
X347787Y-047117
X354137Y-044577
X304927Y-023314
X311277Y-020775
X276352Y-066167
X282702Y-063627
X233477Y-066167
X239827Y-063627
X195377Y-066167
X201727Y-063627
X157277Y-066167
X163627Y-063627
X119177Y-066167
X125527Y-063627
X081077Y-066167
X087427Y-063627
X042977Y-066167
X049327Y-063627
X014412Y-047117
X020762Y-044577
X052512Y-047117
X058862Y-044577
X090612Y-047117
X096962Y-044577
X128712Y-047117
X135062Y-044577
X166812Y-047117
X173162Y-044577
X204912Y-047117
X211262Y-044577
X243139Y-047117
X249489Y-044577
X271587Y-047117
X277937Y-044577
X328676Y-023314
X335026Y-020775
X328737Y-047117
X335087Y-044577
X223962Y-047117
X230312Y-044577
X185862Y-047117
X192212Y-044577
X147762Y-047117
X154112Y-044577
X109662Y-047117
X116012Y-044577
X071562Y-047117
X077912Y-044577
X033462Y-047117
X039812Y-044577
X057277Y-023314
X063627Y-020775
X095377Y-023314
X101727Y-020775
X138176Y-023314
X144526Y-020775
X176276Y-023314
X182626Y-020775
X219202Y-023314
X225552Y-020775
X238252Y-023314
X244602Y-020775
X257302Y-023314
X263652Y-020775
X200152Y-023314
X206502Y-020775
X157226Y-023314
X163576Y-020775
X119126Y-023314
X125476Y-020775
X038227Y-023314
X044577Y-020775
X076350Y-023315
X082700Y-020775
M30
