M48
METRIC,LZ,000.000
;FILE_FORMAT=3:3
;TYPE=NON_PLATED
;Layer: NPTH_Through
;EasyEDA v6.5.33, 2023-07-29 07:31:28
;219471704c294700b8179b9d236804d4,d031c0a8eb424844af7c2e53bc7358ee,10
;Gerber Generator version 0.2
;Holesize 1 = 1.701 mm
T01C1.701
;Holesize 2 = 3.000 mm
T02C3.000
;Holesize 3 = 3.048 mm
T03C3.048
;Holesize 4 = 3.981 mm
T04C3.981
;Holesize 5 = 4.000 mm
T05C4.000
;Holesize 6 = 4.064 mm
T06C4.064
%
G05
G90
T01
X123769Y-118237
X133929Y-118237
X011862Y-018235
X022022Y-018235
X014224Y-118237
X024384Y-118237
X035687Y-118237
X045847Y-118237
X211859Y-118250
X222019Y-118250
X302387Y-080137
X312547Y-080137
X259519Y-122979
X269679Y-122979
X297630Y-123020
X307790Y-123020
X335699Y-118240
X345859Y-118240
X388430Y-113789
X388430Y-103629
X364289Y-118240
X374449Y-118240
X345255Y-099169
X355415Y-099169
X278559Y-123000
X288719Y-123000
X233309Y-118250
X243469Y-118250
X192850Y-118250
X203010Y-118250
X054737Y-118237
X064897Y-118237
X021405Y-099169
X031565Y-099169
X049980Y-099169
X060140Y-099169
X088080Y-099169
X098240Y-099169
X126180Y-099169
X136340Y-099169
X164280Y-099169
X174440Y-099169
X202380Y-099169
X212540Y-099169
X247592Y-099169
X257752Y-099169
X326205Y-099169
X336365Y-099169
X364305Y-099169
X374465Y-099169
X364236Y-080137
X374396Y-080137
X345186Y-080137
X355346Y-080137
X278559Y-103939
X288719Y-103939
X221430Y-099169
X231590Y-099169
X183330Y-099169
X193490Y-099169
X145230Y-099169
X155390Y-099169
X107130Y-099169
X117290Y-099169
X069030Y-099169
X079190Y-099169
X014224Y-080137
X024384Y-080137
X064262Y-080137
X074422Y-080137
X102362Y-080137
X112522Y-080137
X140462Y-080137
X150622Y-080137
X178562Y-080137
X188722Y-080137
X216662Y-080137
X226822Y-080137
X266700Y-080137
X276860Y-080137
X345313Y-018235
X355473Y-018235
X326136Y-080137
X336296Y-080137
X388430Y-075689
X388430Y-065529
X364287Y-061087
X374447Y-061087
X345237Y-061087
X355397Y-061087
X302387Y-061087
X312547Y-061087
X235712Y-080137
X245872Y-080137
X197612Y-080137
X207772Y-080137
X159512Y-080137
X169672Y-080137
X121412Y-080137
X131572Y-080137
X083312Y-080137
X093472Y-080137
X045212Y-080137
X055372Y-080137
X016637Y-061087
X026797Y-061087
X059487Y-061087
X069647Y-061087
X097587Y-061087
X107747Y-061087
X135687Y-061087
X145847Y-061087
X173787Y-061087
X183947Y-061087
X211887Y-061087
X222047Y-061087
X249987Y-061087
X260147Y-061087
X278511Y-018235
X288671Y-018235
X302448Y-042037
X312608Y-042037
X326187Y-061087
X336347Y-061087
X383347Y-042037
X393507Y-042037
X364297Y-042037
X374457Y-042037
X345247Y-042037
X355407Y-042037
X302387Y-018235
X312547Y-018235
X273812Y-061087
X283972Y-061087
X230937Y-061087
X241097Y-061087
X192837Y-061087
X202997Y-061087
X154737Y-061087
X164897Y-061087
X116637Y-061087
X126797Y-061087
X078537Y-061087
X088697Y-061087
X040437Y-061087
X050597Y-061087
X011872Y-042037
X022032Y-042037
X049972Y-042037
X060132Y-042037
X088072Y-042037
X098232Y-042037
X126172Y-042037
X136332Y-042037
X164272Y-042037
X174432Y-042037
X202372Y-042037
X212532Y-042037
X240599Y-042037
X250759Y-042037
X269047Y-042037
X279207Y-042037
X326136Y-018235
X336296Y-018235
X326197Y-042037
X336357Y-042037
X221422Y-042037
X231582Y-042037
X183322Y-042037
X193482Y-042037
X145222Y-042037
X155382Y-042037
X107122Y-042037
X117282Y-042037
X069022Y-042037
X079182Y-042037
X030922Y-042037
X041082Y-042037
X054737Y-018235
X064897Y-018235
X092837Y-018235
X102997Y-018235
X135636Y-018235
X145796Y-018235
X173736Y-018235
X183896Y-018235
X216662Y-018235
X226822Y-018235
X235712Y-018235
X245872Y-018235
X254762Y-018235
X264922Y-018235
X197612Y-018235
X207772Y-018235
X154686Y-018235
X164846Y-018235
X116586Y-018235
X126746Y-018235
X035687Y-018235
X045847Y-018235
X073810Y-018235
X083970Y-018235
T02
X132659Y-120777
X020752Y-020775
X023114Y-120777
X044577Y-120777
X220749Y-120790
X311277Y-082677
X268409Y-125519
X306520Y-125560
X344589Y-120780
X390970Y-104899
X373179Y-120780
X354145Y-101709
X287449Y-125540
X242199Y-120790
X201740Y-120790
X063627Y-120777
X030295Y-101709
X058870Y-101709
X096970Y-101709
X135070Y-101709
X173170Y-101709
X211270Y-101709
X256482Y-101709
X335095Y-101709
X373195Y-101709
X373126Y-082677
X354076Y-082677
X287449Y-106479
X230320Y-101709
X192220Y-101709
X154120Y-101709
X116020Y-101709
X077920Y-101709
X023114Y-082677
X073152Y-082677
X111252Y-082677
X149352Y-082677
X187452Y-082677
X225552Y-082677
X275590Y-082677
X354203Y-020775
X335026Y-082677
X390970Y-066799
X373177Y-063627
X354127Y-063627
X311277Y-063627
X244602Y-082677
X206502Y-082677
X168402Y-082677
X130302Y-082677
X092202Y-082677
X054102Y-082677
X025527Y-063627
X068377Y-063627
X106477Y-063627
X144577Y-063627
X182677Y-063627
X220777Y-063627
X258877Y-063627
X287401Y-020775
X311338Y-044577
X335077Y-063627
X392237Y-044577
X373187Y-044577
X354137Y-044577
X311277Y-020775
X282702Y-063627
X239827Y-063627
X201727Y-063627
X163627Y-063627
X125527Y-063627
X087427Y-063627
X049327Y-063627
X020762Y-044577
X058862Y-044577
X096962Y-044577
X135062Y-044577
X173162Y-044577
X211262Y-044577
X249489Y-044577
X277937Y-044577
X335026Y-020775
X335087Y-044577
X230312Y-044577
X192212Y-044577
X154112Y-044577
X116012Y-044577
X077912Y-044577
X039812Y-044577
X063627Y-020775
X101727Y-020775
X144526Y-020775
X182626Y-020775
X225552Y-020775
X244602Y-020775
X263652Y-020775
X206502Y-020775
X163576Y-020775
X125476Y-020775
X044577Y-020775
X082700Y-020775
T03
X283682Y-073177
X259875Y-073177
X078557Y-125197
X179141Y-125197
X038388Y-092210
X014580Y-092210
X286029Y-035077
X262221Y-035077
X328895Y-125197
X352703Y-125197
X381469Y-058706
X381469Y-082514
X381469Y-096806
X381469Y-120614
T04
X283682Y-088417
X259875Y-088417
X038388Y-107450
X014580Y-107450
X286029Y-050317
X262221Y-050317
X328895Y-109957
X352703Y-109957
X396709Y-058706
X396709Y-082514
X396709Y-096806
X396709Y-120614
T05
X128849Y-118237
X016942Y-018235
X019304Y-118237
X040767Y-118237
X216939Y-118250
X307467Y-080137
X264599Y-122979
X302710Y-123020
X340779Y-118240
X388430Y-108709
X369369Y-118240
X350335Y-099169
X283639Y-123000
X238389Y-118250
X197930Y-118250
X059817Y-118237
X026485Y-099169
X055060Y-099169
X093160Y-099169
X131260Y-099169
X169360Y-099169
X207460Y-099169
X252672Y-099169
X331285Y-099169
X369385Y-099169
X369316Y-080137
X350266Y-080137
X283639Y-103939
X226510Y-099169
X188410Y-099169
X150310Y-099169
X112210Y-099169
X074110Y-099169
X019304Y-080137
X069342Y-080137
X107442Y-080137
X145542Y-080137
X183642Y-080137
X221742Y-080137
X271780Y-080137
X350393Y-018235
X331216Y-080137
X388430Y-070609
X369367Y-061087
X350317Y-061087
X307467Y-061087
X240792Y-080137
X202692Y-080137
X164592Y-080137
X126492Y-080137
X088392Y-080137
X050292Y-080137
X021717Y-061087
X064567Y-061087
X102667Y-061087
X140767Y-061087
X178867Y-061087
X216967Y-061087
X255067Y-061087
X283591Y-018235
X307528Y-042037
X331267Y-061087
X388427Y-042037
X369377Y-042037
X350327Y-042037
X307467Y-018235
X278892Y-061087
X236017Y-061087
X197917Y-061087
X159817Y-061087
X121717Y-061087
X083617Y-061087
X045517Y-061087
X016952Y-042037
X055052Y-042037
X093152Y-042037
X131252Y-042037
X169352Y-042037
X207452Y-042037
X245679Y-042037
X274127Y-042037
X331216Y-018235
X331277Y-042037
X226502Y-042037
X188402Y-042037
X150302Y-042037
X112202Y-042037
X074102Y-042037
X036002Y-042037
X059817Y-018235
X097917Y-018235
X140716Y-018235
X178816Y-018235
X221742Y-018235
X240792Y-018235
X259842Y-018235
X202692Y-018235
X159766Y-018235
X121666Y-018235
X040767Y-018235
X078890Y-018235
T06
X078557Y-109957
X179141Y-109957
M30
