G04 Layer: BottomPasteMaskLayer*
G04 EasyEDA v6.5.33, 2023-07-29 07:31:28*
G04 219471704c294700b8179b9d236804d4,d031c0a8eb424844af7c2e53bc7358ee,10*
G04 Gerber Generator version 0.2*
G04 Scale: 100 percent, Rotated: No, Reflected: No *
G04 Dimensions in millimeters *
G04 leading zeros omitted , absolute positions ,4 integer and 5 decimal *
%FSLAX45Y45*%
%MOMM*%

%AMMACRO1*21,1,$1,$2,0,0,$3*%
%AMMACRO2*4,1,4,0.6096,0.4547,0.6096,-0.4547,-0.6096,-0.4547,-0.6096,0.4547,0.6096,0.4547,0*%
%AMMACRO3*4,1,4,1.3132,-0.75,-1.3128,-0.75,-1.3132,0.75,1.313,0.75,1.3132,-0.75,0*%
%AMMACRO4*4,1,4,-1.313,0.75,1.313,0.75,1.313,-0.75,-1.3126,-0.75,-1.313,0.75,0*%
%AMMACRO5*4,1,4,-0.4547,0.6096,0.4547,0.6096,0.4547,-0.6096,-0.4547,-0.6096,-0.4547,0.6096,0*%
%AMMACRO6*4,1,4,0.75,1.3132,0.75,-1.3128,-0.75,-1.3132,-0.75,1.313,0.75,1.3132,0*%
%AMMACRO7*4,1,4,-0.75,-1.313,-0.75,1.313,0.75,1.313,0.75,-1.3126,-0.75,-1.313,0*%
%ADD10MACRO1,2X1.5X0.0000*%
%ADD11MACRO1,0.4X1.5X0.0000*%
%ADD12MACRO1,0.3X1.4X0.0000*%
%ADD13MACRO1,2X2.5X0.0000*%
%ADD14R,2.5500X2.5000*%
%ADD15MACRO2*%
%ADD16MACRO3*%
%ADD17MACRO4*%
%ADD18R,2.5000X2.5500*%
%ADD19MACRO5*%
%ADD20MACRO6*%
%ADD21MACRO7*%
%ADD22R,1.8000X0.8200*%
%ADD23R,0.8200X1.8000*%
%ADD24R,0.0135X1.8000*%

%LPD*%
D10*
G01*
X12778480Y-3133897D03*
G01*
X14018463Y-3133890D03*
D11*
G01*
X12998462Y-3393889D03*
G01*
X13098462Y-3393889D03*
G01*
X13198464Y-3393889D03*
G01*
X13298464Y-3393889D03*
G01*
X13398464Y-3393889D03*
G01*
X13498464Y-3393889D03*
G01*
X13598464Y-3393889D03*
G01*
X13698463Y-3393889D03*
G01*
X13798463Y-3393889D03*
D12*
G01*
X15411470Y-3202175D03*
G01*
X15461470Y-3202175D03*
G01*
X15511470Y-3202175D03*
G01*
X15561470Y-3202175D03*
G01*
X15611469Y-3202175D03*
G01*
X15661472Y-3202175D03*
D13*
G01*
X16381465Y-2944675D03*
G01*
X15241478Y-2944627D03*
D12*
G01*
X15711462Y-3202175D03*
G01*
X15761462Y-3202175D03*
G01*
X15811461Y-3202175D03*
G01*
X15861461Y-3202175D03*
G01*
X15911461Y-3202175D03*
G01*
X15961461Y-3202175D03*
G01*
X16011466Y-3202175D03*
G01*
X16061469Y-3202175D03*
G01*
X16111468Y-3202175D03*
G01*
X16161468Y-3202175D03*
G01*
X16211468Y-3202175D03*
D14*
G01*
X13634923Y-12078690D03*
D15*
G01*
X13682411Y-11613700D03*
G01*
X13682411Y-11938822D03*
D14*
G01*
X12262408Y-12331192D03*
D16*
G01*
X13397155Y-12077674D03*
D17*
G01*
X12512168Y-12331192D03*
D14*
G01*
X2444191Y-2078456D03*
D15*
G01*
X2491679Y-1613466D03*
G01*
X2491679Y-1938588D03*
D14*
G01*
X1071676Y-2330957D03*
D16*
G01*
X2206423Y-2077440D03*
D17*
G01*
X1321436Y-2330957D03*
D14*
G01*
X2680411Y-12078690D03*
D15*
G01*
X2727899Y-11613700D03*
G01*
X2727899Y-11938822D03*
D14*
G01*
X1307896Y-12331192D03*
D16*
G01*
X2442643Y-12077674D03*
D17*
G01*
X1557656Y-12331192D03*
D14*
G01*
X4826711Y-12078690D03*
D15*
G01*
X4874199Y-11613700D03*
G01*
X4874199Y-11938822D03*
D14*
G01*
X3454196Y-12331192D03*
D16*
G01*
X4588943Y-12077674D03*
D17*
G01*
X3703956Y-12331192D03*
D14*
G01*
X22443897Y-12079960D03*
D15*
G01*
X22491385Y-11614970D03*
G01*
X22491385Y-11940092D03*
D14*
G01*
X21071382Y-12332462D03*
D16*
G01*
X22206129Y-12078944D03*
D17*
G01*
X21321142Y-12332462D03*
D14*
G01*
X31496711Y-8268690D03*
D15*
G01*
X31544199Y-7803700D03*
G01*
X31544199Y-8128822D03*
D14*
G01*
X30124196Y-8521192D03*
D16*
G01*
X31258943Y-8267674D03*
D17*
G01*
X30373956Y-8521192D03*
D14*
G01*
X27209953Y-12552908D03*
D15*
G01*
X27257441Y-12087918D03*
G01*
X27257441Y-12413040D03*
D14*
G01*
X25837438Y-12805410D03*
D16*
G01*
X26972185Y-12551892D03*
D17*
G01*
X26087198Y-12805410D03*
D14*
G01*
X31020969Y-12556972D03*
D15*
G01*
X31068457Y-12091982D03*
G01*
X31068457Y-12417104D03*
D14*
G01*
X29648454Y-12809474D03*
D16*
G01*
X30783201Y-12555956D03*
D17*
G01*
X29898214Y-12809473D03*
D14*
G01*
X34827921Y-12078944D03*
D15*
G01*
X34875409Y-11613954D03*
G01*
X34875409Y-11939076D03*
D14*
G01*
X33455406Y-12331445D03*
D16*
G01*
X34590153Y-12077928D03*
D17*
G01*
X33705166Y-12331446D03*
D18*
G01*
X39097940Y-10120934D03*
D19*
G01*
X38632950Y-10073446D03*
G01*
X38958072Y-10073446D03*
D18*
G01*
X39350441Y-11493449D03*
D20*
G01*
X39096924Y-10358702D03*
D21*
G01*
X39350441Y-11243689D03*
D14*
G01*
X37686945Y-12078944D03*
D15*
G01*
X37734433Y-11613954D03*
G01*
X37734433Y-11939076D03*
D14*
G01*
X36314430Y-12331445D03*
D16*
G01*
X37449177Y-12077928D03*
D17*
G01*
X36564190Y-12331446D03*
D14*
G01*
X35783469Y-10171912D03*
D15*
G01*
X35830957Y-9706922D03*
G01*
X35830957Y-10032044D03*
D14*
G01*
X34410954Y-10424413D03*
D16*
G01*
X35545701Y-10170896D03*
D17*
G01*
X34660714Y-10424413D03*
D14*
G01*
X29113937Y-12554940D03*
D15*
G01*
X29161425Y-12089950D03*
G01*
X29161425Y-12415072D03*
D14*
G01*
X27741422Y-12807442D03*
D16*
G01*
X28876169Y-12553924D03*
D17*
G01*
X27991182Y-12807442D03*
D14*
G01*
X24588927Y-12079960D03*
D15*
G01*
X24636415Y-11614970D03*
G01*
X24636415Y-11940092D03*
D14*
G01*
X23216412Y-12332462D03*
D16*
G01*
X24351159Y-12078944D03*
D17*
G01*
X23466172Y-12332462D03*
D14*
G01*
X20542961Y-12079960D03*
D15*
G01*
X20590449Y-11614970D03*
G01*
X20590449Y-11940092D03*
D14*
G01*
X19170446Y-12332462D03*
D16*
G01*
X20305193Y-12078944D03*
D17*
G01*
X19420206Y-12332462D03*
D14*
G01*
X6731711Y-12078690D03*
D15*
G01*
X6779199Y-11613700D03*
G01*
X6779199Y-11938822D03*
D14*
G01*
X5359196Y-12331192D03*
D16*
G01*
X6493943Y-12077674D03*
D17*
G01*
X5608956Y-12331192D03*
D14*
G01*
X3398469Y-10171912D03*
D15*
G01*
X3445957Y-9706922D03*
G01*
X3445957Y-10032044D03*
D14*
G01*
X2025954Y-10424413D03*
D16*
G01*
X3160701Y-10170896D03*
D17*
G01*
X2275714Y-10424413D03*
D14*
G01*
X6255969Y-10171912D03*
D15*
G01*
X6303457Y-9706922D03*
G01*
X6303457Y-10032044D03*
D14*
G01*
X4883454Y-10424413D03*
D16*
G01*
X6018201Y-10170896D03*
D17*
G01*
X5133214Y-10424413D03*
D14*
G01*
X10065969Y-10171912D03*
D15*
G01*
X10113457Y-9706922D03*
G01*
X10113457Y-10032044D03*
D14*
G01*
X8693454Y-10424413D03*
D16*
G01*
X9828201Y-10170896D03*
D17*
G01*
X8943214Y-10424413D03*
D14*
G01*
X13875969Y-10171912D03*
D15*
G01*
X13923457Y-9706922D03*
G01*
X13923457Y-10032044D03*
D14*
G01*
X12503454Y-10424413D03*
D16*
G01*
X13638201Y-10170896D03*
D17*
G01*
X12753214Y-10424413D03*
D14*
G01*
X17685969Y-10171912D03*
D15*
G01*
X17733457Y-9706922D03*
G01*
X17733457Y-10032044D03*
D14*
G01*
X16313454Y-10424413D03*
D16*
G01*
X17448201Y-10170896D03*
D17*
G01*
X16563214Y-10424413D03*
D14*
G01*
X21495969Y-10171912D03*
D15*
G01*
X21543457Y-9706922D03*
G01*
X21543457Y-10032044D03*
D14*
G01*
X20123454Y-10424413D03*
D16*
G01*
X21258201Y-10170896D03*
D17*
G01*
X20373214Y-10424413D03*
D14*
G01*
X26017169Y-10171912D03*
D15*
G01*
X26064657Y-9706922D03*
G01*
X26064657Y-10032044D03*
D14*
G01*
X24644654Y-10424413D03*
D16*
G01*
X25779401Y-10170896D03*
D17*
G01*
X24894414Y-10424413D03*
D14*
G01*
X33878469Y-10171912D03*
D15*
G01*
X33925957Y-9706922D03*
G01*
X33925957Y-10032044D03*
D14*
G01*
X32505954Y-10424413D03*
D16*
G01*
X33640701Y-10170896D03*
D17*
G01*
X32755714Y-10424413D03*
D14*
G01*
X37688469Y-10171912D03*
D15*
G01*
X37735957Y-9706922D03*
G01*
X37735957Y-10032044D03*
D14*
G01*
X36315954Y-10424413D03*
D16*
G01*
X37450701Y-10170896D03*
D17*
G01*
X36565714Y-10424413D03*
D14*
G01*
X37681611Y-8268690D03*
D15*
G01*
X37729099Y-7803700D03*
G01*
X37729099Y-8128822D03*
D14*
G01*
X36309096Y-8521192D03*
D16*
G01*
X37443843Y-8267674D03*
D17*
G01*
X36558856Y-8521192D03*
D14*
G01*
X35776611Y-8268690D03*
D15*
G01*
X35824099Y-7803700D03*
G01*
X35824099Y-8128822D03*
D14*
G01*
X34404096Y-8521192D03*
D16*
G01*
X35538843Y-8267674D03*
D17*
G01*
X34653856Y-8521192D03*
D14*
G01*
X29113937Y-10648924D03*
D15*
G01*
X29161425Y-10183934D03*
G01*
X29161425Y-10509056D03*
D14*
G01*
X27741422Y-10901426D03*
D16*
G01*
X28876169Y-10647908D03*
D17*
G01*
X27991182Y-10901426D03*
D14*
G01*
X23400969Y-10171912D03*
D15*
G01*
X23448457Y-9706922D03*
G01*
X23448457Y-10032044D03*
D14*
G01*
X22028454Y-10424413D03*
D16*
G01*
X23163201Y-10170896D03*
D17*
G01*
X22278214Y-10424413D03*
D14*
G01*
X19590969Y-10171912D03*
D15*
G01*
X19638457Y-9706922D03*
G01*
X19638457Y-10032044D03*
D14*
G01*
X18218454Y-10424413D03*
D16*
G01*
X19353201Y-10170896D03*
D17*
G01*
X18468214Y-10424413D03*
D14*
G01*
X15780969Y-10171912D03*
D15*
G01*
X15828457Y-9706922D03*
G01*
X15828457Y-10032044D03*
D14*
G01*
X14408454Y-10424413D03*
D16*
G01*
X15543201Y-10170896D03*
D17*
G01*
X14658214Y-10424413D03*
D14*
G01*
X11970969Y-10171912D03*
D15*
G01*
X12018457Y-9706922D03*
G01*
X12018457Y-10032044D03*
D14*
G01*
X10598454Y-10424413D03*
D16*
G01*
X11733201Y-10170896D03*
D17*
G01*
X10848214Y-10424413D03*
D14*
G01*
X8160969Y-10171912D03*
D15*
G01*
X8208457Y-9706922D03*
G01*
X8208457Y-10032044D03*
D14*
G01*
X6788454Y-10424413D03*
D16*
G01*
X7923201Y-10170896D03*
D17*
G01*
X7038214Y-10424413D03*
D14*
G01*
X2680411Y-8268690D03*
D15*
G01*
X2727899Y-7803700D03*
G01*
X2727899Y-8128822D03*
D14*
G01*
X1307896Y-8521192D03*
D16*
G01*
X2442643Y-8267674D03*
D17*
G01*
X1557656Y-8521192D03*
D14*
G01*
X7684211Y-8268690D03*
D15*
G01*
X7731699Y-7803700D03*
G01*
X7731699Y-8128822D03*
D14*
G01*
X6311696Y-8521192D03*
D16*
G01*
X7446443Y-8267674D03*
D17*
G01*
X6561456Y-8521192D03*
D14*
G01*
X11494211Y-8268690D03*
D15*
G01*
X11541699Y-7803700D03*
G01*
X11541699Y-8128822D03*
D14*
G01*
X10121696Y-8521192D03*
D16*
G01*
X11256443Y-8267674D03*
D17*
G01*
X10371456Y-8521192D03*
D14*
G01*
X15304211Y-8268690D03*
D15*
G01*
X15351699Y-7803700D03*
G01*
X15351699Y-8128822D03*
D14*
G01*
X13931696Y-8521192D03*
D16*
G01*
X15066443Y-8267674D03*
D17*
G01*
X14181456Y-8521192D03*
D14*
G01*
X19114211Y-8268690D03*
D15*
G01*
X19161699Y-7803700D03*
G01*
X19161699Y-8128822D03*
D14*
G01*
X17741696Y-8521192D03*
D16*
G01*
X18876443Y-8267674D03*
D17*
G01*
X17991456Y-8521192D03*
D14*
G01*
X22924211Y-8268690D03*
D15*
G01*
X22971699Y-7803700D03*
G01*
X22971699Y-8128822D03*
D14*
G01*
X21551696Y-8521192D03*
D16*
G01*
X22686443Y-8267674D03*
D17*
G01*
X21801456Y-8521192D03*
D14*
G01*
X27928011Y-8268690D03*
D15*
G01*
X27975499Y-7803700D03*
G01*
X27975499Y-8128822D03*
D14*
G01*
X26555496Y-8521192D03*
D16*
G01*
X27690243Y-8267674D03*
D17*
G01*
X26805256Y-8521192D03*
D14*
G01*
X35789311Y-2078456D03*
D15*
G01*
X35836799Y-1613466D03*
G01*
X35836799Y-1938588D03*
D14*
G01*
X34416796Y-2330957D03*
D16*
G01*
X35551543Y-2077440D03*
D17*
G01*
X34666556Y-2330957D03*
D14*
G01*
X33871611Y-8268690D03*
D15*
G01*
X33919099Y-7803700D03*
G01*
X33919099Y-8128822D03*
D14*
G01*
X32499096Y-8521192D03*
D16*
G01*
X33633843Y-8267674D03*
D17*
G01*
X32748856Y-8521192D03*
D18*
G01*
X39097940Y-6310934D03*
D19*
G01*
X38632950Y-6263446D03*
G01*
X38958072Y-6263446D03*
D18*
G01*
X39350441Y-7683449D03*
D20*
G01*
X39096924Y-6548702D03*
D21*
G01*
X39350441Y-7433689D03*
D14*
G01*
X37686691Y-6363690D03*
D15*
G01*
X37734179Y-5898700D03*
G01*
X37734179Y-6223822D03*
D14*
G01*
X36314176Y-6616192D03*
D16*
G01*
X37448923Y-6362674D03*
D17*
G01*
X36563936Y-6616192D03*
D14*
G01*
X35781691Y-6363690D03*
D15*
G01*
X35829179Y-5898700D03*
G01*
X35829179Y-6223822D03*
D14*
G01*
X34409176Y-6616192D03*
D16*
G01*
X35543923Y-6362674D03*
D17*
G01*
X34658936Y-6616192D03*
D14*
G01*
X31496711Y-6363690D03*
D15*
G01*
X31544199Y-5898700D03*
G01*
X31544199Y-6223822D03*
D14*
G01*
X30124196Y-6616192D03*
D16*
G01*
X31258943Y-6362674D03*
D17*
G01*
X30373956Y-6616192D03*
D14*
G01*
X24829211Y-8268690D03*
D15*
G01*
X24876699Y-7803700D03*
G01*
X24876699Y-8128822D03*
D14*
G01*
X23456696Y-8521192D03*
D16*
G01*
X24591443Y-8267674D03*
D17*
G01*
X23706456Y-8521192D03*
D14*
G01*
X21019211Y-8268690D03*
D15*
G01*
X21066699Y-7803700D03*
G01*
X21066699Y-8128822D03*
D14*
G01*
X19646696Y-8521192D03*
D16*
G01*
X20781443Y-8267674D03*
D17*
G01*
X19896456Y-8521192D03*
D14*
G01*
X17209211Y-8268690D03*
D15*
G01*
X17256699Y-7803700D03*
G01*
X17256699Y-8128822D03*
D14*
G01*
X15836696Y-8521192D03*
D16*
G01*
X16971443Y-8267674D03*
D17*
G01*
X16086456Y-8521192D03*
D14*
G01*
X13399211Y-8268690D03*
D15*
G01*
X13446699Y-7803700D03*
G01*
X13446699Y-8128822D03*
D14*
G01*
X12026696Y-8521192D03*
D16*
G01*
X13161443Y-8267674D03*
D17*
G01*
X12276456Y-8521192D03*
D14*
G01*
X9589211Y-8268690D03*
D15*
G01*
X9636699Y-7803700D03*
G01*
X9636699Y-8128822D03*
D14*
G01*
X8216696Y-8521192D03*
D16*
G01*
X9351443Y-8267674D03*
D17*
G01*
X8466456Y-8521192D03*
D14*
G01*
X5779211Y-8268690D03*
D15*
G01*
X5826699Y-7803700D03*
G01*
X5826699Y-8128822D03*
D14*
G01*
X4406696Y-8521192D03*
D16*
G01*
X5541443Y-8267674D03*
D17*
G01*
X4656456Y-8521192D03*
D14*
G01*
X2921711Y-6363690D03*
D15*
G01*
X2969199Y-5898700D03*
G01*
X2969199Y-6223822D03*
D14*
G01*
X1549196Y-6616192D03*
D16*
G01*
X2683943Y-6362674D03*
D17*
G01*
X1798956Y-6616192D03*
D14*
G01*
X7206691Y-6363690D03*
D15*
G01*
X7254179Y-5898700D03*
G01*
X7254179Y-6223822D03*
D14*
G01*
X5834176Y-6616192D03*
D16*
G01*
X6968923Y-6362674D03*
D17*
G01*
X6083936Y-6616192D03*
D14*
G01*
X11016691Y-6363690D03*
D15*
G01*
X11064179Y-5898700D03*
G01*
X11064179Y-6223822D03*
D14*
G01*
X9644176Y-6616192D03*
D16*
G01*
X10778923Y-6362674D03*
D17*
G01*
X9893936Y-6616192D03*
D14*
G01*
X14826691Y-6363690D03*
D15*
G01*
X14874179Y-5898700D03*
G01*
X14874179Y-6223822D03*
D14*
G01*
X13454176Y-6616192D03*
D16*
G01*
X14588923Y-6362674D03*
D17*
G01*
X13703936Y-6616192D03*
D14*
G01*
X18636691Y-6363690D03*
D15*
G01*
X18684179Y-5898700D03*
G01*
X18684179Y-6223822D03*
D14*
G01*
X17264176Y-6616192D03*
D16*
G01*
X18398923Y-6362674D03*
D17*
G01*
X17513936Y-6616192D03*
D14*
G01*
X22446691Y-6363690D03*
D15*
G01*
X22494179Y-5898700D03*
G01*
X22494179Y-6223822D03*
D14*
G01*
X21074176Y-6616192D03*
D16*
G01*
X22208923Y-6362674D03*
D17*
G01*
X21323936Y-6616192D03*
D14*
G01*
X26256691Y-6363690D03*
D15*
G01*
X26304179Y-5898700D03*
G01*
X26304179Y-6223822D03*
D14*
G01*
X24884176Y-6616192D03*
D16*
G01*
X26018923Y-6362674D03*
D17*
G01*
X25133936Y-6616192D03*
D14*
G01*
X29109111Y-2078456D03*
D15*
G01*
X29156599Y-1613466D03*
G01*
X29156599Y-1938588D03*
D14*
G01*
X27736596Y-2330957D03*
D16*
G01*
X28871343Y-2077440D03*
D17*
G01*
X27986356Y-2330957D03*
D14*
G01*
X31502807Y-4458690D03*
D15*
G01*
X31550295Y-3993700D03*
G01*
X31550295Y-4318822D03*
D14*
G01*
X30130292Y-4711192D03*
D16*
G01*
X31265039Y-4457674D03*
D17*
G01*
X30380052Y-4711192D03*
D14*
G01*
X33876691Y-6363690D03*
D15*
G01*
X33924179Y-5898700D03*
G01*
X33924179Y-6223822D03*
D14*
G01*
X32504176Y-6616192D03*
D16*
G01*
X33638923Y-6362674D03*
D17*
G01*
X32753936Y-6616192D03*
D14*
G01*
X39592707Y-4458690D03*
D15*
G01*
X39640195Y-3993700D03*
G01*
X39640195Y-4318822D03*
D14*
G01*
X38220192Y-4711192D03*
D16*
G01*
X39354939Y-4457674D03*
D17*
G01*
X38469952Y-4711192D03*
D14*
G01*
X37687707Y-4458690D03*
D15*
G01*
X37735195Y-3993700D03*
G01*
X37735195Y-4318822D03*
D14*
G01*
X36315192Y-4711192D03*
D16*
G01*
X37449939Y-4457674D03*
D17*
G01*
X36564952Y-4711192D03*
D14*
G01*
X35782707Y-4458690D03*
D15*
G01*
X35830195Y-3993700D03*
G01*
X35830195Y-4318822D03*
D14*
G01*
X34410192Y-4711192D03*
D16*
G01*
X35544939Y-4457674D03*
D17*
G01*
X34659952Y-4711192D03*
D14*
G01*
X31496711Y-2078456D03*
D15*
G01*
X31544199Y-1613466D03*
G01*
X31544199Y-1938588D03*
D14*
G01*
X30124196Y-2330957D03*
D16*
G01*
X31258943Y-2077440D03*
D17*
G01*
X30373956Y-2330957D03*
D14*
G01*
X28639211Y-6363690D03*
D15*
G01*
X28686699Y-5898700D03*
G01*
X28686699Y-6223822D03*
D14*
G01*
X27266696Y-6616192D03*
D16*
G01*
X28401443Y-6362674D03*
D17*
G01*
X27516456Y-6616192D03*
D14*
G01*
X24351691Y-6363690D03*
D15*
G01*
X24399179Y-5898700D03*
G01*
X24399179Y-6223822D03*
D14*
G01*
X22979176Y-6616192D03*
D16*
G01*
X24113923Y-6362674D03*
D17*
G01*
X23228936Y-6616192D03*
D14*
G01*
X20541691Y-6363690D03*
D15*
G01*
X20589179Y-5898700D03*
G01*
X20589179Y-6223822D03*
D14*
G01*
X19169176Y-6616192D03*
D16*
G01*
X20303923Y-6362674D03*
D17*
G01*
X19418936Y-6616192D03*
D14*
G01*
X16731691Y-6363690D03*
D15*
G01*
X16779179Y-5898700D03*
G01*
X16779179Y-6223822D03*
D14*
G01*
X15359176Y-6616192D03*
D16*
G01*
X16493923Y-6362674D03*
D17*
G01*
X15608936Y-6616192D03*
D14*
G01*
X12921691Y-6363690D03*
D15*
G01*
X12969179Y-5898700D03*
G01*
X12969179Y-6223822D03*
D14*
G01*
X11549176Y-6616192D03*
D16*
G01*
X12683923Y-6362674D03*
D17*
G01*
X11798936Y-6616192D03*
D14*
G01*
X9111691Y-6363690D03*
D15*
G01*
X9159179Y-5898700D03*
G01*
X9159179Y-6223822D03*
D14*
G01*
X7739176Y-6616192D03*
D16*
G01*
X8873923Y-6362674D03*
D17*
G01*
X7988936Y-6616192D03*
D14*
G01*
X5301691Y-6363690D03*
D15*
G01*
X5349179Y-5898700D03*
G01*
X5349179Y-6223822D03*
D14*
G01*
X3929176Y-6616192D03*
D16*
G01*
X5063923Y-6362674D03*
D17*
G01*
X4178936Y-6616192D03*
D14*
G01*
X2445207Y-4458690D03*
D15*
G01*
X2492695Y-3993700D03*
G01*
X2492695Y-4318822D03*
D14*
G01*
X1072692Y-4711192D03*
D16*
G01*
X2207439Y-4457674D03*
D17*
G01*
X1322452Y-4711192D03*
D14*
G01*
X6255207Y-4458690D03*
D15*
G01*
X6302695Y-3993700D03*
G01*
X6302695Y-4318822D03*
D14*
G01*
X4882692Y-4711192D03*
D16*
G01*
X6017439Y-4457674D03*
D17*
G01*
X5132452Y-4711192D03*
D14*
G01*
X10065207Y-4458690D03*
D15*
G01*
X10112695Y-3993700D03*
G01*
X10112695Y-4318822D03*
D14*
G01*
X8692692Y-4711192D03*
D16*
G01*
X9827439Y-4457674D03*
D17*
G01*
X8942452Y-4711192D03*
D14*
G01*
X13875207Y-4458690D03*
D15*
G01*
X13922695Y-3993700D03*
G01*
X13922695Y-4318822D03*
D14*
G01*
X12502692Y-4711192D03*
D16*
G01*
X13637439Y-4457674D03*
D17*
G01*
X12752452Y-4711192D03*
D14*
G01*
X17685207Y-4458690D03*
D15*
G01*
X17732695Y-3993700D03*
G01*
X17732695Y-4318822D03*
D14*
G01*
X16312692Y-4711192D03*
D16*
G01*
X17447439Y-4457674D03*
D17*
G01*
X16562452Y-4711192D03*
D14*
G01*
X21495207Y-4458690D03*
D15*
G01*
X21542695Y-3993700D03*
G01*
X21542695Y-4318822D03*
D14*
G01*
X20122692Y-4711192D03*
D16*
G01*
X21257439Y-4457674D03*
D17*
G01*
X20372452Y-4711192D03*
D14*
G01*
X25317907Y-4458690D03*
D15*
G01*
X25365395Y-3993700D03*
G01*
X25365395Y-4318822D03*
D14*
G01*
X23945392Y-4711192D03*
D16*
G01*
X25080139Y-4457674D03*
D17*
G01*
X24195152Y-4711192D03*
D14*
G01*
X28162707Y-4458690D03*
D15*
G01*
X28210195Y-3993700D03*
G01*
X28210195Y-4318822D03*
D14*
G01*
X26790192Y-4711192D03*
D16*
G01*
X27924939Y-4457674D03*
D17*
G01*
X27039952Y-4711192D03*
D14*
G01*
X33871611Y-2078456D03*
D15*
G01*
X33919099Y-1613466D03*
G01*
X33919099Y-1938588D03*
D14*
G01*
X32499096Y-2330957D03*
D16*
G01*
X33633843Y-2077440D03*
D17*
G01*
X32748856Y-2330957D03*
D14*
G01*
X33877707Y-4458690D03*
D15*
G01*
X33925195Y-3993700D03*
G01*
X33925195Y-4318822D03*
D14*
G01*
X32505192Y-4711192D03*
D16*
G01*
X33639939Y-4457674D03*
D17*
G01*
X32754952Y-4711192D03*
D14*
G01*
X23400207Y-4458690D03*
D15*
G01*
X23447695Y-3993700D03*
G01*
X23447695Y-4318822D03*
D14*
G01*
X22027692Y-4711192D03*
D16*
G01*
X23162439Y-4457674D03*
D17*
G01*
X22277452Y-4711192D03*
D14*
G01*
X19590207Y-4458690D03*
D15*
G01*
X19637695Y-3993700D03*
G01*
X19637695Y-4318822D03*
D14*
G01*
X18217692Y-4711192D03*
D16*
G01*
X19352439Y-4457674D03*
D17*
G01*
X18467452Y-4711192D03*
D14*
G01*
X15780207Y-4458690D03*
D15*
G01*
X15827695Y-3993700D03*
G01*
X15827695Y-4318822D03*
D14*
G01*
X14407692Y-4711192D03*
D16*
G01*
X15542439Y-4457674D03*
D17*
G01*
X14657452Y-4711192D03*
D14*
G01*
X11970207Y-4458690D03*
D15*
G01*
X12017695Y-3993700D03*
G01*
X12017695Y-4318822D03*
D14*
G01*
X10597692Y-4711192D03*
D16*
G01*
X11732439Y-4457674D03*
D17*
G01*
X10847452Y-4711192D03*
D14*
G01*
X8160207Y-4458690D03*
D15*
G01*
X8207695Y-3993700D03*
G01*
X8207695Y-4318822D03*
D14*
G01*
X6787692Y-4711192D03*
D16*
G01*
X7922439Y-4457674D03*
D17*
G01*
X7037452Y-4711192D03*
D14*
G01*
X4350207Y-4458690D03*
D15*
G01*
X4397695Y-3993700D03*
G01*
X4397695Y-4318822D03*
D14*
G01*
X2977692Y-4711192D03*
D16*
G01*
X4112439Y-4457674D03*
D17*
G01*
X3227452Y-4711192D03*
D14*
G01*
X6731711Y-2078456D03*
D15*
G01*
X6779199Y-1613466D03*
G01*
X6779199Y-1938588D03*
D14*
G01*
X5359196Y-2330957D03*
D16*
G01*
X6493943Y-2077440D03*
D17*
G01*
X5608956Y-2330957D03*
D14*
G01*
X10541711Y-2078456D03*
D15*
G01*
X10589199Y-1613466D03*
G01*
X10589199Y-1938588D03*
D14*
G01*
X9169196Y-2330957D03*
D16*
G01*
X10303943Y-2077440D03*
D17*
G01*
X9418956Y-2330957D03*
D14*
G01*
X14821611Y-2078456D03*
D15*
G01*
X14869099Y-1613466D03*
G01*
X14869099Y-1938588D03*
D14*
G01*
X13449096Y-2330957D03*
D16*
G01*
X14583843Y-2077440D03*
D17*
G01*
X13698856Y-2330957D03*
D14*
G01*
X18631611Y-2078456D03*
D15*
G01*
X18679099Y-1613466D03*
G01*
X18679099Y-1938588D03*
D14*
G01*
X17259096Y-2330957D03*
D16*
G01*
X18393843Y-2077440D03*
D17*
G01*
X17508856Y-2330957D03*
D14*
G01*
X22924211Y-2078456D03*
D15*
G01*
X22971699Y-1613466D03*
G01*
X22971699Y-1938588D03*
D14*
G01*
X21551696Y-2330957D03*
D16*
G01*
X22686443Y-2077440D03*
D17*
G01*
X21801456Y-2330957D03*
D14*
G01*
X24829211Y-2078456D03*
D15*
G01*
X24876699Y-1613466D03*
G01*
X24876699Y-1938588D03*
D14*
G01*
X23456696Y-2330957D03*
D16*
G01*
X24591443Y-2077440D03*
D17*
G01*
X23706456Y-2330957D03*
D14*
G01*
X26734211Y-2078456D03*
D15*
G01*
X26781699Y-1613466D03*
G01*
X26781699Y-1938588D03*
D14*
G01*
X25361696Y-2330957D03*
D16*
G01*
X26496443Y-2077440D03*
D17*
G01*
X25611456Y-2330957D03*
D14*
G01*
X21019211Y-2078456D03*
D15*
G01*
X21066699Y-1613466D03*
G01*
X21066699Y-1938588D03*
D14*
G01*
X19646696Y-2330957D03*
D16*
G01*
X20781443Y-2077440D03*
D17*
G01*
X19896456Y-2330957D03*
D14*
G01*
X16726611Y-2078456D03*
D15*
G01*
X16774099Y-1613466D03*
G01*
X16774099Y-1938588D03*
D14*
G01*
X15354096Y-2330957D03*
D16*
G01*
X16488843Y-2077440D03*
D17*
G01*
X15603856Y-2330957D03*
D14*
G01*
X12916611Y-2078456D03*
D15*
G01*
X12964099Y-1613466D03*
G01*
X12964099Y-1938588D03*
D14*
G01*
X11544096Y-2330957D03*
D16*
G01*
X12678843Y-2077440D03*
D17*
G01*
X11793856Y-2330957D03*
D14*
G01*
X4826711Y-2078456D03*
D15*
G01*
X4874199Y-1613466D03*
G01*
X4874199Y-1938588D03*
D14*
G01*
X3454196Y-2330957D03*
D16*
G01*
X4588943Y-2077440D03*
D17*
G01*
X3703956Y-2330957D03*
D14*
G01*
X8638997Y-2078507D03*
D15*
G01*
X8686485Y-1613496D03*
G01*
X8686485Y-1938619D03*
D14*
G01*
X7266482Y-2331008D03*
D16*
G01*
X8401229Y-2077471D03*
D17*
G01*
X7516242Y-2330988D03*
D22*
G01*
X1979091Y-1398803D03*
G01*
X1979091Y-1248816D03*
G01*
X1399108Y-1248816D03*
G01*
X1399108Y-1398803D03*
G01*
X4366691Y-1398803D03*
G01*
X4366691Y-1248816D03*
G01*
X3786682Y-1248816D03*
G01*
X3786708Y-1398803D03*
G01*
X6271691Y-1398803D03*
G01*
X6271691Y-1248816D03*
G01*
X5691682Y-1248816D03*
G01*
X5691682Y-1398803D03*
G01*
X8176691Y-1398803D03*
G01*
X8176691Y-1248816D03*
G01*
X7596682Y-1248816D03*
G01*
X7596682Y-1398803D03*
G01*
X10081691Y-1398803D03*
G01*
X10081691Y-1248816D03*
G01*
X9501682Y-1248816D03*
G01*
X9501682Y-1398803D03*
G01*
X12456566Y-1398803D03*
G01*
X12456566Y-1248816D03*
G01*
X11876582Y-1248816D03*
G01*
X11876582Y-1398803D03*
G01*
X14361566Y-1398803D03*
G01*
X14361566Y-1248816D03*
G01*
X13781582Y-1248816D03*
G01*
X13781582Y-1398803D03*
G01*
X16266566Y-1398803D03*
G01*
X16266566Y-1248816D03*
G01*
X15686557Y-1248816D03*
G01*
X15686582Y-1398803D03*
G01*
X18171566Y-1398803D03*
G01*
X18171566Y-1248816D03*
G01*
X17591557Y-1248816D03*
G01*
X17591557Y-1398803D03*
G01*
X20559166Y-1398803D03*
G01*
X20559166Y-1248816D03*
G01*
X19979157Y-1248816D03*
G01*
X19979157Y-1398803D03*
G01*
X22464166Y-1398803D03*
G01*
X22464166Y-1248816D03*
G01*
X21884157Y-1248816D03*
G01*
X21884157Y-1398803D03*
G01*
X24369166Y-1398803D03*
G01*
X24369141Y-1248816D03*
G01*
X23789157Y-1248816D03*
G01*
X23789157Y-1398803D03*
G01*
X26274140Y-1398803D03*
G01*
X26274140Y-1248816D03*
G01*
X25694157Y-1248816D03*
G01*
X25694157Y-1398803D03*
G01*
X28649040Y-1398803D03*
G01*
X28649040Y-1248816D03*
G01*
X28069057Y-1248816D03*
G01*
X28069057Y-1398803D03*
G01*
X31036640Y-1398803D03*
G01*
X31036640Y-1248816D03*
G01*
X30456632Y-1248816D03*
G01*
X30456632Y-1398803D03*
G01*
X33411540Y-1398803D03*
G01*
X33411540Y-1248816D03*
G01*
X32831532Y-1248816D03*
G01*
X32831532Y-1398803D03*
G01*
X35329241Y-1398803D03*
G01*
X35329241Y-1248816D03*
G01*
X34749232Y-1248816D03*
G01*
X34749232Y-1398803D03*
G01*
X38550926Y-3629583D03*
G01*
X38550926Y-3779596D03*
G01*
X39130909Y-3779596D03*
G01*
X39130909Y-3629583D03*
G01*
X36646916Y-3629583D03*
G01*
X36646916Y-3779596D03*
G01*
X37226925Y-3779596D03*
G01*
X37226925Y-3629583D03*
G01*
X34740926Y-3630599D03*
G01*
X34740926Y-3780586D03*
G01*
X35320935Y-3780586D03*
G01*
X35320935Y-3630599D03*
G01*
X32835926Y-3630599D03*
G01*
X32835926Y-3780586D03*
G01*
X33415935Y-3780586D03*
G01*
X33415935Y-3630599D03*
G01*
X30460975Y-3630599D03*
G01*
X30460975Y-3780586D03*
G01*
X31040959Y-3780586D03*
G01*
X31040959Y-3630599D03*
G01*
X27120926Y-3630599D03*
G01*
X27120926Y-3780586D03*
G01*
X27700935Y-3780586D03*
G01*
X27700935Y-3630599D03*
G01*
X24276126Y-3630599D03*
G01*
X24276126Y-3780586D03*
G01*
X24856135Y-3780586D03*
G01*
X24856135Y-3630599D03*
G01*
X22358426Y-3630599D03*
G01*
X22358426Y-3780586D03*
G01*
X22938435Y-3780586D03*
G01*
X22938435Y-3630599D03*
G01*
X20453426Y-3630599D03*
G01*
X20453426Y-3780586D03*
G01*
X21033435Y-3780586D03*
G01*
X21033435Y-3630599D03*
G01*
X18548426Y-3630599D03*
G01*
X18548426Y-3780586D03*
G01*
X19128435Y-3780586D03*
G01*
X19128435Y-3630599D03*
G01*
X16643426Y-3630599D03*
G01*
X16643426Y-3780586D03*
G01*
X17223435Y-3780586D03*
G01*
X17223435Y-3630599D03*
G01*
X14738426Y-3630599D03*
G01*
X14738426Y-3780586D03*
G01*
X15318435Y-3780586D03*
G01*
X15318435Y-3630599D03*
G01*
X12833426Y-3630599D03*
G01*
X12833426Y-3780586D03*
G01*
X13413435Y-3780586D03*
G01*
X13413435Y-3630599D03*
G01*
X10928426Y-3630599D03*
G01*
X10928426Y-3780586D03*
G01*
X11508435Y-3780586D03*
G01*
X11508435Y-3630599D03*
G01*
X9010726Y-3630599D03*
G01*
X9010726Y-3780586D03*
G01*
X9590735Y-3780586D03*
G01*
X9590735Y-3630599D03*
G01*
X7118426Y-3630599D03*
G01*
X7118426Y-3780586D03*
G01*
X7698435Y-3780586D03*
G01*
X7698435Y-3630599D03*
G01*
X5213426Y-3630599D03*
G01*
X5213426Y-3780586D03*
G01*
X5793435Y-3780586D03*
G01*
X5793435Y-3630599D03*
G01*
X3308426Y-3630599D03*
G01*
X3308426Y-3780586D03*
G01*
X3888435Y-3780586D03*
G01*
X3888435Y-3630599D03*
G01*
X1403426Y-3630599D03*
G01*
X1403426Y-3780586D03*
G01*
X1983435Y-3780586D03*
G01*
X1983435Y-3630599D03*
G01*
X2461691Y-5688406D03*
G01*
X2461691Y-5538393D03*
G01*
X1881708Y-5538393D03*
G01*
X1881708Y-5688406D03*
G01*
X4840986Y-5688406D03*
G01*
X4840986Y-5538393D03*
G01*
X4261002Y-5538393D03*
G01*
X4261002Y-5688406D03*
G01*
X6745986Y-5688406D03*
G01*
X6745986Y-5538393D03*
G01*
X6166002Y-5538393D03*
G01*
X6166002Y-5688406D03*
G01*
X8650986Y-5688406D03*
G01*
X8650986Y-5538393D03*
G01*
X8071002Y-5538393D03*
G01*
X8071002Y-5688406D03*
G01*
X10555986Y-5688406D03*
G01*
X10555986Y-5538393D03*
G01*
X9976002Y-5538393D03*
G01*
X9976002Y-5688406D03*
G01*
X12460986Y-5688406D03*
G01*
X12460986Y-5538393D03*
G01*
X11881002Y-5538393D03*
G01*
X11881002Y-5688406D03*
G01*
X14365986Y-5688406D03*
G01*
X14365986Y-5538393D03*
G01*
X13786002Y-5538393D03*
G01*
X13786002Y-5688406D03*
G01*
X16270986Y-5688406D03*
G01*
X16270986Y-5538393D03*
G01*
X15691002Y-5538393D03*
G01*
X15691002Y-5688406D03*
G01*
X18175986Y-5688406D03*
G01*
X18175986Y-5538393D03*
G01*
X17596002Y-5538393D03*
G01*
X17596002Y-5688406D03*
G01*
X20080986Y-5688406D03*
G01*
X20080986Y-5538393D03*
G01*
X19501002Y-5538393D03*
G01*
X19501002Y-5688406D03*
G01*
X21985986Y-5688406D03*
G01*
X21985986Y-5538393D03*
G01*
X21406002Y-5538393D03*
G01*
X21406002Y-5688406D03*
G01*
X23890986Y-5688406D03*
G01*
X23890986Y-5538393D03*
G01*
X23311002Y-5538393D03*
G01*
X23311002Y-5688406D03*
G01*
X25795986Y-5688406D03*
G01*
X25795986Y-5538393D03*
G01*
X25216002Y-5538393D03*
G01*
X25216002Y-5688406D03*
G01*
X28178937Y-5687390D03*
G01*
X28178937Y-5537403D03*
G01*
X27598954Y-5537403D03*
G01*
X27598954Y-5687390D03*
G01*
X31035929Y-5687390D03*
G01*
X31035929Y-5537403D03*
G01*
X30455946Y-5537403D03*
G01*
X30455946Y-5687390D03*
G01*
X33415986Y-5688406D03*
G01*
X33415986Y-5538393D03*
G01*
X32836002Y-5538393D03*
G01*
X32836002Y-5688406D03*
G01*
X35320986Y-5688406D03*
G01*
X35320986Y-5538393D03*
G01*
X34741002Y-5538393D03*
G01*
X34741002Y-5688406D03*
G01*
X37225986Y-5688406D03*
G01*
X37225986Y-5538393D03*
G01*
X36646002Y-5538393D03*
G01*
X36646002Y-5688406D03*
D23*
G01*
X38271526Y-7349997D03*
G01*
X38421513Y-7349997D03*
G01*
X38421513Y-6769988D03*
G01*
X38271526Y-6769988D03*
D22*
G01*
X36641608Y-7440396D03*
G01*
X36641608Y-7590383D03*
G01*
X37221591Y-7590383D03*
G01*
X37221591Y-7440396D03*
G01*
X34736608Y-7440396D03*
G01*
X34736608Y-7590383D03*
G01*
X35316591Y-7590383D03*
G01*
X35316591Y-7440396D03*
G01*
X32831608Y-7440396D03*
G01*
X32831608Y-7590383D03*
G01*
X33411591Y-7590383D03*
G01*
X33411591Y-7440396D03*
G01*
X30456708Y-7440396D03*
G01*
X30456708Y-7590383D03*
G01*
X31036691Y-7590383D03*
G01*
X31036691Y-7440396D03*
G01*
X26888008Y-7440396D03*
G01*
X26888008Y-7590383D03*
G01*
X27467991Y-7590383D03*
G01*
X27467991Y-7440396D03*
G01*
X23789208Y-7440396D03*
G01*
X23789208Y-7590383D03*
G01*
X24369191Y-7590383D03*
G01*
X24369191Y-7440396D03*
G01*
X21884208Y-7440396D03*
G01*
X21884208Y-7590383D03*
G01*
X22464191Y-7590383D03*
G01*
X22464191Y-7440396D03*
G01*
X19979208Y-7440396D03*
G01*
X19979208Y-7590383D03*
G01*
X20559191Y-7590383D03*
G01*
X20559191Y-7440396D03*
G01*
X18074208Y-7440396D03*
G01*
X18074208Y-7590383D03*
G01*
X18654191Y-7590383D03*
G01*
X18654191Y-7440396D03*
G01*
X16169208Y-7440396D03*
G01*
X16169208Y-7590383D03*
G01*
X16749191Y-7590383D03*
G01*
X16749191Y-7440396D03*
G01*
X14264208Y-7440396D03*
G01*
X14264208Y-7590383D03*
G01*
X14844191Y-7590383D03*
G01*
X14844191Y-7440396D03*
G01*
X12359208Y-7440396D03*
G01*
X12359208Y-7590383D03*
G01*
X12939191Y-7590383D03*
G01*
X12939191Y-7440396D03*
G01*
X10454208Y-7440396D03*
G01*
X10454208Y-7590383D03*
G01*
X11034191Y-7590383D03*
G01*
X11034191Y-7440396D03*
G01*
X8549208Y-7440396D03*
G01*
X8549208Y-7590383D03*
G01*
X9129191Y-7590383D03*
G01*
X9129191Y-7440396D03*
G01*
X6644208Y-7440396D03*
G01*
X6644208Y-7590383D03*
G01*
X7224191Y-7590383D03*
G01*
X7224191Y-7440396D03*
G01*
X4739208Y-7440396D03*
G01*
X4739208Y-7590383D03*
G01*
X5319191Y-7590383D03*
G01*
X5319191Y-7440396D03*
G01*
X1640408Y-7440396D03*
G01*
X1640408Y-7590383D03*
G01*
X2220391Y-7590383D03*
G01*
X2220391Y-7440396D03*
G01*
X2937992Y-9494393D03*
G01*
X2937992Y-9344380D03*
G01*
X2358009Y-9344380D03*
G01*
X2358009Y-9494393D03*
G01*
X5795492Y-9494393D03*
G01*
X5795492Y-9344380D03*
G01*
X5215509Y-9344380D03*
G01*
X5215509Y-9494393D03*
G01*
X7700492Y-9494393D03*
G01*
X7700492Y-9344380D03*
G01*
X7120509Y-9344380D03*
G01*
X7120509Y-9494393D03*
G01*
X9605492Y-9494393D03*
G01*
X9605492Y-9344380D03*
G01*
X9025509Y-9344380D03*
G01*
X9025509Y-9494393D03*
G01*
X11510492Y-9494393D03*
G01*
X11510492Y-9344380D03*
G01*
X10930509Y-9344380D03*
G01*
X10930509Y-9494393D03*
G01*
X13415492Y-9494393D03*
G01*
X13415492Y-9344380D03*
G01*
X12835509Y-9344380D03*
G01*
X12835509Y-9494393D03*
G01*
X15320492Y-9494393D03*
G01*
X15320492Y-9344380D03*
G01*
X14740509Y-9344380D03*
G01*
X14740509Y-9494393D03*
G01*
X17225492Y-9494393D03*
G01*
X17225492Y-9344380D03*
G01*
X16645509Y-9344380D03*
G01*
X16645509Y-9494393D03*
G01*
X19130492Y-9494393D03*
G01*
X19130492Y-9344380D03*
G01*
X18550509Y-9344380D03*
G01*
X18550509Y-9494393D03*
G01*
X21035492Y-9494393D03*
G01*
X21035492Y-9344380D03*
G01*
X20455509Y-9344380D03*
G01*
X20455509Y-9494393D03*
G01*
X22940492Y-9494393D03*
G01*
X22940492Y-9344380D03*
G01*
X22360509Y-9344380D03*
G01*
X22360509Y-9494393D03*
G01*
X25556692Y-9494393D03*
G01*
X25556692Y-9344380D03*
G01*
X24976709Y-9344380D03*
G01*
X24976709Y-9494393D03*
G01*
X28652952Y-9972395D03*
G01*
X28652952Y-9822383D03*
G01*
X28072943Y-9822383D03*
G01*
X28072943Y-9972395D03*
G01*
X33417992Y-9494393D03*
G01*
X33417992Y-9344380D03*
G01*
X32838009Y-9344380D03*
G01*
X32838009Y-9494393D03*
G01*
X35322992Y-9494393D03*
G01*
X35322992Y-9344380D03*
G01*
X34743009Y-9344380D03*
G01*
X34743009Y-9494393D03*
G01*
X37227992Y-9494393D03*
G01*
X37227992Y-9344380D03*
G01*
X36648009Y-9344380D03*
G01*
X36648009Y-9494393D03*
D23*
G01*
X38272516Y-11159972D03*
G01*
X38422503Y-11159972D03*
G01*
X38422529Y-10579988D03*
G01*
X38272516Y-10579988D03*
D22*
G01*
X36645926Y-11251564D03*
G01*
X36645926Y-11401577D03*
G01*
X37225935Y-11401577D03*
G01*
X37225935Y-11251564D03*
G01*
X33784921Y-11251564D03*
G01*
X33784921Y-11401577D03*
G01*
X34364929Y-11401577D03*
G01*
X34364929Y-11251564D03*
G01*
X29980940Y-11729567D03*
G01*
X29980940Y-11879579D03*
G01*
X30560949Y-11879579D03*
G01*
X30560949Y-11729567D03*
G01*
X28071952Y-11729567D03*
G01*
X28071952Y-11879579D03*
G01*
X28651936Y-11879579D03*
G01*
X28651936Y-11729567D03*
G01*
X26168934Y-11729567D03*
G01*
X26168934Y-11879579D03*
G01*
X26748943Y-11879579D03*
G01*
X26748943Y-11729567D03*
G01*
X23547908Y-11253571D03*
G01*
X23547908Y-11403558D03*
G01*
X24127891Y-11403584D03*
G01*
X24127891Y-11253571D03*
G01*
X21402954Y-11253571D03*
G01*
X21402954Y-11403558D03*
G01*
X21982963Y-11403584D03*
G01*
X21982963Y-11253571D03*
G01*
X19502958Y-11253571D03*
G01*
X19502958Y-11403558D03*
G01*
X20082967Y-11403584D03*
G01*
X20082967Y-11253571D03*
G01*
X12592481Y-11253571D03*
G01*
X12592481Y-11403558D03*
G01*
X13172465Y-11403584D03*
G01*
X13172465Y-11253571D03*
G01*
X5691708Y-11253571D03*
G01*
X5691708Y-11403558D03*
G01*
X6271691Y-11403584D03*
G01*
X6271691Y-11253571D03*
G01*
X3786708Y-11253571D03*
G01*
X3786708Y-11403558D03*
G01*
X4366691Y-11403584D03*
G01*
X4366691Y-11253571D03*
G01*
X1640992Y-11253571D03*
G01*
X1640992Y-11403558D03*
G01*
X2221001Y-11403584D03*
G01*
X2221001Y-11253571D03*
M02*
