G04 Layer: BottomSilkscreenLayer*
G04 EasyEDA v6.5.33, 2023-07-29 07:31:28*
G04 219471704c294700b8179b9d236804d4,d031c0a8eb424844af7c2e53bc7358ee,10*
G04 Gerber Generator version 0.2*
G04 Scale: 100 percent, Rotated: No, Reflected: No *
G04 Dimensions in millimeters *
G04 leading zeros omitted , absolute positions ,4 integer and 5 decimal *
%FSLAX45Y45*%
%MOMM*%

%ADD10C,0.1524*%
%ADD11C,0.2540*%

%LPD*%
D10*
X13017472Y-3049000D02*
G01*
X13017472Y-2940034D01*
X13017472Y-3049000D02*
G01*
X13085036Y-3049000D01*
X13017472Y-2997184D02*
G01*
X13059128Y-2997184D01*
X13119326Y-3049000D02*
G01*
X13119326Y-2940034D01*
X13119326Y-3049000D02*
G01*
X13166062Y-3049000D01*
X13181556Y-3043920D01*
X13186890Y-3038586D01*
X13191970Y-3028172D01*
X13191970Y-3012678D01*
X13186890Y-3002264D01*
X13181556Y-2997184D01*
X13166062Y-2991850D01*
X13119326Y-2991850D01*
X13304238Y-3023092D02*
G01*
X13299158Y-3033506D01*
X13288744Y-3043920D01*
X13278330Y-3049000D01*
X13257502Y-3049000D01*
X13247088Y-3043920D01*
X13236674Y-3033506D01*
X13231594Y-3023092D01*
X13226260Y-3007344D01*
X13226260Y-2981436D01*
X13231594Y-2965942D01*
X13236674Y-2955528D01*
X13247088Y-2945114D01*
X13257502Y-2940034D01*
X13278330Y-2940034D01*
X13288744Y-2945114D01*
X13299158Y-2955528D01*
X13304238Y-2965942D01*
X13343862Y-3023092D02*
G01*
X13343862Y-3028172D01*
X13348942Y-3038586D01*
X13354022Y-3043920D01*
X13364436Y-3049000D01*
X13385264Y-3049000D01*
X13395678Y-3043920D01*
X13401012Y-3038586D01*
X13406092Y-3028172D01*
X13406092Y-3017758D01*
X13401012Y-3007344D01*
X13390598Y-2991850D01*
X13338528Y-2940034D01*
X13411172Y-2940034D01*
X15830468Y-2480708D02*
G01*
X15830468Y-2589674D01*
X15830468Y-2480708D02*
G01*
X15762904Y-2480708D01*
X15830468Y-2532524D02*
G01*
X15788812Y-2532524D01*
X15728614Y-2480708D02*
G01*
X15728614Y-2589674D01*
X15728614Y-2480708D02*
G01*
X15681878Y-2480708D01*
X15666384Y-2485788D01*
X15661050Y-2491122D01*
X15655970Y-2501536D01*
X15655970Y-2517030D01*
X15661050Y-2527444D01*
X15666384Y-2532524D01*
X15681878Y-2537858D01*
X15728614Y-2537858D01*
X15543702Y-2506616D02*
G01*
X15548782Y-2496202D01*
X15559196Y-2485788D01*
X15569610Y-2480708D01*
X15590438Y-2480708D01*
X15600852Y-2485788D01*
X15611266Y-2496202D01*
X15616346Y-2506616D01*
X15621680Y-2522364D01*
X15621680Y-2548272D01*
X15616346Y-2563766D01*
X15611266Y-2574180D01*
X15600852Y-2584594D01*
X15590438Y-2589674D01*
X15569610Y-2589674D01*
X15559196Y-2584594D01*
X15548782Y-2574180D01*
X15543702Y-2563766D01*
X15509412Y-2501536D02*
G01*
X15498998Y-2496202D01*
X15483504Y-2480708D01*
X15483504Y-2589674D01*
D11*
X12698768Y-2829636D02*
G01*
X14088765Y-2829636D01*
X12703472Y-3232012D02*
G01*
X12703472Y-3390889D01*
X12955356Y-3390889D01*
X12703472Y-2844688D02*
G01*
X12703472Y-3035782D01*
X14093466Y-3232007D02*
G01*
X14093466Y-3393889D01*
X13841580Y-3393889D01*
X14093466Y-2844688D02*
G01*
X14093466Y-3035772D01*
X15161549Y-3092742D02*
G01*
X15161549Y-3198423D01*
X16459179Y-2796560D02*
G01*
X16459179Y-2641594D01*
X15163769Y-2641594D01*
X15161549Y-2643814D01*
X15161549Y-2796512D01*
X16459179Y-3092790D02*
G01*
X16459179Y-3198423D01*
X16459179Y-3198423D02*
G01*
X16249583Y-3198423D01*
X15373355Y-3198423D02*
G01*
X15161549Y-3198423D01*
X13761156Y-11641645D02*
G01*
X13761156Y-11910882D01*
X12402311Y-12103100D02*
G01*
X12925552Y-12103100D01*
X13603663Y-11641645D02*
G01*
X13603663Y-11910882D01*
X13631613Y-11750860D02*
G01*
X13733213Y-11750860D01*
X13641763Y-11816902D02*
G01*
X13682413Y-11758482D01*
X13723056Y-11816902D01*
X13641763Y-11816902D01*
X13316711Y-12509500D02*
G01*
X12402311Y-12509500D01*
X12402311Y-12103100D02*
G01*
X12402311Y-12509500D01*
X13133831Y-11907520D02*
G01*
X13494511Y-11907520D01*
X13494511Y-12331700D01*
X2570424Y-1641411D02*
G01*
X2570424Y-1910648D01*
X1211579Y-2102865D02*
G01*
X1734820Y-2102865D01*
X2412931Y-1641411D02*
G01*
X2412931Y-1910648D01*
X2440881Y-1750626D02*
G01*
X2542481Y-1750626D01*
X2451031Y-1816668D02*
G01*
X2491681Y-1758248D01*
X2532324Y-1816668D01*
X2451031Y-1816668D01*
X2125979Y-2509265D02*
G01*
X1211579Y-2509265D01*
X1211579Y-2102865D02*
G01*
X1211579Y-2509265D01*
X1943100Y-1907286D02*
G01*
X2303779Y-1907286D01*
X2303779Y-2331465D01*
X2806644Y-11641645D02*
G01*
X2806644Y-11910882D01*
X1447800Y-12103100D02*
G01*
X1971040Y-12103100D01*
X2649151Y-11641645D02*
G01*
X2649151Y-11910882D01*
X2677101Y-11750860D02*
G01*
X2778701Y-11750860D01*
X2687251Y-11816902D02*
G01*
X2727901Y-11758482D01*
X2768544Y-11816902D01*
X2687251Y-11816902D01*
X2362200Y-12509500D02*
G01*
X1447800Y-12509500D01*
X1447800Y-12103100D02*
G01*
X1447800Y-12509500D01*
X2179320Y-11907520D02*
G01*
X2540000Y-11907520D01*
X2540000Y-12331700D01*
X4952944Y-11641645D02*
G01*
X4952944Y-11910882D01*
X3594100Y-12103100D02*
G01*
X4117340Y-12103100D01*
X4795451Y-11641645D02*
G01*
X4795451Y-11910882D01*
X4823401Y-11750860D02*
G01*
X4925001Y-11750860D01*
X4833551Y-11816902D02*
G01*
X4874201Y-11758482D01*
X4914844Y-11816902D01*
X4833551Y-11816902D01*
X4508500Y-12509500D02*
G01*
X3594100Y-12509500D01*
X3594100Y-12103100D02*
G01*
X3594100Y-12509500D01*
X4325620Y-11907520D02*
G01*
X4686300Y-11907520D01*
X4686300Y-12331700D01*
X22570130Y-11642915D02*
G01*
X22570130Y-11912152D01*
X21211286Y-12104370D02*
G01*
X21734525Y-12104370D01*
X22412637Y-11642915D02*
G01*
X22412637Y-11912152D01*
X22440587Y-11752130D02*
G01*
X22542187Y-11752130D01*
X22450737Y-11818172D02*
G01*
X22491387Y-11759752D01*
X22532030Y-11818172D01*
X22450737Y-11818172D01*
X22125686Y-12510770D02*
G01*
X21211286Y-12510770D01*
X21211286Y-12104370D02*
G01*
X21211286Y-12510770D01*
X21942806Y-11908789D02*
G01*
X22303486Y-11908789D01*
X22303486Y-12332970D01*
X31622944Y-7831645D02*
G01*
X31622944Y-8100882D01*
X30264100Y-8293100D02*
G01*
X30787340Y-8293100D01*
X31465451Y-7831645D02*
G01*
X31465451Y-8100882D01*
X31493401Y-7940860D02*
G01*
X31595001Y-7940860D01*
X31503551Y-8006902D02*
G01*
X31544201Y-7948482D01*
X31584844Y-8006902D01*
X31503551Y-8006902D01*
X31178500Y-8699500D02*
G01*
X30264100Y-8699500D01*
X30264100Y-8293100D02*
G01*
X30264100Y-8699500D01*
X30995620Y-8097520D02*
G01*
X31356300Y-8097520D01*
X31356300Y-8521700D01*
X27336186Y-12115863D02*
G01*
X27336186Y-12385100D01*
X25977341Y-12577318D02*
G01*
X26500582Y-12577318D01*
X27178693Y-12115863D02*
G01*
X27178693Y-12385100D01*
X27206643Y-12225078D02*
G01*
X27308243Y-12225078D01*
X27216793Y-12291120D02*
G01*
X27257443Y-12232700D01*
X27298086Y-12291120D01*
X27216793Y-12291120D01*
X26891741Y-12983718D02*
G01*
X25977341Y-12983718D01*
X25977341Y-12577318D02*
G01*
X25977341Y-12983718D01*
X26708861Y-12381737D02*
G01*
X27069541Y-12381737D01*
X27069541Y-12805918D01*
X31147202Y-12119927D02*
G01*
X31147202Y-12389164D01*
X29788358Y-12581381D02*
G01*
X30311598Y-12581381D01*
X30989709Y-12119927D02*
G01*
X30989709Y-12389164D01*
X31017659Y-12229142D02*
G01*
X31119259Y-12229142D01*
X31027809Y-12295184D02*
G01*
X31068459Y-12236764D01*
X31109102Y-12295184D01*
X31027809Y-12295184D01*
X30702758Y-12987781D02*
G01*
X29788358Y-12987781D01*
X29788358Y-12581381D02*
G01*
X29788358Y-12987781D01*
X30519877Y-12385802D02*
G01*
X30880558Y-12385802D01*
X30880558Y-12809981D01*
X34954154Y-11641899D02*
G01*
X34954154Y-11911136D01*
X33595309Y-12103354D02*
G01*
X34118550Y-12103354D01*
X34796661Y-11641899D02*
G01*
X34796661Y-11911136D01*
X34824611Y-11751114D02*
G01*
X34926211Y-11751114D01*
X34834761Y-11817156D02*
G01*
X34875411Y-11758736D01*
X34916054Y-11817156D01*
X34834761Y-11817156D01*
X34509709Y-12509754D02*
G01*
X33595309Y-12509754D01*
X33595309Y-12103354D02*
G01*
X33595309Y-12509754D01*
X34326829Y-11907774D02*
G01*
X34687509Y-11907774D01*
X34687509Y-12331954D01*
X38660895Y-9994701D02*
G01*
X38930132Y-9994701D01*
X39122350Y-11353545D02*
G01*
X39122350Y-10830305D01*
X38660895Y-10152194D02*
G01*
X38930132Y-10152194D01*
X38770110Y-10124244D02*
G01*
X38770110Y-10022644D01*
X38836152Y-10114094D02*
G01*
X38777732Y-10073444D01*
X38836152Y-10032801D01*
X38836152Y-10114094D01*
X39528750Y-10439145D02*
G01*
X39528750Y-11353545D01*
X39122350Y-11353545D02*
G01*
X39528750Y-11353545D01*
X38926770Y-10622026D02*
G01*
X38926770Y-10261345D01*
X39350950Y-10261345D01*
X37813178Y-11641899D02*
G01*
X37813178Y-11911136D01*
X36454334Y-12103354D02*
G01*
X36977574Y-12103354D01*
X37655685Y-11641899D02*
G01*
X37655685Y-11911136D01*
X37683635Y-11751114D02*
G01*
X37785235Y-11751114D01*
X37693785Y-11817156D02*
G01*
X37734435Y-11758736D01*
X37775078Y-11817156D01*
X37693785Y-11817156D01*
X37368734Y-12509754D02*
G01*
X36454334Y-12509754D01*
X36454334Y-12103354D02*
G01*
X36454334Y-12509754D01*
X37185854Y-11907774D02*
G01*
X37546534Y-11907774D01*
X37546534Y-12331954D01*
X35909702Y-9734867D02*
G01*
X35909702Y-10004104D01*
X34550858Y-10196321D02*
G01*
X35074098Y-10196321D01*
X35752209Y-9734867D02*
G01*
X35752209Y-10004104D01*
X35780159Y-9844082D02*
G01*
X35881759Y-9844082D01*
X35790309Y-9910124D02*
G01*
X35830959Y-9851704D01*
X35871602Y-9910124D01*
X35790309Y-9910124D01*
X35465258Y-10602721D02*
G01*
X34550858Y-10602721D01*
X34550858Y-10196321D02*
G01*
X34550858Y-10602721D01*
X35282377Y-10000742D02*
G01*
X35643058Y-10000742D01*
X35643058Y-10424921D01*
X29240170Y-12117895D02*
G01*
X29240170Y-12387132D01*
X27881325Y-12579350D02*
G01*
X28404565Y-12579350D01*
X29082677Y-12117895D02*
G01*
X29082677Y-12387132D01*
X29110627Y-12227110D02*
G01*
X29212227Y-12227110D01*
X29120777Y-12293152D02*
G01*
X29161427Y-12234732D01*
X29202070Y-12293152D01*
X29120777Y-12293152D01*
X28795725Y-12985750D02*
G01*
X27881325Y-12985750D01*
X27881325Y-12579350D02*
G01*
X27881325Y-12985750D01*
X28612845Y-12383770D02*
G01*
X28973525Y-12383770D01*
X28973525Y-12807950D01*
X24715160Y-11642915D02*
G01*
X24715160Y-11912152D01*
X23356316Y-12104370D02*
G01*
X23879556Y-12104370D01*
X24557667Y-11642915D02*
G01*
X24557667Y-11912152D01*
X24585617Y-11752130D02*
G01*
X24687217Y-11752130D01*
X24595767Y-11818172D02*
G01*
X24636417Y-11759752D01*
X24677060Y-11818172D01*
X24595767Y-11818172D01*
X24270716Y-12510770D02*
G01*
X23356316Y-12510770D01*
X23356316Y-12104370D02*
G01*
X23356316Y-12510770D01*
X24087836Y-11908789D02*
G01*
X24448516Y-11908789D01*
X24448516Y-12332970D01*
X20669194Y-11642915D02*
G01*
X20669194Y-11912152D01*
X19310350Y-12104370D02*
G01*
X19833590Y-12104370D01*
X20511701Y-11642915D02*
G01*
X20511701Y-11912152D01*
X20539651Y-11752130D02*
G01*
X20641251Y-11752130D01*
X20549801Y-11818172D02*
G01*
X20590451Y-11759752D01*
X20631094Y-11818172D01*
X20549801Y-11818172D01*
X20224750Y-12510770D02*
G01*
X19310350Y-12510770D01*
X19310350Y-12104370D02*
G01*
X19310350Y-12510770D01*
X20041870Y-11908789D02*
G01*
X20402550Y-11908789D01*
X20402550Y-12332970D01*
X6857944Y-11641645D02*
G01*
X6857944Y-11910882D01*
X5499100Y-12103100D02*
G01*
X6022340Y-12103100D01*
X6700451Y-11641645D02*
G01*
X6700451Y-11910882D01*
X6728401Y-11750860D02*
G01*
X6830001Y-11750860D01*
X6738551Y-11816902D02*
G01*
X6779201Y-11758482D01*
X6819844Y-11816902D01*
X6738551Y-11816902D01*
X6413500Y-12509500D02*
G01*
X5499100Y-12509500D01*
X5499100Y-12103100D02*
G01*
X5499100Y-12509500D01*
X6230620Y-11907520D02*
G01*
X6591300Y-11907520D01*
X6591300Y-12331700D01*
X3524702Y-9734867D02*
G01*
X3524702Y-10004104D01*
X2165858Y-10196321D02*
G01*
X2689097Y-10196321D01*
X3367209Y-9734867D02*
G01*
X3367209Y-10004104D01*
X3395159Y-9844082D02*
G01*
X3496759Y-9844082D01*
X3405309Y-9910124D02*
G01*
X3445959Y-9851704D01*
X3486602Y-9910124D01*
X3405309Y-9910124D01*
X3080258Y-10602721D02*
G01*
X2165858Y-10602721D01*
X2165858Y-10196321D02*
G01*
X2165858Y-10602721D01*
X2897377Y-10000742D02*
G01*
X3258058Y-10000742D01*
X3258058Y-10424921D01*
X6382202Y-9734867D02*
G01*
X6382202Y-10004104D01*
X5023358Y-10196321D02*
G01*
X5546597Y-10196321D01*
X6224709Y-9734867D02*
G01*
X6224709Y-10004104D01*
X6252659Y-9844082D02*
G01*
X6354259Y-9844082D01*
X6262809Y-9910124D02*
G01*
X6303459Y-9851704D01*
X6344102Y-9910124D01*
X6262809Y-9910124D01*
X5937758Y-10602721D02*
G01*
X5023358Y-10602721D01*
X5023358Y-10196321D02*
G01*
X5023358Y-10602721D01*
X5754877Y-10000742D02*
G01*
X6115558Y-10000742D01*
X6115558Y-10424921D01*
X10192202Y-9734867D02*
G01*
X10192202Y-10004104D01*
X8833358Y-10196321D02*
G01*
X9356597Y-10196321D01*
X10034709Y-9734867D02*
G01*
X10034709Y-10004104D01*
X10062659Y-9844082D02*
G01*
X10164259Y-9844082D01*
X10072809Y-9910124D02*
G01*
X10113459Y-9851704D01*
X10154102Y-9910124D01*
X10072809Y-9910124D01*
X9747758Y-10602721D02*
G01*
X8833358Y-10602721D01*
X8833358Y-10196321D02*
G01*
X8833358Y-10602721D01*
X9564877Y-10000742D02*
G01*
X9925558Y-10000742D01*
X9925558Y-10424921D01*
X14002202Y-9734867D02*
G01*
X14002202Y-10004104D01*
X12643358Y-10196321D02*
G01*
X13166597Y-10196321D01*
X13844709Y-9734867D02*
G01*
X13844709Y-10004104D01*
X13872659Y-9844082D02*
G01*
X13974259Y-9844082D01*
X13882809Y-9910124D02*
G01*
X13923459Y-9851704D01*
X13964102Y-9910124D01*
X13882809Y-9910124D01*
X13557758Y-10602721D02*
G01*
X12643358Y-10602721D01*
X12643358Y-10196321D02*
G01*
X12643358Y-10602721D01*
X13374877Y-10000742D02*
G01*
X13735558Y-10000742D01*
X13735558Y-10424921D01*
X17812202Y-9734867D02*
G01*
X17812202Y-10004104D01*
X16453358Y-10196321D02*
G01*
X16976598Y-10196321D01*
X17654709Y-9734867D02*
G01*
X17654709Y-10004104D01*
X17682659Y-9844082D02*
G01*
X17784259Y-9844082D01*
X17692809Y-9910124D02*
G01*
X17733459Y-9851704D01*
X17774102Y-9910124D01*
X17692809Y-9910124D01*
X17367758Y-10602721D02*
G01*
X16453358Y-10602721D01*
X16453358Y-10196321D02*
G01*
X16453358Y-10602721D01*
X17184877Y-10000742D02*
G01*
X17545558Y-10000742D01*
X17545558Y-10424921D01*
X21622202Y-9734867D02*
G01*
X21622202Y-10004104D01*
X20263358Y-10196321D02*
G01*
X20786598Y-10196321D01*
X21464709Y-9734867D02*
G01*
X21464709Y-10004104D01*
X21492659Y-9844082D02*
G01*
X21594259Y-9844082D01*
X21502809Y-9910124D02*
G01*
X21543459Y-9851704D01*
X21584102Y-9910124D01*
X21502809Y-9910124D01*
X21177758Y-10602721D02*
G01*
X20263358Y-10602721D01*
X20263358Y-10196321D02*
G01*
X20263358Y-10602721D01*
X20994877Y-10000742D02*
G01*
X21355558Y-10000742D01*
X21355558Y-10424921D01*
X26143402Y-9734867D02*
G01*
X26143402Y-10004104D01*
X24784558Y-10196321D02*
G01*
X25307798Y-10196321D01*
X25985909Y-9734867D02*
G01*
X25985909Y-10004104D01*
X26013859Y-9844082D02*
G01*
X26115459Y-9844082D01*
X26024009Y-9910124D02*
G01*
X26064659Y-9851704D01*
X26105302Y-9910124D01*
X26024009Y-9910124D01*
X25698958Y-10602721D02*
G01*
X24784558Y-10602721D01*
X24784558Y-10196321D02*
G01*
X24784558Y-10602721D01*
X25516077Y-10000742D02*
G01*
X25876758Y-10000742D01*
X25876758Y-10424921D01*
X34004702Y-9734867D02*
G01*
X34004702Y-10004104D01*
X32645858Y-10196321D02*
G01*
X33169098Y-10196321D01*
X33847209Y-9734867D02*
G01*
X33847209Y-10004104D01*
X33875159Y-9844082D02*
G01*
X33976759Y-9844082D01*
X33885309Y-9910124D02*
G01*
X33925959Y-9851704D01*
X33966602Y-9910124D01*
X33885309Y-9910124D01*
X33560258Y-10602721D02*
G01*
X32645858Y-10602721D01*
X32645858Y-10196321D02*
G01*
X32645858Y-10602721D01*
X33377377Y-10000742D02*
G01*
X33738058Y-10000742D01*
X33738058Y-10424921D01*
X37814702Y-9734867D02*
G01*
X37814702Y-10004104D01*
X36455858Y-10196321D02*
G01*
X36979098Y-10196321D01*
X37657209Y-9734867D02*
G01*
X37657209Y-10004104D01*
X37685159Y-9844082D02*
G01*
X37786759Y-9844082D01*
X37695309Y-9910124D02*
G01*
X37735959Y-9851704D01*
X37776602Y-9910124D01*
X37695309Y-9910124D01*
X37370258Y-10602721D02*
G01*
X36455858Y-10602721D01*
X36455858Y-10196321D02*
G01*
X36455858Y-10602721D01*
X37187377Y-10000742D02*
G01*
X37548058Y-10000742D01*
X37548058Y-10424921D01*
X37807844Y-7831645D02*
G01*
X37807844Y-8100882D01*
X36449000Y-8293100D02*
G01*
X36972240Y-8293100D01*
X37650351Y-7831645D02*
G01*
X37650351Y-8100882D01*
X37678301Y-7940860D02*
G01*
X37779901Y-7940860D01*
X37688451Y-8006902D02*
G01*
X37729101Y-7948482D01*
X37769744Y-8006902D01*
X37688451Y-8006902D01*
X37363400Y-8699500D02*
G01*
X36449000Y-8699500D01*
X36449000Y-8293100D02*
G01*
X36449000Y-8699500D01*
X37180520Y-8097520D02*
G01*
X37541200Y-8097520D01*
X37541200Y-8521700D01*
X35902844Y-7831645D02*
G01*
X35902844Y-8100882D01*
X34544000Y-8293100D02*
G01*
X35067240Y-8293100D01*
X35745351Y-7831645D02*
G01*
X35745351Y-8100882D01*
X35773301Y-7940860D02*
G01*
X35874901Y-7940860D01*
X35783451Y-8006902D02*
G01*
X35824101Y-7948482D01*
X35864744Y-8006902D01*
X35783451Y-8006902D01*
X35458400Y-8699500D02*
G01*
X34544000Y-8699500D01*
X34544000Y-8293100D02*
G01*
X34544000Y-8699500D01*
X35275520Y-8097520D02*
G01*
X35636200Y-8097520D01*
X35636200Y-8521700D01*
X29240170Y-10211879D02*
G01*
X29240170Y-10481116D01*
X27881325Y-10673334D02*
G01*
X28404565Y-10673334D01*
X29082677Y-10211879D02*
G01*
X29082677Y-10481116D01*
X29110627Y-10321094D02*
G01*
X29212227Y-10321094D01*
X29120777Y-10387136D02*
G01*
X29161427Y-10328716D01*
X29202070Y-10387136D01*
X29120777Y-10387136D01*
X28795725Y-11079734D02*
G01*
X27881325Y-11079734D01*
X27881325Y-10673334D02*
G01*
X27881325Y-11079734D01*
X28612845Y-10477754D02*
G01*
X28973525Y-10477754D01*
X28973525Y-10901934D01*
X23527202Y-9734867D02*
G01*
X23527202Y-10004104D01*
X22168358Y-10196321D02*
G01*
X22691598Y-10196321D01*
X23369709Y-9734867D02*
G01*
X23369709Y-10004104D01*
X23397659Y-9844082D02*
G01*
X23499259Y-9844082D01*
X23407809Y-9910124D02*
G01*
X23448459Y-9851704D01*
X23489102Y-9910124D01*
X23407809Y-9910124D01*
X23082758Y-10602721D02*
G01*
X22168358Y-10602721D01*
X22168358Y-10196321D02*
G01*
X22168358Y-10602721D01*
X22899877Y-10000742D02*
G01*
X23260558Y-10000742D01*
X23260558Y-10424921D01*
X19717202Y-9734867D02*
G01*
X19717202Y-10004104D01*
X18358358Y-10196321D02*
G01*
X18881598Y-10196321D01*
X19559709Y-9734867D02*
G01*
X19559709Y-10004104D01*
X19587659Y-9844082D02*
G01*
X19689259Y-9844082D01*
X19597809Y-9910124D02*
G01*
X19638459Y-9851704D01*
X19679102Y-9910124D01*
X19597809Y-9910124D01*
X19272758Y-10602721D02*
G01*
X18358358Y-10602721D01*
X18358358Y-10196321D02*
G01*
X18358358Y-10602721D01*
X19089877Y-10000742D02*
G01*
X19450558Y-10000742D01*
X19450558Y-10424921D01*
X15907202Y-9734867D02*
G01*
X15907202Y-10004104D01*
X14548358Y-10196321D02*
G01*
X15071597Y-10196321D01*
X15749709Y-9734867D02*
G01*
X15749709Y-10004104D01*
X15777659Y-9844082D02*
G01*
X15879259Y-9844082D01*
X15787809Y-9910124D02*
G01*
X15828459Y-9851704D01*
X15869102Y-9910124D01*
X15787809Y-9910124D01*
X15462758Y-10602721D02*
G01*
X14548358Y-10602721D01*
X14548358Y-10196321D02*
G01*
X14548358Y-10602721D01*
X15279877Y-10000742D02*
G01*
X15640558Y-10000742D01*
X15640558Y-10424921D01*
X12097202Y-9734867D02*
G01*
X12097202Y-10004104D01*
X10738358Y-10196321D02*
G01*
X11261597Y-10196321D01*
X11939709Y-9734867D02*
G01*
X11939709Y-10004104D01*
X11967659Y-9844082D02*
G01*
X12069259Y-9844082D01*
X11977809Y-9910124D02*
G01*
X12018459Y-9851704D01*
X12059102Y-9910124D01*
X11977809Y-9910124D01*
X11652758Y-10602721D02*
G01*
X10738358Y-10602721D01*
X10738358Y-10196321D02*
G01*
X10738358Y-10602721D01*
X11469877Y-10000742D02*
G01*
X11830558Y-10000742D01*
X11830558Y-10424921D01*
X8287202Y-9734867D02*
G01*
X8287202Y-10004104D01*
X6928358Y-10196321D02*
G01*
X7451597Y-10196321D01*
X8129709Y-9734867D02*
G01*
X8129709Y-10004104D01*
X8157659Y-9844082D02*
G01*
X8259259Y-9844082D01*
X8167809Y-9910124D02*
G01*
X8208459Y-9851704D01*
X8249102Y-9910124D01*
X8167809Y-9910124D01*
X7842758Y-10602721D02*
G01*
X6928358Y-10602721D01*
X6928358Y-10196321D02*
G01*
X6928358Y-10602721D01*
X7659877Y-10000742D02*
G01*
X8020558Y-10000742D01*
X8020558Y-10424921D01*
X2806644Y-7831645D02*
G01*
X2806644Y-8100882D01*
X1447800Y-8293100D02*
G01*
X1971040Y-8293100D01*
X2649151Y-7831645D02*
G01*
X2649151Y-8100882D01*
X2677101Y-7940860D02*
G01*
X2778701Y-7940860D01*
X2687251Y-8006902D02*
G01*
X2727901Y-7948482D01*
X2768544Y-8006902D01*
X2687251Y-8006902D01*
X2362200Y-8699500D02*
G01*
X1447800Y-8699500D01*
X1447800Y-8293100D02*
G01*
X1447800Y-8699500D01*
X2179320Y-8097520D02*
G01*
X2540000Y-8097520D01*
X2540000Y-8521700D01*
X7810444Y-7831645D02*
G01*
X7810444Y-8100882D01*
X6451600Y-8293100D02*
G01*
X6974840Y-8293100D01*
X7652951Y-7831645D02*
G01*
X7652951Y-8100882D01*
X7680901Y-7940860D02*
G01*
X7782501Y-7940860D01*
X7691051Y-8006902D02*
G01*
X7731701Y-7948482D01*
X7772344Y-8006902D01*
X7691051Y-8006902D01*
X7366000Y-8699500D02*
G01*
X6451600Y-8699500D01*
X6451600Y-8293100D02*
G01*
X6451600Y-8699500D01*
X7183120Y-8097520D02*
G01*
X7543800Y-8097520D01*
X7543800Y-8521700D01*
X11620444Y-7831645D02*
G01*
X11620444Y-8100882D01*
X10261600Y-8293100D02*
G01*
X10784840Y-8293100D01*
X11462951Y-7831645D02*
G01*
X11462951Y-8100882D01*
X11490901Y-7940860D02*
G01*
X11592501Y-7940860D01*
X11501051Y-8006902D02*
G01*
X11541701Y-7948482D01*
X11582344Y-8006902D01*
X11501051Y-8006902D01*
X11176000Y-8699500D02*
G01*
X10261600Y-8699500D01*
X10261600Y-8293100D02*
G01*
X10261600Y-8699500D01*
X10993120Y-8097520D02*
G01*
X11353800Y-8097520D01*
X11353800Y-8521700D01*
X15430444Y-7831645D02*
G01*
X15430444Y-8100882D01*
X14071600Y-8293100D02*
G01*
X14594840Y-8293100D01*
X15272951Y-7831645D02*
G01*
X15272951Y-8100882D01*
X15300901Y-7940860D02*
G01*
X15402501Y-7940860D01*
X15311051Y-8006902D02*
G01*
X15351701Y-7948482D01*
X15392344Y-8006902D01*
X15311051Y-8006902D01*
X14986000Y-8699500D02*
G01*
X14071600Y-8699500D01*
X14071600Y-8293100D02*
G01*
X14071600Y-8699500D01*
X14803120Y-8097520D02*
G01*
X15163800Y-8097520D01*
X15163800Y-8521700D01*
X19240444Y-7831645D02*
G01*
X19240444Y-8100882D01*
X17881600Y-8293100D02*
G01*
X18404840Y-8293100D01*
X19082951Y-7831645D02*
G01*
X19082951Y-8100882D01*
X19110901Y-7940860D02*
G01*
X19212501Y-7940860D01*
X19121051Y-8006902D02*
G01*
X19161701Y-7948482D01*
X19202344Y-8006902D01*
X19121051Y-8006902D01*
X18796000Y-8699500D02*
G01*
X17881600Y-8699500D01*
X17881600Y-8293100D02*
G01*
X17881600Y-8699500D01*
X18613120Y-8097520D02*
G01*
X18973800Y-8097520D01*
X18973800Y-8521700D01*
X23050444Y-7831645D02*
G01*
X23050444Y-8100882D01*
X21691600Y-8293100D02*
G01*
X22214840Y-8293100D01*
X22892951Y-7831645D02*
G01*
X22892951Y-8100882D01*
X22920901Y-7940860D02*
G01*
X23022501Y-7940860D01*
X22931051Y-8006902D02*
G01*
X22971701Y-7948482D01*
X23012344Y-8006902D01*
X22931051Y-8006902D01*
X22606000Y-8699500D02*
G01*
X21691600Y-8699500D01*
X21691600Y-8293100D02*
G01*
X21691600Y-8699500D01*
X22423120Y-8097520D02*
G01*
X22783800Y-8097520D01*
X22783800Y-8521700D01*
X28054244Y-7831645D02*
G01*
X28054244Y-8100882D01*
X26695400Y-8293100D02*
G01*
X27218640Y-8293100D01*
X27896751Y-7831645D02*
G01*
X27896751Y-8100882D01*
X27924701Y-7940860D02*
G01*
X28026301Y-7940860D01*
X27934851Y-8006902D02*
G01*
X27975501Y-7948482D01*
X28016144Y-8006902D01*
X27934851Y-8006902D01*
X27609800Y-8699500D02*
G01*
X26695400Y-8699500D01*
X26695400Y-8293100D02*
G01*
X26695400Y-8699500D01*
X27426920Y-8097520D02*
G01*
X27787600Y-8097520D01*
X27787600Y-8521700D01*
X35915544Y-1641411D02*
G01*
X35915544Y-1910648D01*
X34556700Y-2102865D02*
G01*
X35079940Y-2102865D01*
X35758051Y-1641411D02*
G01*
X35758051Y-1910648D01*
X35786001Y-1750626D02*
G01*
X35887601Y-1750626D01*
X35796151Y-1816668D02*
G01*
X35836801Y-1758248D01*
X35877444Y-1816668D01*
X35796151Y-1816668D01*
X35471100Y-2509265D02*
G01*
X34556700Y-2509265D01*
X34556700Y-2102865D02*
G01*
X34556700Y-2509265D01*
X35288220Y-1907286D02*
G01*
X35648900Y-1907286D01*
X35648900Y-2331465D01*
X33997844Y-7831645D02*
G01*
X33997844Y-8100882D01*
X32639000Y-8293100D02*
G01*
X33162240Y-8293100D01*
X33840351Y-7831645D02*
G01*
X33840351Y-8100882D01*
X33868301Y-7940860D02*
G01*
X33969901Y-7940860D01*
X33878451Y-8006902D02*
G01*
X33919101Y-7948482D01*
X33959744Y-8006902D01*
X33878451Y-8006902D01*
X33553400Y-8699500D02*
G01*
X32639000Y-8699500D01*
X32639000Y-8293100D02*
G01*
X32639000Y-8699500D01*
X33370520Y-8097520D02*
G01*
X33731200Y-8097520D01*
X33731200Y-8521700D01*
X38660895Y-6184701D02*
G01*
X38930132Y-6184701D01*
X39122350Y-7543545D02*
G01*
X39122350Y-7020305D01*
X38660895Y-6342194D02*
G01*
X38930132Y-6342194D01*
X38770110Y-6314244D02*
G01*
X38770110Y-6212644D01*
X38836152Y-6304094D02*
G01*
X38777732Y-6263444D01*
X38836152Y-6222801D01*
X38836152Y-6304094D01*
X39528750Y-6629145D02*
G01*
X39528750Y-7543545D01*
X39122350Y-7543545D02*
G01*
X39528750Y-7543545D01*
X38926770Y-6812026D02*
G01*
X38926770Y-6451345D01*
X39350950Y-6451345D01*
X37812924Y-5926645D02*
G01*
X37812924Y-6195882D01*
X36454079Y-6388100D02*
G01*
X36977320Y-6388100D01*
X37655431Y-5926645D02*
G01*
X37655431Y-6195882D01*
X37683381Y-6035860D02*
G01*
X37784981Y-6035860D01*
X37693531Y-6101902D02*
G01*
X37734181Y-6043482D01*
X37774824Y-6101902D01*
X37693531Y-6101902D01*
X37368479Y-6794500D02*
G01*
X36454079Y-6794500D01*
X36454079Y-6388100D02*
G01*
X36454079Y-6794500D01*
X37185600Y-6192520D02*
G01*
X37546279Y-6192520D01*
X37546279Y-6616700D01*
X35907924Y-5926645D02*
G01*
X35907924Y-6195882D01*
X34549079Y-6388100D02*
G01*
X35072320Y-6388100D01*
X35750431Y-5926645D02*
G01*
X35750431Y-6195882D01*
X35778381Y-6035860D02*
G01*
X35879981Y-6035860D01*
X35788531Y-6101902D02*
G01*
X35829181Y-6043482D01*
X35869824Y-6101902D01*
X35788531Y-6101902D01*
X35463479Y-6794500D02*
G01*
X34549079Y-6794500D01*
X34549079Y-6388100D02*
G01*
X34549079Y-6794500D01*
X35280600Y-6192520D02*
G01*
X35641279Y-6192520D01*
X35641279Y-6616700D01*
X31622944Y-5926645D02*
G01*
X31622944Y-6195882D01*
X30264100Y-6388100D02*
G01*
X30787340Y-6388100D01*
X31465451Y-5926645D02*
G01*
X31465451Y-6195882D01*
X31493401Y-6035860D02*
G01*
X31595001Y-6035860D01*
X31503551Y-6101902D02*
G01*
X31544201Y-6043482D01*
X31584844Y-6101902D01*
X31503551Y-6101902D01*
X31178500Y-6794500D02*
G01*
X30264100Y-6794500D01*
X30264100Y-6388100D02*
G01*
X30264100Y-6794500D01*
X30995620Y-6192520D02*
G01*
X31356300Y-6192520D01*
X31356300Y-6616700D01*
X24955444Y-7831645D02*
G01*
X24955444Y-8100882D01*
X23596600Y-8293100D02*
G01*
X24119840Y-8293100D01*
X24797951Y-7831645D02*
G01*
X24797951Y-8100882D01*
X24825901Y-7940860D02*
G01*
X24927501Y-7940860D01*
X24836051Y-8006902D02*
G01*
X24876701Y-7948482D01*
X24917344Y-8006902D01*
X24836051Y-8006902D01*
X24511000Y-8699500D02*
G01*
X23596600Y-8699500D01*
X23596600Y-8293100D02*
G01*
X23596600Y-8699500D01*
X24328120Y-8097520D02*
G01*
X24688800Y-8097520D01*
X24688800Y-8521700D01*
X21145444Y-7831645D02*
G01*
X21145444Y-8100882D01*
X19786600Y-8293100D02*
G01*
X20309840Y-8293100D01*
X20987951Y-7831645D02*
G01*
X20987951Y-8100882D01*
X21015901Y-7940860D02*
G01*
X21117501Y-7940860D01*
X21026051Y-8006902D02*
G01*
X21066701Y-7948482D01*
X21107344Y-8006902D01*
X21026051Y-8006902D01*
X20701000Y-8699500D02*
G01*
X19786600Y-8699500D01*
X19786600Y-8293100D02*
G01*
X19786600Y-8699500D01*
X20518120Y-8097520D02*
G01*
X20878800Y-8097520D01*
X20878800Y-8521700D01*
X17335444Y-7831645D02*
G01*
X17335444Y-8100882D01*
X15976600Y-8293100D02*
G01*
X16499840Y-8293100D01*
X17177951Y-7831645D02*
G01*
X17177951Y-8100882D01*
X17205901Y-7940860D02*
G01*
X17307501Y-7940860D01*
X17216051Y-8006902D02*
G01*
X17256701Y-7948482D01*
X17297344Y-8006902D01*
X17216051Y-8006902D01*
X16891000Y-8699500D02*
G01*
X15976600Y-8699500D01*
X15976600Y-8293100D02*
G01*
X15976600Y-8699500D01*
X16708120Y-8097520D02*
G01*
X17068800Y-8097520D01*
X17068800Y-8521700D01*
X13525444Y-7831645D02*
G01*
X13525444Y-8100882D01*
X12166600Y-8293100D02*
G01*
X12689840Y-8293100D01*
X13367951Y-7831645D02*
G01*
X13367951Y-8100882D01*
X13395901Y-7940860D02*
G01*
X13497501Y-7940860D01*
X13406051Y-8006902D02*
G01*
X13446701Y-7948482D01*
X13487344Y-8006902D01*
X13406051Y-8006902D01*
X13081000Y-8699500D02*
G01*
X12166600Y-8699500D01*
X12166600Y-8293100D02*
G01*
X12166600Y-8699500D01*
X12898120Y-8097520D02*
G01*
X13258800Y-8097520D01*
X13258800Y-8521700D01*
X9715444Y-7831645D02*
G01*
X9715444Y-8100882D01*
X8356600Y-8293100D02*
G01*
X8879840Y-8293100D01*
X9557951Y-7831645D02*
G01*
X9557951Y-8100882D01*
X9585901Y-7940860D02*
G01*
X9687501Y-7940860D01*
X9596051Y-8006902D02*
G01*
X9636701Y-7948482D01*
X9677344Y-8006902D01*
X9596051Y-8006902D01*
X9271000Y-8699500D02*
G01*
X8356600Y-8699500D01*
X8356600Y-8293100D02*
G01*
X8356600Y-8699500D01*
X9088120Y-8097520D02*
G01*
X9448800Y-8097520D01*
X9448800Y-8521700D01*
X5905444Y-7831645D02*
G01*
X5905444Y-8100882D01*
X4546600Y-8293100D02*
G01*
X5069840Y-8293100D01*
X5747951Y-7831645D02*
G01*
X5747951Y-8100882D01*
X5775901Y-7940860D02*
G01*
X5877501Y-7940860D01*
X5786051Y-8006902D02*
G01*
X5826701Y-7948482D01*
X5867344Y-8006902D01*
X5786051Y-8006902D01*
X5461000Y-8699500D02*
G01*
X4546600Y-8699500D01*
X4546600Y-8293100D02*
G01*
X4546600Y-8699500D01*
X5278120Y-8097520D02*
G01*
X5638800Y-8097520D01*
X5638800Y-8521700D01*
X3047944Y-5926645D02*
G01*
X3047944Y-6195882D01*
X1689100Y-6388100D02*
G01*
X2212340Y-6388100D01*
X2890451Y-5926645D02*
G01*
X2890451Y-6195882D01*
X2918401Y-6035860D02*
G01*
X3020001Y-6035860D01*
X2928551Y-6101902D02*
G01*
X2969201Y-6043482D01*
X3009844Y-6101902D01*
X2928551Y-6101902D01*
X2603500Y-6794500D02*
G01*
X1689100Y-6794500D01*
X1689100Y-6388100D02*
G01*
X1689100Y-6794500D01*
X2420620Y-6192520D02*
G01*
X2781300Y-6192520D01*
X2781300Y-6616700D01*
X7332924Y-5926645D02*
G01*
X7332924Y-6195882D01*
X5974079Y-6388100D02*
G01*
X6497320Y-6388100D01*
X7175431Y-5926645D02*
G01*
X7175431Y-6195882D01*
X7203381Y-6035860D02*
G01*
X7304981Y-6035860D01*
X7213531Y-6101902D02*
G01*
X7254181Y-6043482D01*
X7294824Y-6101902D01*
X7213531Y-6101902D01*
X6888479Y-6794500D02*
G01*
X5974079Y-6794500D01*
X5974079Y-6388100D02*
G01*
X5974079Y-6794500D01*
X6705600Y-6192520D02*
G01*
X7066279Y-6192520D01*
X7066279Y-6616700D01*
X11142924Y-5926645D02*
G01*
X11142924Y-6195882D01*
X9784079Y-6388100D02*
G01*
X10307320Y-6388100D01*
X10985431Y-5926645D02*
G01*
X10985431Y-6195882D01*
X11013381Y-6035860D02*
G01*
X11114981Y-6035860D01*
X11023531Y-6101902D02*
G01*
X11064181Y-6043482D01*
X11104824Y-6101902D01*
X11023531Y-6101902D01*
X10698479Y-6794500D02*
G01*
X9784079Y-6794500D01*
X9784079Y-6388100D02*
G01*
X9784079Y-6794500D01*
X10515600Y-6192520D02*
G01*
X10876279Y-6192520D01*
X10876279Y-6616700D01*
X14952924Y-5926645D02*
G01*
X14952924Y-6195882D01*
X13594079Y-6388100D02*
G01*
X14117320Y-6388100D01*
X14795431Y-5926645D02*
G01*
X14795431Y-6195882D01*
X14823381Y-6035860D02*
G01*
X14924981Y-6035860D01*
X14833531Y-6101902D02*
G01*
X14874181Y-6043482D01*
X14914824Y-6101902D01*
X14833531Y-6101902D01*
X14508479Y-6794500D02*
G01*
X13594079Y-6794500D01*
X13594079Y-6388100D02*
G01*
X13594079Y-6794500D01*
X14325600Y-6192520D02*
G01*
X14686279Y-6192520D01*
X14686279Y-6616700D01*
X18762924Y-5926645D02*
G01*
X18762924Y-6195882D01*
X17404079Y-6388100D02*
G01*
X17927320Y-6388100D01*
X18605431Y-5926645D02*
G01*
X18605431Y-6195882D01*
X18633381Y-6035860D02*
G01*
X18734981Y-6035860D01*
X18643531Y-6101902D02*
G01*
X18684181Y-6043482D01*
X18724824Y-6101902D01*
X18643531Y-6101902D01*
X18318479Y-6794500D02*
G01*
X17404079Y-6794500D01*
X17404079Y-6388100D02*
G01*
X17404079Y-6794500D01*
X18135600Y-6192520D02*
G01*
X18496279Y-6192520D01*
X18496279Y-6616700D01*
X22572924Y-5926645D02*
G01*
X22572924Y-6195882D01*
X21214079Y-6388100D02*
G01*
X21737320Y-6388100D01*
X22415431Y-5926645D02*
G01*
X22415431Y-6195882D01*
X22443381Y-6035860D02*
G01*
X22544981Y-6035860D01*
X22453531Y-6101902D02*
G01*
X22494181Y-6043482D01*
X22534824Y-6101902D01*
X22453531Y-6101902D01*
X22128479Y-6794500D02*
G01*
X21214079Y-6794500D01*
X21214079Y-6388100D02*
G01*
X21214079Y-6794500D01*
X21945600Y-6192520D02*
G01*
X22306279Y-6192520D01*
X22306279Y-6616700D01*
X26382924Y-5926645D02*
G01*
X26382924Y-6195882D01*
X25024079Y-6388100D02*
G01*
X25547320Y-6388100D01*
X26225431Y-5926645D02*
G01*
X26225431Y-6195882D01*
X26253381Y-6035860D02*
G01*
X26354981Y-6035860D01*
X26263531Y-6101902D02*
G01*
X26304181Y-6043482D01*
X26344824Y-6101902D01*
X26263531Y-6101902D01*
X25938479Y-6794500D02*
G01*
X25024079Y-6794500D01*
X25024079Y-6388100D02*
G01*
X25024079Y-6794500D01*
X25755600Y-6192520D02*
G01*
X26116279Y-6192520D01*
X26116279Y-6616700D01*
X29235344Y-1641411D02*
G01*
X29235344Y-1910648D01*
X27876500Y-2102865D02*
G01*
X28399740Y-2102865D01*
X29077851Y-1641411D02*
G01*
X29077851Y-1910648D01*
X29105801Y-1750626D02*
G01*
X29207401Y-1750626D01*
X29115951Y-1816668D02*
G01*
X29156601Y-1758248D01*
X29197244Y-1816668D01*
X29115951Y-1816668D01*
X28790900Y-2509265D02*
G01*
X27876500Y-2509265D01*
X27876500Y-2102865D02*
G01*
X27876500Y-2509265D01*
X28608020Y-1907286D02*
G01*
X28968700Y-1907286D01*
X28968700Y-2331465D01*
X31629040Y-4021645D02*
G01*
X31629040Y-4290882D01*
X30270195Y-4483100D02*
G01*
X30793436Y-4483100D01*
X31471547Y-4021645D02*
G01*
X31471547Y-4290882D01*
X31499497Y-4130860D02*
G01*
X31601097Y-4130860D01*
X31509647Y-4196902D02*
G01*
X31550297Y-4138482D01*
X31590940Y-4196902D01*
X31509647Y-4196902D01*
X31184595Y-4889500D02*
G01*
X30270195Y-4889500D01*
X30270195Y-4483100D02*
G01*
X30270195Y-4889500D01*
X31001715Y-4287520D02*
G01*
X31362395Y-4287520D01*
X31362395Y-4711700D01*
X34002924Y-5926645D02*
G01*
X34002924Y-6195882D01*
X32644079Y-6388100D02*
G01*
X33167320Y-6388100D01*
X33845431Y-5926645D02*
G01*
X33845431Y-6195882D01*
X33873381Y-6035860D02*
G01*
X33974981Y-6035860D01*
X33883531Y-6101902D02*
G01*
X33924181Y-6043482D01*
X33964824Y-6101902D01*
X33883531Y-6101902D01*
X33558479Y-6794500D02*
G01*
X32644079Y-6794500D01*
X32644079Y-6388100D02*
G01*
X32644079Y-6794500D01*
X33375600Y-6192520D02*
G01*
X33736279Y-6192520D01*
X33736279Y-6616700D01*
X39718940Y-4021645D02*
G01*
X39718940Y-4290882D01*
X38360096Y-4483100D02*
G01*
X38883336Y-4483100D01*
X39561447Y-4021645D02*
G01*
X39561447Y-4290882D01*
X39589397Y-4130860D02*
G01*
X39690997Y-4130860D01*
X39599547Y-4196902D02*
G01*
X39640197Y-4138482D01*
X39680840Y-4196902D01*
X39599547Y-4196902D01*
X39274496Y-4889500D02*
G01*
X38360096Y-4889500D01*
X38360096Y-4483100D02*
G01*
X38360096Y-4889500D01*
X39091616Y-4287520D02*
G01*
X39452296Y-4287520D01*
X39452296Y-4711700D01*
X37813940Y-4021645D02*
G01*
X37813940Y-4290882D01*
X36455096Y-4483100D02*
G01*
X36978336Y-4483100D01*
X37656447Y-4021645D02*
G01*
X37656447Y-4290882D01*
X37684397Y-4130860D02*
G01*
X37785997Y-4130860D01*
X37694547Y-4196902D02*
G01*
X37735197Y-4138482D01*
X37775840Y-4196902D01*
X37694547Y-4196902D01*
X37369496Y-4889500D02*
G01*
X36455096Y-4889500D01*
X36455096Y-4483100D02*
G01*
X36455096Y-4889500D01*
X37186616Y-4287520D02*
G01*
X37547296Y-4287520D01*
X37547296Y-4711700D01*
X35908940Y-4021645D02*
G01*
X35908940Y-4290882D01*
X34550096Y-4483100D02*
G01*
X35073336Y-4483100D01*
X35751447Y-4021645D02*
G01*
X35751447Y-4290882D01*
X35779397Y-4130860D02*
G01*
X35880997Y-4130860D01*
X35789547Y-4196902D02*
G01*
X35830197Y-4138482D01*
X35870840Y-4196902D01*
X35789547Y-4196902D01*
X35464496Y-4889500D02*
G01*
X34550096Y-4889500D01*
X34550096Y-4483100D02*
G01*
X34550096Y-4889500D01*
X35281616Y-4287520D02*
G01*
X35642296Y-4287520D01*
X35642296Y-4711700D01*
X31622944Y-1641411D02*
G01*
X31622944Y-1910648D01*
X30264100Y-2102865D02*
G01*
X30787340Y-2102865D01*
X31465451Y-1641411D02*
G01*
X31465451Y-1910648D01*
X31493401Y-1750626D02*
G01*
X31595001Y-1750626D01*
X31503551Y-1816668D02*
G01*
X31544201Y-1758248D01*
X31584844Y-1816668D01*
X31503551Y-1816668D01*
X31178500Y-2509265D02*
G01*
X30264100Y-2509265D01*
X30264100Y-2102865D02*
G01*
X30264100Y-2509265D01*
X30995620Y-1907286D02*
G01*
X31356300Y-1907286D01*
X31356300Y-2331465D01*
X28765444Y-5926645D02*
G01*
X28765444Y-6195882D01*
X27406600Y-6388100D02*
G01*
X27929840Y-6388100D01*
X28607951Y-5926645D02*
G01*
X28607951Y-6195882D01*
X28635901Y-6035860D02*
G01*
X28737501Y-6035860D01*
X28646051Y-6101902D02*
G01*
X28686701Y-6043482D01*
X28727344Y-6101902D01*
X28646051Y-6101902D01*
X28321000Y-6794500D02*
G01*
X27406600Y-6794500D01*
X27406600Y-6388100D02*
G01*
X27406600Y-6794500D01*
X28138120Y-6192520D02*
G01*
X28498800Y-6192520D01*
X28498800Y-6616700D01*
X24477924Y-5926645D02*
G01*
X24477924Y-6195882D01*
X23119079Y-6388100D02*
G01*
X23642320Y-6388100D01*
X24320431Y-5926645D02*
G01*
X24320431Y-6195882D01*
X24348381Y-6035860D02*
G01*
X24449981Y-6035860D01*
X24358531Y-6101902D02*
G01*
X24399181Y-6043482D01*
X24439824Y-6101902D01*
X24358531Y-6101902D01*
X24033479Y-6794500D02*
G01*
X23119079Y-6794500D01*
X23119079Y-6388100D02*
G01*
X23119079Y-6794500D01*
X23850600Y-6192520D02*
G01*
X24211279Y-6192520D01*
X24211279Y-6616700D01*
X20667924Y-5926645D02*
G01*
X20667924Y-6195882D01*
X19309079Y-6388100D02*
G01*
X19832320Y-6388100D01*
X20510431Y-5926645D02*
G01*
X20510431Y-6195882D01*
X20538381Y-6035860D02*
G01*
X20639981Y-6035860D01*
X20548531Y-6101902D02*
G01*
X20589181Y-6043482D01*
X20629824Y-6101902D01*
X20548531Y-6101902D01*
X20223479Y-6794500D02*
G01*
X19309079Y-6794500D01*
X19309079Y-6388100D02*
G01*
X19309079Y-6794500D01*
X20040600Y-6192520D02*
G01*
X20401279Y-6192520D01*
X20401279Y-6616700D01*
X16857924Y-5926645D02*
G01*
X16857924Y-6195882D01*
X15499079Y-6388100D02*
G01*
X16022320Y-6388100D01*
X16700431Y-5926645D02*
G01*
X16700431Y-6195882D01*
X16728381Y-6035860D02*
G01*
X16829981Y-6035860D01*
X16738531Y-6101902D02*
G01*
X16779181Y-6043482D01*
X16819824Y-6101902D01*
X16738531Y-6101902D01*
X16413479Y-6794500D02*
G01*
X15499079Y-6794500D01*
X15499079Y-6388100D02*
G01*
X15499079Y-6794500D01*
X16230600Y-6192520D02*
G01*
X16591279Y-6192520D01*
X16591279Y-6616700D01*
X13047924Y-5926645D02*
G01*
X13047924Y-6195882D01*
X11689079Y-6388100D02*
G01*
X12212320Y-6388100D01*
X12890431Y-5926645D02*
G01*
X12890431Y-6195882D01*
X12918381Y-6035860D02*
G01*
X13019981Y-6035860D01*
X12928531Y-6101902D02*
G01*
X12969181Y-6043482D01*
X13009824Y-6101902D01*
X12928531Y-6101902D01*
X12603479Y-6794500D02*
G01*
X11689079Y-6794500D01*
X11689079Y-6388100D02*
G01*
X11689079Y-6794500D01*
X12420600Y-6192520D02*
G01*
X12781279Y-6192520D01*
X12781279Y-6616700D01*
X9237924Y-5926645D02*
G01*
X9237924Y-6195882D01*
X7879079Y-6388100D02*
G01*
X8402320Y-6388100D01*
X9080431Y-5926645D02*
G01*
X9080431Y-6195882D01*
X9108381Y-6035860D02*
G01*
X9209981Y-6035860D01*
X9118531Y-6101902D02*
G01*
X9159181Y-6043482D01*
X9199824Y-6101902D01*
X9118531Y-6101902D01*
X8793479Y-6794500D02*
G01*
X7879079Y-6794500D01*
X7879079Y-6388100D02*
G01*
X7879079Y-6794500D01*
X8610600Y-6192520D02*
G01*
X8971279Y-6192520D01*
X8971279Y-6616700D01*
X5427924Y-5926645D02*
G01*
X5427924Y-6195882D01*
X4069079Y-6388100D02*
G01*
X4592320Y-6388100D01*
X5270431Y-5926645D02*
G01*
X5270431Y-6195882D01*
X5298381Y-6035860D02*
G01*
X5399981Y-6035860D01*
X5308531Y-6101902D02*
G01*
X5349181Y-6043482D01*
X5389824Y-6101902D01*
X5308531Y-6101902D01*
X4983479Y-6794500D02*
G01*
X4069079Y-6794500D01*
X4069079Y-6388100D02*
G01*
X4069079Y-6794500D01*
X4800600Y-6192520D02*
G01*
X5161279Y-6192520D01*
X5161279Y-6616700D01*
X2571440Y-4021645D02*
G01*
X2571440Y-4290882D01*
X1212595Y-4483100D02*
G01*
X1735836Y-4483100D01*
X2413947Y-4021645D02*
G01*
X2413947Y-4290882D01*
X2441897Y-4130860D02*
G01*
X2543497Y-4130860D01*
X2452047Y-4196902D02*
G01*
X2492697Y-4138482D01*
X2533340Y-4196902D01*
X2452047Y-4196902D01*
X2126995Y-4889500D02*
G01*
X1212595Y-4889500D01*
X1212595Y-4483100D02*
G01*
X1212595Y-4889500D01*
X1944115Y-4287520D02*
G01*
X2304795Y-4287520D01*
X2304795Y-4711700D01*
X6381440Y-4021645D02*
G01*
X6381440Y-4290882D01*
X5022595Y-4483100D02*
G01*
X5545836Y-4483100D01*
X6223947Y-4021645D02*
G01*
X6223947Y-4290882D01*
X6251897Y-4130860D02*
G01*
X6353497Y-4130860D01*
X6262047Y-4196902D02*
G01*
X6302697Y-4138482D01*
X6343340Y-4196902D01*
X6262047Y-4196902D01*
X5936995Y-4889500D02*
G01*
X5022595Y-4889500D01*
X5022595Y-4483100D02*
G01*
X5022595Y-4889500D01*
X5754115Y-4287520D02*
G01*
X6114795Y-4287520D01*
X6114795Y-4711700D01*
X10191440Y-4021645D02*
G01*
X10191440Y-4290882D01*
X8832595Y-4483100D02*
G01*
X9355836Y-4483100D01*
X10033947Y-4021645D02*
G01*
X10033947Y-4290882D01*
X10061897Y-4130860D02*
G01*
X10163497Y-4130860D01*
X10072047Y-4196902D02*
G01*
X10112697Y-4138482D01*
X10153340Y-4196902D01*
X10072047Y-4196902D01*
X9746995Y-4889500D02*
G01*
X8832595Y-4889500D01*
X8832595Y-4483100D02*
G01*
X8832595Y-4889500D01*
X9564115Y-4287520D02*
G01*
X9924795Y-4287520D01*
X9924795Y-4711700D01*
X14001440Y-4021645D02*
G01*
X14001440Y-4290882D01*
X12642595Y-4483100D02*
G01*
X13165836Y-4483100D01*
X13843947Y-4021645D02*
G01*
X13843947Y-4290882D01*
X13871897Y-4130860D02*
G01*
X13973497Y-4130860D01*
X13882047Y-4196902D02*
G01*
X13922697Y-4138482D01*
X13963340Y-4196902D01*
X13882047Y-4196902D01*
X13556995Y-4889500D02*
G01*
X12642595Y-4889500D01*
X12642595Y-4483100D02*
G01*
X12642595Y-4889500D01*
X13374116Y-4287520D02*
G01*
X13734795Y-4287520D01*
X13734795Y-4711700D01*
X17811440Y-4021645D02*
G01*
X17811440Y-4290882D01*
X16452595Y-4483100D02*
G01*
X16975836Y-4483100D01*
X17653947Y-4021645D02*
G01*
X17653947Y-4290882D01*
X17681897Y-4130860D02*
G01*
X17783497Y-4130860D01*
X17692047Y-4196902D02*
G01*
X17732697Y-4138482D01*
X17773340Y-4196902D01*
X17692047Y-4196902D01*
X17366995Y-4889500D02*
G01*
X16452595Y-4889500D01*
X16452595Y-4483100D02*
G01*
X16452595Y-4889500D01*
X17184116Y-4287520D02*
G01*
X17544795Y-4287520D01*
X17544795Y-4711700D01*
X21621440Y-4021645D02*
G01*
X21621440Y-4290882D01*
X20262595Y-4483100D02*
G01*
X20785836Y-4483100D01*
X21463947Y-4021645D02*
G01*
X21463947Y-4290882D01*
X21491897Y-4130860D02*
G01*
X21593497Y-4130860D01*
X21502047Y-4196902D02*
G01*
X21542697Y-4138482D01*
X21583340Y-4196902D01*
X21502047Y-4196902D01*
X21176995Y-4889500D02*
G01*
X20262595Y-4889500D01*
X20262595Y-4483100D02*
G01*
X20262595Y-4889500D01*
X20994116Y-4287520D02*
G01*
X21354795Y-4287520D01*
X21354795Y-4711700D01*
X25444140Y-4021645D02*
G01*
X25444140Y-4290882D01*
X24085295Y-4483100D02*
G01*
X24608536Y-4483100D01*
X25286647Y-4021645D02*
G01*
X25286647Y-4290882D01*
X25314597Y-4130860D02*
G01*
X25416197Y-4130860D01*
X25324747Y-4196902D02*
G01*
X25365397Y-4138482D01*
X25406040Y-4196902D01*
X25324747Y-4196902D01*
X24999695Y-4889500D02*
G01*
X24085295Y-4889500D01*
X24085295Y-4483100D02*
G01*
X24085295Y-4889500D01*
X24816816Y-4287520D02*
G01*
X25177495Y-4287520D01*
X25177495Y-4711700D01*
X28288940Y-4021645D02*
G01*
X28288940Y-4290882D01*
X26930095Y-4483100D02*
G01*
X27453336Y-4483100D01*
X28131447Y-4021645D02*
G01*
X28131447Y-4290882D01*
X28159397Y-4130860D02*
G01*
X28260997Y-4130860D01*
X28169547Y-4196902D02*
G01*
X28210197Y-4138482D01*
X28250840Y-4196902D01*
X28169547Y-4196902D01*
X27844495Y-4889500D02*
G01*
X26930095Y-4889500D01*
X26930095Y-4483100D02*
G01*
X26930095Y-4889500D01*
X27661615Y-4287520D02*
G01*
X28022295Y-4287520D01*
X28022295Y-4711700D01*
X33997844Y-1641411D02*
G01*
X33997844Y-1910648D01*
X32639000Y-2102865D02*
G01*
X33162240Y-2102865D01*
X33840351Y-1641411D02*
G01*
X33840351Y-1910648D01*
X33868301Y-1750626D02*
G01*
X33969901Y-1750626D01*
X33878451Y-1816668D02*
G01*
X33919101Y-1758248D01*
X33959744Y-1816668D01*
X33878451Y-1816668D01*
X33553400Y-2509265D02*
G01*
X32639000Y-2509265D01*
X32639000Y-2102865D02*
G01*
X32639000Y-2509265D01*
X33370520Y-1907286D02*
G01*
X33731200Y-1907286D01*
X33731200Y-2331465D01*
X34003940Y-4021645D02*
G01*
X34003940Y-4290882D01*
X32645095Y-4483100D02*
G01*
X33168336Y-4483100D01*
X33846447Y-4021645D02*
G01*
X33846447Y-4290882D01*
X33874397Y-4130860D02*
G01*
X33975997Y-4130860D01*
X33884547Y-4196902D02*
G01*
X33925197Y-4138482D01*
X33965840Y-4196902D01*
X33884547Y-4196902D01*
X33559496Y-4889500D02*
G01*
X32645095Y-4889500D01*
X32645095Y-4483100D02*
G01*
X32645095Y-4889500D01*
X33376615Y-4287520D02*
G01*
X33737296Y-4287520D01*
X33737296Y-4711700D01*
X23526440Y-4021645D02*
G01*
X23526440Y-4290882D01*
X22167595Y-4483100D02*
G01*
X22690836Y-4483100D01*
X23368947Y-4021645D02*
G01*
X23368947Y-4290882D01*
X23396897Y-4130860D02*
G01*
X23498497Y-4130860D01*
X23407047Y-4196902D02*
G01*
X23447697Y-4138482D01*
X23488340Y-4196902D01*
X23407047Y-4196902D01*
X23081995Y-4889500D02*
G01*
X22167595Y-4889500D01*
X22167595Y-4483100D02*
G01*
X22167595Y-4889500D01*
X22899116Y-4287520D02*
G01*
X23259795Y-4287520D01*
X23259795Y-4711700D01*
X19716440Y-4021645D02*
G01*
X19716440Y-4290882D01*
X18357595Y-4483100D02*
G01*
X18880836Y-4483100D01*
X19558947Y-4021645D02*
G01*
X19558947Y-4290882D01*
X19586897Y-4130860D02*
G01*
X19688497Y-4130860D01*
X19597047Y-4196902D02*
G01*
X19637697Y-4138482D01*
X19678340Y-4196902D01*
X19597047Y-4196902D01*
X19271995Y-4889500D02*
G01*
X18357595Y-4889500D01*
X18357595Y-4483100D02*
G01*
X18357595Y-4889500D01*
X19089116Y-4287520D02*
G01*
X19449795Y-4287520D01*
X19449795Y-4711700D01*
X15906440Y-4021645D02*
G01*
X15906440Y-4290882D01*
X14547595Y-4483100D02*
G01*
X15070836Y-4483100D01*
X15748947Y-4021645D02*
G01*
X15748947Y-4290882D01*
X15776897Y-4130860D02*
G01*
X15878497Y-4130860D01*
X15787047Y-4196902D02*
G01*
X15827697Y-4138482D01*
X15868340Y-4196902D01*
X15787047Y-4196902D01*
X15461995Y-4889500D02*
G01*
X14547595Y-4889500D01*
X14547595Y-4483100D02*
G01*
X14547595Y-4889500D01*
X15279116Y-4287520D02*
G01*
X15639795Y-4287520D01*
X15639795Y-4711700D01*
X12096440Y-4021645D02*
G01*
X12096440Y-4290882D01*
X10737595Y-4483100D02*
G01*
X11260836Y-4483100D01*
X11938947Y-4021645D02*
G01*
X11938947Y-4290882D01*
X11966897Y-4130860D02*
G01*
X12068497Y-4130860D01*
X11977047Y-4196902D02*
G01*
X12017697Y-4138482D01*
X12058340Y-4196902D01*
X11977047Y-4196902D01*
X11651995Y-4889500D02*
G01*
X10737595Y-4889500D01*
X10737595Y-4483100D02*
G01*
X10737595Y-4889500D01*
X11469115Y-4287520D02*
G01*
X11829795Y-4287520D01*
X11829795Y-4711700D01*
X8286440Y-4021645D02*
G01*
X8286440Y-4290882D01*
X6927595Y-4483100D02*
G01*
X7450836Y-4483100D01*
X8128947Y-4021645D02*
G01*
X8128947Y-4290882D01*
X8156897Y-4130860D02*
G01*
X8258497Y-4130860D01*
X8167047Y-4196902D02*
G01*
X8207697Y-4138482D01*
X8248340Y-4196902D01*
X8167047Y-4196902D01*
X7841995Y-4889500D02*
G01*
X6927595Y-4889500D01*
X6927595Y-4483100D02*
G01*
X6927595Y-4889500D01*
X7659115Y-4287520D02*
G01*
X8019795Y-4287520D01*
X8019795Y-4711700D01*
X4476440Y-4021645D02*
G01*
X4476440Y-4290882D01*
X3117595Y-4483100D02*
G01*
X3640836Y-4483100D01*
X4318947Y-4021645D02*
G01*
X4318947Y-4290882D01*
X4346897Y-4130860D02*
G01*
X4448497Y-4130860D01*
X4357047Y-4196902D02*
G01*
X4397697Y-4138482D01*
X4438340Y-4196902D01*
X4357047Y-4196902D01*
X4031995Y-4889500D02*
G01*
X3117595Y-4889500D01*
X3117595Y-4483100D02*
G01*
X3117595Y-4889500D01*
X3849115Y-4287520D02*
G01*
X4209795Y-4287520D01*
X4209795Y-4711700D01*
X6857944Y-1641411D02*
G01*
X6857944Y-1910648D01*
X5499100Y-2102865D02*
G01*
X6022340Y-2102865D01*
X6700451Y-1641411D02*
G01*
X6700451Y-1910648D01*
X6728401Y-1750626D02*
G01*
X6830001Y-1750626D01*
X6738551Y-1816668D02*
G01*
X6779201Y-1758248D01*
X6819844Y-1816668D01*
X6738551Y-1816668D01*
X6413500Y-2509265D02*
G01*
X5499100Y-2509265D01*
X5499100Y-2102865D02*
G01*
X5499100Y-2509265D01*
X6230620Y-1907286D02*
G01*
X6591300Y-1907286D01*
X6591300Y-2331465D01*
X10667944Y-1641411D02*
G01*
X10667944Y-1910648D01*
X9309100Y-2102865D02*
G01*
X9832340Y-2102865D01*
X10510451Y-1641411D02*
G01*
X10510451Y-1910648D01*
X10538401Y-1750626D02*
G01*
X10640001Y-1750626D01*
X10548551Y-1816668D02*
G01*
X10589201Y-1758248D01*
X10629844Y-1816668D01*
X10548551Y-1816668D01*
X10223500Y-2509265D02*
G01*
X9309100Y-2509265D01*
X9309100Y-2102865D02*
G01*
X9309100Y-2509265D01*
X10040620Y-1907286D02*
G01*
X10401300Y-1907286D01*
X10401300Y-2331465D01*
X14947844Y-1641411D02*
G01*
X14947844Y-1910648D01*
X13589000Y-2102865D02*
G01*
X14112240Y-2102865D01*
X14790351Y-1641411D02*
G01*
X14790351Y-1910648D01*
X14818301Y-1750626D02*
G01*
X14919901Y-1750626D01*
X14828451Y-1816668D02*
G01*
X14869101Y-1758248D01*
X14909744Y-1816668D01*
X14828451Y-1816668D01*
X14503400Y-2509265D02*
G01*
X13589000Y-2509265D01*
X13589000Y-2102865D02*
G01*
X13589000Y-2509265D01*
X14320520Y-1907286D02*
G01*
X14681200Y-1907286D01*
X14681200Y-2331465D01*
X18757844Y-1641411D02*
G01*
X18757844Y-1910648D01*
X17399000Y-2102865D02*
G01*
X17922240Y-2102865D01*
X18600351Y-1641411D02*
G01*
X18600351Y-1910648D01*
X18628301Y-1750626D02*
G01*
X18729901Y-1750626D01*
X18638451Y-1816668D02*
G01*
X18679101Y-1758248D01*
X18719744Y-1816668D01*
X18638451Y-1816668D01*
X18313400Y-2509265D02*
G01*
X17399000Y-2509265D01*
X17399000Y-2102865D02*
G01*
X17399000Y-2509265D01*
X18130520Y-1907286D02*
G01*
X18491200Y-1907286D01*
X18491200Y-2331465D01*
X23050444Y-1641411D02*
G01*
X23050444Y-1910648D01*
X21691600Y-2102865D02*
G01*
X22214840Y-2102865D01*
X22892951Y-1641411D02*
G01*
X22892951Y-1910648D01*
X22920901Y-1750626D02*
G01*
X23022501Y-1750626D01*
X22931051Y-1816668D02*
G01*
X22971701Y-1758248D01*
X23012344Y-1816668D01*
X22931051Y-1816668D01*
X22606000Y-2509265D02*
G01*
X21691600Y-2509265D01*
X21691600Y-2102865D02*
G01*
X21691600Y-2509265D01*
X22423120Y-1907286D02*
G01*
X22783800Y-1907286D01*
X22783800Y-2331465D01*
X24955444Y-1641411D02*
G01*
X24955444Y-1910648D01*
X23596600Y-2102865D02*
G01*
X24119840Y-2102865D01*
X24797951Y-1641411D02*
G01*
X24797951Y-1910648D01*
X24825901Y-1750626D02*
G01*
X24927501Y-1750626D01*
X24836051Y-1816668D02*
G01*
X24876701Y-1758248D01*
X24917344Y-1816668D01*
X24836051Y-1816668D01*
X24511000Y-2509265D02*
G01*
X23596600Y-2509265D01*
X23596600Y-2102865D02*
G01*
X23596600Y-2509265D01*
X24328120Y-1907286D02*
G01*
X24688800Y-1907286D01*
X24688800Y-2331465D01*
X26860444Y-1641411D02*
G01*
X26860444Y-1910648D01*
X25501600Y-2102865D02*
G01*
X26024840Y-2102865D01*
X26702951Y-1641411D02*
G01*
X26702951Y-1910648D01*
X26730901Y-1750626D02*
G01*
X26832501Y-1750626D01*
X26741051Y-1816668D02*
G01*
X26781701Y-1758248D01*
X26822344Y-1816668D01*
X26741051Y-1816668D01*
X26416000Y-2509265D02*
G01*
X25501600Y-2509265D01*
X25501600Y-2102865D02*
G01*
X25501600Y-2509265D01*
X26233120Y-1907286D02*
G01*
X26593800Y-1907286D01*
X26593800Y-2331465D01*
X21145444Y-1641411D02*
G01*
X21145444Y-1910648D01*
X19786600Y-2102865D02*
G01*
X20309840Y-2102865D01*
X20987951Y-1641411D02*
G01*
X20987951Y-1910648D01*
X21015901Y-1750626D02*
G01*
X21117501Y-1750626D01*
X21026051Y-1816668D02*
G01*
X21066701Y-1758248D01*
X21107344Y-1816668D01*
X21026051Y-1816668D01*
X20701000Y-2509265D02*
G01*
X19786600Y-2509265D01*
X19786600Y-2102865D02*
G01*
X19786600Y-2509265D01*
X20518120Y-1907286D02*
G01*
X20878800Y-1907286D01*
X20878800Y-2331465D01*
X16852844Y-1641411D02*
G01*
X16852844Y-1910648D01*
X15494000Y-2102865D02*
G01*
X16017240Y-2102865D01*
X16695351Y-1641411D02*
G01*
X16695351Y-1910648D01*
X16723301Y-1750626D02*
G01*
X16824901Y-1750626D01*
X16733451Y-1816668D02*
G01*
X16774101Y-1758248D01*
X16814744Y-1816668D01*
X16733451Y-1816668D01*
X16408400Y-2509265D02*
G01*
X15494000Y-2509265D01*
X15494000Y-2102865D02*
G01*
X15494000Y-2509265D01*
X16225520Y-1907286D02*
G01*
X16586200Y-1907286D01*
X16586200Y-2331465D01*
X13042844Y-1641411D02*
G01*
X13042844Y-1910648D01*
X11684000Y-2102865D02*
G01*
X12207240Y-2102865D01*
X12885351Y-1641411D02*
G01*
X12885351Y-1910648D01*
X12913301Y-1750626D02*
G01*
X13014901Y-1750626D01*
X12923451Y-1816668D02*
G01*
X12964101Y-1758248D01*
X13004744Y-1816668D01*
X12923451Y-1816668D01*
X12598400Y-2509265D02*
G01*
X11684000Y-2509265D01*
X11684000Y-2102865D02*
G01*
X11684000Y-2509265D01*
X12415520Y-1907286D02*
G01*
X12776200Y-1907286D01*
X12776200Y-2331465D01*
X4952944Y-1641411D02*
G01*
X4952944Y-1910648D01*
X3594100Y-2102865D02*
G01*
X4117340Y-2102865D01*
X4795451Y-1641411D02*
G01*
X4795451Y-1910648D01*
X4823401Y-1750626D02*
G01*
X4925001Y-1750626D01*
X4833551Y-1816668D02*
G01*
X4874201Y-1758248D01*
X4914844Y-1816668D01*
X4833551Y-1816668D01*
X4508500Y-2509265D02*
G01*
X3594100Y-2509265D01*
X3594100Y-2102865D02*
G01*
X3594100Y-2509265D01*
X4325620Y-1907286D02*
G01*
X4686300Y-1907286D01*
X4686300Y-2331465D01*
X8765230Y-1641441D02*
G01*
X8765230Y-1910679D01*
X7406386Y-2102896D02*
G01*
X7929625Y-2102896D01*
X8607737Y-1641441D02*
G01*
X8607737Y-1910679D01*
X8635687Y-1750656D02*
G01*
X8737287Y-1750656D01*
X8645837Y-1816699D02*
G01*
X8686487Y-1758279D01*
X8727130Y-1816699D01*
X8645837Y-1816699D01*
X8320786Y-2509296D02*
G01*
X7406386Y-2509296D01*
X7406386Y-2102896D02*
G01*
X7406386Y-2509296D01*
X8137906Y-1907316D02*
G01*
X8498586Y-1907316D01*
X8498586Y-2331496D01*
G75*
G01*
X12925552Y-12103100D02*
G03*
X13133832Y-11907520I-12083J221560D01*
G75*
G01*
X13316712Y-12509500D02*
G03*
X13494512Y-12331700I861J176939D01*
G75*
G01*
X1734820Y-2102866D02*
G03*
X1943100Y-1907286I-12083J221560D01*
G75*
G01*
X2125980Y-2509266D02*
G03*
X2303780Y-2331466I861J176939D01*
G75*
G01*
X1971040Y-12103100D02*
G03*
X2179320Y-11907520I-12083J221560D01*
G75*
G01*
X2362200Y-12509500D02*
G03*
X2540000Y-12331700I861J176939D01*
G75*
G01*
X4117340Y-12103100D02*
G03*
X4325620Y-11907520I-12083J221560D01*
G75*
G01*
X4508500Y-12509500D02*
G03*
X4686300Y-12331700I861J176939D01*
G75*
G01*
X21734526Y-12104370D02*
G03*
X21942806Y-11908790I-12083J221560D01*
G75*
G01*
X22125686Y-12510770D02*
G03*
X22303486Y-12332970I861J176939D01*
G75*
G01*
X30787340Y-8293100D02*
G03*
X30995620Y-8097520I-12083J221560D01*
G75*
G01*
X31178500Y-8699500D02*
G03*
X31356300Y-8521700I861J176939D01*
G75*
G01*
X26500582Y-12577318D02*
G03*
X26708862Y-12381738I-12083J221560D01*
G75*
G01*
X26891742Y-12983718D02*
G03*
X27069542Y-12805918I861J176939D01*
G75*
G01*
X30311598Y-12581382D02*
G03*
X30519878Y-12385802I-12083J221560D01*
G75*
G01*
X30702758Y-12987782D02*
G03*
X30880558Y-12809982I861J176939D01*
G75*
G01*
X34118550Y-12103354D02*
G03*
X34326830Y-11907774I-12083J221560D01*
G75*
G01*
X34509710Y-12509754D02*
G03*
X34687510Y-12331954I861J176939D01*
G75*
G01*
X39122350Y-10830306D02*
G03*
X38926770Y-10622026I-221560J-12083D01*
G75*
G01*
X39528750Y-10439146D02*
G03*
X39350950Y-10261346I-176939J861D01*
G75*
G01*
X36977574Y-12103354D02*
G03*
X37185854Y-11907774I-12083J221560D01*
G75*
G01*
X37368734Y-12509754D02*
G03*
X37546534Y-12331954I861J176939D01*
G75*
G01*
X35074098Y-10196322D02*
G03*
X35282378Y-10000742I-12083J221560D01*
G75*
G01*
X35465258Y-10602722D02*
G03*
X35643058Y-10424922I861J176939D01*
G75*
G01*
X28404566Y-12579350D02*
G03*
X28612846Y-12383770I-12083J221560D01*
G75*
G01*
X28795726Y-12985750D02*
G03*
X28973526Y-12807950I861J176939D01*
G75*
G01*
X23879556Y-12104370D02*
G03*
X24087836Y-11908790I-12083J221560D01*
G75*
G01*
X24270716Y-12510770D02*
G03*
X24448516Y-12332970I861J176939D01*
G75*
G01*
X19833590Y-12104370D02*
G03*
X20041870Y-11908790I-12083J221560D01*
G75*
G01*
X20224750Y-12510770D02*
G03*
X20402550Y-12332970I861J176939D01*
G75*
G01*
X6022340Y-12103100D02*
G03*
X6230620Y-11907520I-12083J221560D01*
G75*
G01*
X6413500Y-12509500D02*
G03*
X6591300Y-12331700I861J176939D01*
G75*
G01*
X2689098Y-10196322D02*
G03*
X2897378Y-10000742I-12083J221560D01*
G75*
G01*
X3080258Y-10602722D02*
G03*
X3258058Y-10424922I861J176939D01*
G75*
G01*
X5546598Y-10196322D02*
G03*
X5754878Y-10000742I-12083J221560D01*
G75*
G01*
X5937758Y-10602722D02*
G03*
X6115558Y-10424922I861J176939D01*
G75*
G01*
X9356598Y-10196322D02*
G03*
X9564878Y-10000742I-12083J221560D01*
G75*
G01*
X9747758Y-10602722D02*
G03*
X9925558Y-10424922I861J176939D01*
G75*
G01*
X13166598Y-10196322D02*
G03*
X13374878Y-10000742I-12083J221560D01*
G75*
G01*
X13557758Y-10602722D02*
G03*
X13735558Y-10424922I861J176939D01*
G75*
G01*
X16976598Y-10196322D02*
G03*
X17184878Y-10000742I-12083J221560D01*
G75*
G01*
X17367758Y-10602722D02*
G03*
X17545558Y-10424922I861J176939D01*
G75*
G01*
X20786598Y-10196322D02*
G03*
X20994878Y-10000742I-12083J221560D01*
G75*
G01*
X21177758Y-10602722D02*
G03*
X21355558Y-10424922I861J176939D01*
G75*
G01*
X25307798Y-10196322D02*
G03*
X25516078Y-10000742I-12083J221560D01*
G75*
G01*
X25698958Y-10602722D02*
G03*
X25876758Y-10424922I861J176939D01*
G75*
G01*
X33169098Y-10196322D02*
G03*
X33377378Y-10000742I-12083J221560D01*
G75*
G01*
X33560258Y-10602722D02*
G03*
X33738058Y-10424922I861J176939D01*
G75*
G01*
X36979098Y-10196322D02*
G03*
X37187378Y-10000742I-12083J221560D01*
G75*
G01*
X37370258Y-10602722D02*
G03*
X37548058Y-10424922I861J176939D01*
G75*
G01*
X36972240Y-8293100D02*
G03*
X37180520Y-8097520I-12083J221560D01*
G75*
G01*
X37363400Y-8699500D02*
G03*
X37541200Y-8521700I861J176939D01*
G75*
G01*
X35067240Y-8293100D02*
G03*
X35275520Y-8097520I-12083J221560D01*
G75*
G01*
X35458400Y-8699500D02*
G03*
X35636200Y-8521700I861J176939D01*
G75*
G01*
X28404566Y-10673334D02*
G03*
X28612846Y-10477754I-12083J221560D01*
G75*
G01*
X28795726Y-11079734D02*
G03*
X28973526Y-10901934I861J176939D01*
G75*
G01*
X22691598Y-10196322D02*
G03*
X22899878Y-10000742I-12083J221560D01*
G75*
G01*
X23082758Y-10602722D02*
G03*
X23260558Y-10424922I861J176939D01*
G75*
G01*
X18881598Y-10196322D02*
G03*
X19089878Y-10000742I-12083J221560D01*
G75*
G01*
X19272758Y-10602722D02*
G03*
X19450558Y-10424922I861J176939D01*
G75*
G01*
X15071598Y-10196322D02*
G03*
X15279878Y-10000742I-12083J221560D01*
G75*
G01*
X15462758Y-10602722D02*
G03*
X15640558Y-10424922I861J176939D01*
G75*
G01*
X11261598Y-10196322D02*
G03*
X11469878Y-10000742I-12083J221560D01*
G75*
G01*
X11652758Y-10602722D02*
G03*
X11830558Y-10424922I861J176939D01*
G75*
G01*
X7451598Y-10196322D02*
G03*
X7659878Y-10000742I-12083J221560D01*
G75*
G01*
X7842758Y-10602722D02*
G03*
X8020558Y-10424922I861J176939D01*
G75*
G01*
X1971040Y-8293100D02*
G03*
X2179320Y-8097520I-12083J221560D01*
G75*
G01*
X2362200Y-8699500D02*
G03*
X2540000Y-8521700I861J176939D01*
G75*
G01*
X6974840Y-8293100D02*
G03*
X7183120Y-8097520I-12083J221560D01*
G75*
G01*
X7366000Y-8699500D02*
G03*
X7543800Y-8521700I861J176939D01*
G75*
G01*
X10784840Y-8293100D02*
G03*
X10993120Y-8097520I-12083J221560D01*
G75*
G01*
X11176000Y-8699500D02*
G03*
X11353800Y-8521700I861J176939D01*
G75*
G01*
X14594840Y-8293100D02*
G03*
X14803120Y-8097520I-12083J221560D01*
G75*
G01*
X14986000Y-8699500D02*
G03*
X15163800Y-8521700I861J176939D01*
G75*
G01*
X18404840Y-8293100D02*
G03*
X18613120Y-8097520I-12083J221560D01*
G75*
G01*
X18796000Y-8699500D02*
G03*
X18973800Y-8521700I861J176939D01*
G75*
G01*
X22214840Y-8293100D02*
G03*
X22423120Y-8097520I-12083J221560D01*
G75*
G01*
X22606000Y-8699500D02*
G03*
X22783800Y-8521700I861J176939D01*
G75*
G01*
X27218640Y-8293100D02*
G03*
X27426920Y-8097520I-12083J221560D01*
G75*
G01*
X27609800Y-8699500D02*
G03*
X27787600Y-8521700I861J176939D01*
G75*
G01*
X35079940Y-2102866D02*
G03*
X35288220Y-1907286I-12083J221560D01*
G75*
G01*
X35471100Y-2509266D02*
G03*
X35648900Y-2331466I861J176939D01*
G75*
G01*
X33162240Y-8293100D02*
G03*
X33370520Y-8097520I-12083J221560D01*
G75*
G01*
X33553400Y-8699500D02*
G03*
X33731200Y-8521700I861J176939D01*
G75*
G01*
X39122350Y-7020306D02*
G03*
X38926770Y-6812026I-221560J-12083D01*
G75*
G01*
X39528750Y-6629146D02*
G03*
X39350950Y-6451346I-176939J861D01*
G75*
G01*
X36977320Y-6388100D02*
G03*
X37185600Y-6192520I-12083J221560D01*
G75*
G01*
X37368480Y-6794500D02*
G03*
X37546280Y-6616700I861J176939D01*
G75*
G01*
X35072320Y-6388100D02*
G03*
X35280600Y-6192520I-12083J221560D01*
G75*
G01*
X35463480Y-6794500D02*
G03*
X35641280Y-6616700I861J176939D01*
G75*
G01*
X30787340Y-6388100D02*
G03*
X30995620Y-6192520I-12083J221560D01*
G75*
G01*
X31178500Y-6794500D02*
G03*
X31356300Y-6616700I861J176939D01*
G75*
G01*
X24119840Y-8293100D02*
G03*
X24328120Y-8097520I-12083J221560D01*
G75*
G01*
X24511000Y-8699500D02*
G03*
X24688800Y-8521700I861J176939D01*
G75*
G01*
X20309840Y-8293100D02*
G03*
X20518120Y-8097520I-12083J221560D01*
G75*
G01*
X20701000Y-8699500D02*
G03*
X20878800Y-8521700I861J176939D01*
G75*
G01*
X16499840Y-8293100D02*
G03*
X16708120Y-8097520I-12083J221560D01*
G75*
G01*
X16891000Y-8699500D02*
G03*
X17068800Y-8521700I861J176939D01*
G75*
G01*
X12689840Y-8293100D02*
G03*
X12898120Y-8097520I-12083J221560D01*
G75*
G01*
X13081000Y-8699500D02*
G03*
X13258800Y-8521700I861J176939D01*
G75*
G01*
X8879840Y-8293100D02*
G03*
X9088120Y-8097520I-12083J221560D01*
G75*
G01*
X9271000Y-8699500D02*
G03*
X9448800Y-8521700I861J176939D01*
G75*
G01*
X5069840Y-8293100D02*
G03*
X5278120Y-8097520I-12083J221560D01*
G75*
G01*
X5461000Y-8699500D02*
G03*
X5638800Y-8521700I861J176939D01*
G75*
G01*
X2212340Y-6388100D02*
G03*
X2420620Y-6192520I-12083J221560D01*
G75*
G01*
X2603500Y-6794500D02*
G03*
X2781300Y-6616700I861J176939D01*
G75*
G01*
X6497320Y-6388100D02*
G03*
X6705600Y-6192520I-12083J221560D01*
G75*
G01*
X6888480Y-6794500D02*
G03*
X7066280Y-6616700I861J176939D01*
G75*
G01*
X10307320Y-6388100D02*
G03*
X10515600Y-6192520I-12083J221560D01*
G75*
G01*
X10698480Y-6794500D02*
G03*
X10876280Y-6616700I861J176939D01*
G75*
G01*
X14117320Y-6388100D02*
G03*
X14325600Y-6192520I-12083J221560D01*
G75*
G01*
X14508480Y-6794500D02*
G03*
X14686280Y-6616700I861J176939D01*
G75*
G01*
X17927320Y-6388100D02*
G03*
X18135600Y-6192520I-12083J221560D01*
G75*
G01*
X18318480Y-6794500D02*
G03*
X18496280Y-6616700I861J176939D01*
G75*
G01*
X21737320Y-6388100D02*
G03*
X21945600Y-6192520I-12083J221560D01*
G75*
G01*
X22128480Y-6794500D02*
G03*
X22306280Y-6616700I861J176939D01*
G75*
G01*
X25547320Y-6388100D02*
G03*
X25755600Y-6192520I-12083J221560D01*
G75*
G01*
X25938480Y-6794500D02*
G03*
X26116280Y-6616700I861J176939D01*
G75*
G01*
X28399740Y-2102866D02*
G03*
X28608020Y-1907286I-12083J221560D01*
G75*
G01*
X28790900Y-2509266D02*
G03*
X28968700Y-2331466I861J176939D01*
G75*
G01*
X30793436Y-4483100D02*
G03*
X31001716Y-4287520I-12083J221560D01*
G75*
G01*
X31184596Y-4889500D02*
G03*
X31362396Y-4711700I861J176939D01*
G75*
G01*
X33167320Y-6388100D02*
G03*
X33375600Y-6192520I-12083J221560D01*
G75*
G01*
X33558480Y-6794500D02*
G03*
X33736280Y-6616700I861J176939D01*
G75*
G01*
X38883336Y-4483100D02*
G03*
X39091616Y-4287520I-12083J221560D01*
G75*
G01*
X39274496Y-4889500D02*
G03*
X39452296Y-4711700I861J176939D01*
G75*
G01*
X36978336Y-4483100D02*
G03*
X37186616Y-4287520I-12083J221560D01*
G75*
G01*
X37369496Y-4889500D02*
G03*
X37547296Y-4711700I861J176939D01*
G75*
G01*
X35073336Y-4483100D02*
G03*
X35281616Y-4287520I-12083J221560D01*
G75*
G01*
X35464496Y-4889500D02*
G03*
X35642296Y-4711700I861J176939D01*
G75*
G01*
X30787340Y-2102866D02*
G03*
X30995620Y-1907286I-12083J221560D01*
G75*
G01*
X31178500Y-2509266D02*
G03*
X31356300Y-2331466I861J176939D01*
G75*
G01*
X27929840Y-6388100D02*
G03*
X28138120Y-6192520I-12083J221560D01*
G75*
G01*
X28321000Y-6794500D02*
G03*
X28498800Y-6616700I861J176939D01*
G75*
G01*
X23642320Y-6388100D02*
G03*
X23850600Y-6192520I-12083J221560D01*
G75*
G01*
X24033480Y-6794500D02*
G03*
X24211280Y-6616700I861J176939D01*
G75*
G01*
X19832320Y-6388100D02*
G03*
X20040600Y-6192520I-12083J221560D01*
G75*
G01*
X20223480Y-6794500D02*
G03*
X20401280Y-6616700I861J176939D01*
G75*
G01*
X16022320Y-6388100D02*
G03*
X16230600Y-6192520I-12083J221560D01*
G75*
G01*
X16413480Y-6794500D02*
G03*
X16591280Y-6616700I861J176939D01*
G75*
G01*
X12212320Y-6388100D02*
G03*
X12420600Y-6192520I-12083J221560D01*
G75*
G01*
X12603480Y-6794500D02*
G03*
X12781280Y-6616700I861J176939D01*
G75*
G01*
X8402320Y-6388100D02*
G03*
X8610600Y-6192520I-12083J221560D01*
G75*
G01*
X8793480Y-6794500D02*
G03*
X8971280Y-6616700I861J176939D01*
G75*
G01*
X4592320Y-6388100D02*
G03*
X4800600Y-6192520I-12083J221560D01*
G75*
G01*
X4983480Y-6794500D02*
G03*
X5161280Y-6616700I861J176939D01*
G75*
G01*
X1735836Y-4483100D02*
G03*
X1944116Y-4287520I-12083J221560D01*
G75*
G01*
X2126996Y-4889500D02*
G03*
X2304796Y-4711700I861J176939D01*
G75*
G01*
X5545836Y-4483100D02*
G03*
X5754116Y-4287520I-12083J221560D01*
G75*
G01*
X5936996Y-4889500D02*
G03*
X6114796Y-4711700I861J176939D01*
G75*
G01*
X9355836Y-4483100D02*
G03*
X9564116Y-4287520I-12083J221560D01*
G75*
G01*
X9746996Y-4889500D02*
G03*
X9924796Y-4711700I861J176939D01*
G75*
G01*
X13165836Y-4483100D02*
G03*
X13374116Y-4287520I-12083J221560D01*
G75*
G01*
X13556996Y-4889500D02*
G03*
X13734796Y-4711700I861J176939D01*
G75*
G01*
X16975836Y-4483100D02*
G03*
X17184116Y-4287520I-12083J221560D01*
G75*
G01*
X17366996Y-4889500D02*
G03*
X17544796Y-4711700I861J176939D01*
G75*
G01*
X20785836Y-4483100D02*
G03*
X20994116Y-4287520I-12083J221560D01*
G75*
G01*
X21176996Y-4889500D02*
G03*
X21354796Y-4711700I861J176939D01*
G75*
G01*
X24608536Y-4483100D02*
G03*
X24816816Y-4287520I-12083J221560D01*
G75*
G01*
X24999696Y-4889500D02*
G03*
X25177496Y-4711700I861J176939D01*
G75*
G01*
X27453336Y-4483100D02*
G03*
X27661616Y-4287520I-12083J221560D01*
G75*
G01*
X27844496Y-4889500D02*
G03*
X28022296Y-4711700I861J176939D01*
G75*
G01*
X33162240Y-2102866D02*
G03*
X33370520Y-1907286I-12083J221560D01*
G75*
G01*
X33553400Y-2509266D02*
G03*
X33731200Y-2331466I861J176939D01*
G75*
G01*
X33168336Y-4483100D02*
G03*
X33376616Y-4287520I-12083J221560D01*
G75*
G01*
X33559496Y-4889500D02*
G03*
X33737296Y-4711700I861J176939D01*
G75*
G01*
X22690836Y-4483100D02*
G03*
X22899116Y-4287520I-12083J221560D01*
G75*
G01*
X23081996Y-4889500D02*
G03*
X23259796Y-4711700I861J176939D01*
G75*
G01*
X18880836Y-4483100D02*
G03*
X19089116Y-4287520I-12083J221560D01*
G75*
G01*
X19271996Y-4889500D02*
G03*
X19449796Y-4711700I861J176939D01*
G75*
G01*
X15070836Y-4483100D02*
G03*
X15279116Y-4287520I-12083J221560D01*
G75*
G01*
X15461996Y-4889500D02*
G03*
X15639796Y-4711700I861J176939D01*
G75*
G01*
X11260836Y-4483100D02*
G03*
X11469116Y-4287520I-12083J221560D01*
G75*
G01*
X11651996Y-4889500D02*
G03*
X11829796Y-4711700I861J176939D01*
G75*
G01*
X7450836Y-4483100D02*
G03*
X7659116Y-4287520I-12083J221560D01*
G75*
G01*
X7841996Y-4889500D02*
G03*
X8019796Y-4711700I861J176939D01*
G75*
G01*
X3640836Y-4483100D02*
G03*
X3849116Y-4287520I-12083J221560D01*
G75*
G01*
X4031996Y-4889500D02*
G03*
X4209796Y-4711700I861J176939D01*
G75*
G01*
X6022340Y-2102866D02*
G03*
X6230620Y-1907286I-12083J221560D01*
G75*
G01*
X6413500Y-2509266D02*
G03*
X6591300Y-2331466I861J176939D01*
G75*
G01*
X9832340Y-2102866D02*
G03*
X10040620Y-1907286I-12083J221560D01*
G75*
G01*
X10223500Y-2509266D02*
G03*
X10401300Y-2331466I861J176939D01*
G75*
G01*
X14112240Y-2102866D02*
G03*
X14320520Y-1907286I-12083J221560D01*
G75*
G01*
X14503400Y-2509266D02*
G03*
X14681200Y-2331466I861J176939D01*
G75*
G01*
X17922240Y-2102866D02*
G03*
X18130520Y-1907286I-12083J221560D01*
G75*
G01*
X18313400Y-2509266D02*
G03*
X18491200Y-2331466I861J176939D01*
G75*
G01*
X22214840Y-2102866D02*
G03*
X22423120Y-1907286I-12083J221560D01*
G75*
G01*
X22606000Y-2509266D02*
G03*
X22783800Y-2331466I861J176939D01*
G75*
G01*
X24119840Y-2102866D02*
G03*
X24328120Y-1907286I-12083J221560D01*
G75*
G01*
X24511000Y-2509266D02*
G03*
X24688800Y-2331466I861J176939D01*
G75*
G01*
X26024840Y-2102866D02*
G03*
X26233120Y-1907286I-12083J221560D01*
G75*
G01*
X26416000Y-2509266D02*
G03*
X26593800Y-2331466I861J176939D01*
G75*
G01*
X20309840Y-2102866D02*
G03*
X20518120Y-1907286I-12083J221560D01*
G75*
G01*
X20701000Y-2509266D02*
G03*
X20878800Y-2331466I861J176939D01*
G75*
G01*
X16017240Y-2102866D02*
G03*
X16225520Y-1907286I-12083J221560D01*
G75*
G01*
X16408400Y-2509266D02*
G03*
X16586200Y-2331466I861J176939D01*
G75*
G01*
X12207240Y-2102866D02*
G03*
X12415520Y-1907286I-12083J221560D01*
G75*
G01*
X12598400Y-2509266D02*
G03*
X12776200Y-2331466I861J176939D01*
G75*
G01*
X4117340Y-2102866D02*
G03*
X4325620Y-1907286I-12083J221560D01*
G75*
G01*
X4508500Y-2509266D02*
G03*
X4686300Y-2331466I861J176939D01*
G75*
G01*
X7929626Y-2102896D02*
G03*
X8137906Y-1907316I-12083J221560D01*
G75*
G01*
X8320786Y-2509296D02*
G03*
X8498586Y-2331496I861J176939D01*
G75*
G01*
X1472501Y-1156802D02*
G02*
X1449697Y-1156802I-11402J0D01*
G75*
G01*
X1449697Y-1156802D02*
G02*
X1472501Y-1156802I11402J0D01*
G75*
G01*
X3860096Y-1156802D02*
G02*
X3837292Y-1156802I-11402J0D01*
G75*
G01*
X3837292Y-1156802D02*
G02*
X3860096Y-1156802I11402J0D01*
G75*
G01*
X5765091Y-1156802D02*
G02*
X5742287Y-1156802I-11402J0D01*
G75*
G01*
X5742287Y-1156802D02*
G02*
X5765091Y-1156802I11402J0D01*
G75*
G01*
X7670089Y-1156802D02*
G02*
X7647285Y-1156802I-11402J0D01*
G75*
G01*
X7647285Y-1156802D02*
G02*
X7670089Y-1156802I11402J0D01*
G75*
G01*
X9575084Y-1156802D02*
G02*
X9552280Y-1156802I-11402J0D01*
G75*
G01*
X9552280Y-1156802D02*
G02*
X9575084Y-1156802I11402J0D01*
G75*
G01*
X11949979Y-1156802D02*
G02*
X11927175Y-1156802I-11402J0D01*
G75*
G01*
X11927175Y-1156802D02*
G02*
X11949979Y-1156802I11402J0D01*
G75*
G01*
X13854976Y-1156802D02*
G02*
X13832172Y-1156802I-11402J0D01*
G75*
G01*
X13832172Y-1156802D02*
G02*
X13854976Y-1156802I11402J0D01*
G75*
G01*
X15759971Y-1156802D02*
G02*
X15737167Y-1156802I-11402J0D01*
G75*
G01*
X15737167Y-1156802D02*
G02*
X15759971Y-1156802I11402J0D01*
G75*
G01*
X17664968Y-1156802D02*
G02*
X17642164Y-1156802I-11402J0D01*
G75*
G01*
X17642164Y-1156802D02*
G02*
X17664968Y-1156802I11402J0D01*
G75*
G01*
X20052563Y-1156802D02*
G02*
X20029759Y-1156802I-11402J0D01*
G75*
G01*
X20029759Y-1156802D02*
G02*
X20052563Y-1156802I11402J0D01*
G75*
G01*
X21957561Y-1156802D02*
G02*
X21934757Y-1156802I-11402J0D01*
G75*
G01*
X21934757Y-1156802D02*
G02*
X21957561Y-1156802I11402J0D01*
G75*
G01*
X23862556Y-1156802D02*
G02*
X23839752Y-1156802I-11402J0D01*
G75*
G01*
X23839752Y-1156802D02*
G02*
X23862556Y-1156802I11402J0D01*
G75*
G01*
X25767553Y-1156802D02*
G02*
X25744749Y-1156802I-11402J0D01*
G75*
G01*
X25744749Y-1156802D02*
G02*
X25767553Y-1156802I11402J0D01*
G75*
G01*
X28142448Y-1156802D02*
G02*
X28119644Y-1156802I-11402J0D01*
G75*
G01*
X28119644Y-1156802D02*
G02*
X28142448Y-1156802I11402J0D01*
G75*
G01*
X30530043Y-1156802D02*
G02*
X30507239Y-1156802I-11402J0D01*
G75*
G01*
X30507239Y-1156802D02*
G02*
X30530043Y-1156802I11402J0D01*
G75*
G01*
X32904938Y-1156802D02*
G02*
X32882134Y-1156802I-11402J0D01*
G75*
G01*
X32882134Y-1156802D02*
G02*
X32904938Y-1156802I11402J0D01*
G75*
G01*
X34822633Y-1156802D02*
G02*
X34799829Y-1156802I-11402J0D01*
G75*
G01*
X34799829Y-1156802D02*
G02*
X34822633Y-1156802I11402J0D01*
G75*
G01*
X39057519Y-3871587D02*
G02*
X39080323Y-3871587I11402J0D01*
G75*
G01*
X39080323Y-3871587D02*
G02*
X39057519Y-3871587I-11402J0D01*
G75*
G01*
X37153522Y-3871587D02*
G02*
X37176326Y-3871587I11402J0D01*
G75*
G01*
X37176326Y-3871587D02*
G02*
X37153522Y-3871587I-11402J0D01*
G75*
G01*
X35247527Y-3872588D02*
G02*
X35270331Y-3872588I11402J0D01*
G75*
G01*
X35270331Y-3872588D02*
G02*
X35247527Y-3872588I-11402J0D01*
G75*
G01*
X33342527Y-3872588D02*
G02*
X33365331Y-3872588I11402J0D01*
G75*
G01*
X33365331Y-3872588D02*
G02*
X33342527Y-3872588I-11402J0D01*
G75*
G01*
X30967566Y-3872588D02*
G02*
X30990370Y-3872588I11402J0D01*
G75*
G01*
X30990370Y-3872588D02*
G02*
X30967566Y-3872588I-11402J0D01*
G75*
G01*
X27627527Y-3872588D02*
G02*
X27650331Y-3872588I11402J0D01*
G75*
G01*
X27650331Y-3872588D02*
G02*
X27627527Y-3872588I-11402J0D01*
G75*
G01*
X24782727Y-3872588D02*
G02*
X24805531Y-3872588I11402J0D01*
G75*
G01*
X24805531Y-3872588D02*
G02*
X24782727Y-3872588I-11402J0D01*
G75*
G01*
X22865027Y-3872588D02*
G02*
X22887831Y-3872588I11402J0D01*
G75*
G01*
X22887831Y-3872588D02*
G02*
X22865027Y-3872588I-11402J0D01*
G75*
G01*
X20960027Y-3872588D02*
G02*
X20982831Y-3872588I11402J0D01*
G75*
G01*
X20982831Y-3872588D02*
G02*
X20960027Y-3872588I-11402J0D01*
G75*
G01*
X19055027Y-3872588D02*
G02*
X19077831Y-3872588I11402J0D01*
G75*
G01*
X19077831Y-3872588D02*
G02*
X19055027Y-3872588I-11402J0D01*
G75*
G01*
X17150027Y-3872588D02*
G02*
X17172831Y-3872588I11402J0D01*
G75*
G01*
X17172831Y-3872588D02*
G02*
X17150027Y-3872588I-11402J0D01*
G75*
G01*
X15245027Y-3872588D02*
G02*
X15267831Y-3872588I11402J0D01*
G75*
G01*
X15267831Y-3872588D02*
G02*
X15245027Y-3872588I-11402J0D01*
G75*
G01*
X13340027Y-3872588D02*
G02*
X13362831Y-3872588I11402J0D01*
G75*
G01*
X13362831Y-3872588D02*
G02*
X13340027Y-3872588I-11402J0D01*
G75*
G01*
X11435027Y-3872588D02*
G02*
X11457831Y-3872588I11402J0D01*
G75*
G01*
X11457831Y-3872588D02*
G02*
X11435027Y-3872588I-11402J0D01*
G75*
G01*
X9517327Y-3872588D02*
G02*
X9540131Y-3872588I11402J0D01*
G75*
G01*
X9540131Y-3872588D02*
G02*
X9517327Y-3872588I-11402J0D01*
G75*
G01*
X7625027Y-3872588D02*
G02*
X7647831Y-3872588I11402J0D01*
G75*
G01*
X7647831Y-3872588D02*
G02*
X7625027Y-3872588I-11402J0D01*
G75*
G01*
X5720027Y-3872588D02*
G02*
X5742831Y-3872588I11402J0D01*
G75*
G01*
X5742831Y-3872588D02*
G02*
X5720027Y-3872588I-11402J0D01*
G75*
G01*
X3815027Y-3872588D02*
G02*
X3837831Y-3872588I11402J0D01*
G75*
G01*
X3837831Y-3872588D02*
G02*
X3815027Y-3872588I-11402J0D01*
G75*
G01*
X1910027Y-3872588D02*
G02*
X1932831Y-3872588I11402J0D01*
G75*
G01*
X1932831Y-3872588D02*
G02*
X1910027Y-3872588I-11402J0D01*
G75*
G01*
X1955104Y-5446392D02*
G02*
X1932300Y-5446392I-11402J0D01*
G75*
G01*
X1932300Y-5446392D02*
G02*
X1955104Y-5446392I11402J0D01*
G75*
G01*
X4334396Y-5446398D02*
G02*
X4311592Y-5446398I-11402J0D01*
G75*
G01*
X4311592Y-5446398D02*
G02*
X4334396Y-5446398I11402J0D01*
G75*
G01*
X6239396Y-5446398D02*
G02*
X6216592Y-5446398I-11402J0D01*
G75*
G01*
X6216592Y-5446398D02*
G02*
X6239396Y-5446398I11402J0D01*
G75*
G01*
X8144396Y-5446398D02*
G02*
X8121592Y-5446398I-11402J0D01*
G75*
G01*
X8121592Y-5446398D02*
G02*
X8144396Y-5446398I11402J0D01*
G75*
G01*
X10049396Y-5446398D02*
G02*
X10026592Y-5446398I-11402J0D01*
G75*
G01*
X10026592Y-5446398D02*
G02*
X10049396Y-5446398I11402J0D01*
G75*
G01*
X11954396Y-5446398D02*
G02*
X11931592Y-5446398I-11402J0D01*
G75*
G01*
X11931592Y-5446398D02*
G02*
X11954396Y-5446398I11402J0D01*
G75*
G01*
X13859396Y-5446398D02*
G02*
X13836592Y-5446398I-11402J0D01*
G75*
G01*
X13836592Y-5446398D02*
G02*
X13859396Y-5446398I11402J0D01*
G75*
G01*
X15764396Y-5446398D02*
G02*
X15741592Y-5446398I-11402J0D01*
G75*
G01*
X15741592Y-5446398D02*
G02*
X15764396Y-5446398I11402J0D01*
G75*
G01*
X17669396Y-5446398D02*
G02*
X17646592Y-5446398I-11402J0D01*
G75*
G01*
X17646592Y-5446398D02*
G02*
X17669396Y-5446398I11402J0D01*
G75*
G01*
X19574396Y-5446398D02*
G02*
X19551592Y-5446398I-11402J0D01*
G75*
G01*
X19551592Y-5446398D02*
G02*
X19574396Y-5446398I11402J0D01*
G75*
G01*
X21479396Y-5446398D02*
G02*
X21456592Y-5446398I-11402J0D01*
G75*
G01*
X21456592Y-5446398D02*
G02*
X21479396Y-5446398I11402J0D01*
G75*
G01*
X23384396Y-5446398D02*
G02*
X23361592Y-5446398I-11402J0D01*
G75*
G01*
X23361592Y-5446398D02*
G02*
X23384396Y-5446398I11402J0D01*
G75*
G01*
X25289396Y-5446398D02*
G02*
X25266592Y-5446398I-11402J0D01*
G75*
G01*
X25266592Y-5446398D02*
G02*
X25289396Y-5446398I11402J0D01*
G75*
G01*
X27672347Y-5445399D02*
G02*
X27649543Y-5445399I-11402J0D01*
G75*
G01*
X27649543Y-5445399D02*
G02*
X27672347Y-5445399I11402J0D01*
G75*
G01*
X30529342Y-5445399D02*
G02*
X30506538Y-5445399I-11402J0D01*
G75*
G01*
X30506538Y-5445399D02*
G02*
X30529342Y-5445399I11402J0D01*
G75*
G01*
X32909396Y-5446398D02*
G02*
X32886592Y-5446398I-11402J0D01*
G75*
G01*
X32886592Y-5446398D02*
G02*
X32909396Y-5446398I11402J0D01*
G75*
G01*
X34814396Y-5446398D02*
G02*
X34791592Y-5446398I-11402J0D01*
G75*
G01*
X34791592Y-5446398D02*
G02*
X34814396Y-5446398I11402J0D01*
G75*
G01*
X36719396Y-5446398D02*
G02*
X36696592Y-5446398I-11402J0D01*
G75*
G01*
X36696592Y-5446398D02*
G02*
X36719396Y-5446398I11402J0D01*
G75*
G01*
X38513517Y-6843390D02*
G02*
X38513517Y-6820586I0J11402D01*
G75*
G01*
X38513517Y-6820586D02*
G02*
X38513517Y-6843390I0J-11402D01*
G75*
G01*
X37148196Y-7682395D02*
G02*
X37171000Y-7682395I11402J0D01*
G75*
G01*
X37171000Y-7682395D02*
G02*
X37148196Y-7682395I-11402J0D01*
G75*
G01*
X35243196Y-7682395D02*
G02*
X35266000Y-7682395I11402J0D01*
G75*
G01*
X35266000Y-7682395D02*
G02*
X35243196Y-7682395I-11402J0D01*
G75*
G01*
X33338196Y-7682395D02*
G02*
X33361000Y-7682395I11402J0D01*
G75*
G01*
X33361000Y-7682395D02*
G02*
X33338196Y-7682395I-11402J0D01*
G75*
G01*
X30963296Y-7682395D02*
G02*
X30986100Y-7682395I11402J0D01*
G75*
G01*
X30986100Y-7682395D02*
G02*
X30963296Y-7682395I-11402J0D01*
G75*
G01*
X27394596Y-7682395D02*
G02*
X27417400Y-7682395I11402J0D01*
G75*
G01*
X27417400Y-7682395D02*
G02*
X27394596Y-7682395I-11402J0D01*
G75*
G01*
X24295796Y-7682395D02*
G02*
X24318600Y-7682395I11402J0D01*
G75*
G01*
X24318600Y-7682395D02*
G02*
X24295796Y-7682395I-11402J0D01*
G75*
G01*
X22390796Y-7682395D02*
G02*
X22413600Y-7682395I11402J0D01*
G75*
G01*
X22413600Y-7682395D02*
G02*
X22390796Y-7682395I-11402J0D01*
G75*
G01*
X20485796Y-7682395D02*
G02*
X20508600Y-7682395I11402J0D01*
G75*
G01*
X20508600Y-7682395D02*
G02*
X20485796Y-7682395I-11402J0D01*
G75*
G01*
X18580796Y-7682395D02*
G02*
X18603600Y-7682395I11402J0D01*
G75*
G01*
X18603600Y-7682395D02*
G02*
X18580796Y-7682395I-11402J0D01*
G75*
G01*
X16675796Y-7682395D02*
G02*
X16698600Y-7682395I11402J0D01*
G75*
G01*
X16698600Y-7682395D02*
G02*
X16675796Y-7682395I-11402J0D01*
G75*
G01*
X14770796Y-7682395D02*
G02*
X14793600Y-7682395I11402J0D01*
G75*
G01*
X14793600Y-7682395D02*
G02*
X14770796Y-7682395I-11402J0D01*
G75*
G01*
X12865796Y-7682395D02*
G02*
X12888600Y-7682395I11402J0D01*
G75*
G01*
X12888600Y-7682395D02*
G02*
X12865796Y-7682395I-11402J0D01*
G75*
G01*
X10960796Y-7682395D02*
G02*
X10983600Y-7682395I11402J0D01*
G75*
G01*
X10983600Y-7682395D02*
G02*
X10960796Y-7682395I-11402J0D01*
G75*
G01*
X9055796Y-7682395D02*
G02*
X9078600Y-7682395I11402J0D01*
G75*
G01*
X9078600Y-7682395D02*
G02*
X9055796Y-7682395I-11402J0D01*
G75*
G01*
X7150796Y-7682395D02*
G02*
X7173600Y-7682395I11402J0D01*
G75*
G01*
X7173600Y-7682395D02*
G02*
X7150796Y-7682395I-11402J0D01*
G75*
G01*
X5245796Y-7682395D02*
G02*
X5268600Y-7682395I11402J0D01*
G75*
G01*
X5268600Y-7682395D02*
G02*
X5245796Y-7682395I-11402J0D01*
G75*
G01*
X2146996Y-7682395D02*
G02*
X2169800Y-7682395I11402J0D01*
G75*
G01*
X2169800Y-7682395D02*
G02*
X2146996Y-7682395I-11402J0D01*
G75*
G01*
X2431400Y-9252387D02*
G02*
X2408596Y-9252387I-11402J0D01*
G75*
G01*
X2408596Y-9252387D02*
G02*
X2431400Y-9252387I11402J0D01*
G75*
G01*
X5288900Y-9252387D02*
G02*
X5266096Y-9252387I-11402J0D01*
G75*
G01*
X5266096Y-9252387D02*
G02*
X5288900Y-9252387I11402J0D01*
G75*
G01*
X7193900Y-9252387D02*
G02*
X7171096Y-9252387I-11402J0D01*
G75*
G01*
X7171096Y-9252387D02*
G02*
X7193900Y-9252387I11402J0D01*
G75*
G01*
X9098900Y-9252387D02*
G02*
X9076096Y-9252387I-11402J0D01*
G75*
G01*
X9076096Y-9252387D02*
G02*
X9098900Y-9252387I11402J0D01*
G75*
G01*
X11003900Y-9252387D02*
G02*
X10981096Y-9252387I-11402J0D01*
G75*
G01*
X10981096Y-9252387D02*
G02*
X11003900Y-9252387I11402J0D01*
G75*
G01*
X12908900Y-9252387D02*
G02*
X12886096Y-9252387I-11402J0D01*
G75*
G01*
X12886096Y-9252387D02*
G02*
X12908900Y-9252387I11402J0D01*
G75*
G01*
X14813900Y-9252387D02*
G02*
X14791096Y-9252387I-11402J0D01*
G75*
G01*
X14791096Y-9252387D02*
G02*
X14813900Y-9252387I11402J0D01*
G75*
G01*
X16718900Y-9252387D02*
G02*
X16696096Y-9252387I-11402J0D01*
G75*
G01*
X16696096Y-9252387D02*
G02*
X16718900Y-9252387I11402J0D01*
G75*
G01*
X18623900Y-9252387D02*
G02*
X18601096Y-9252387I-11402J0D01*
G75*
G01*
X18601096Y-9252387D02*
G02*
X18623900Y-9252387I11402J0D01*
G75*
G01*
X20528900Y-9252387D02*
G02*
X20506096Y-9252387I-11402J0D01*
G75*
G01*
X20506096Y-9252387D02*
G02*
X20528900Y-9252387I11402J0D01*
G75*
G01*
X22433900Y-9252387D02*
G02*
X22411096Y-9252387I-11402J0D01*
G75*
G01*
X22411096Y-9252387D02*
G02*
X22433900Y-9252387I11402J0D01*
G75*
G01*
X25050100Y-9252387D02*
G02*
X25027296Y-9252387I-11402J0D01*
G75*
G01*
X25027296Y-9252387D02*
G02*
X25050100Y-9252387I11402J0D01*
G75*
G01*
X28146347Y-9730384D02*
G02*
X28123543Y-9730384I-11402J0D01*
G75*
G01*
X28123543Y-9730384D02*
G02*
X28146347Y-9730384I11402J0D01*
G75*
G01*
X32911400Y-9252387D02*
G02*
X32888596Y-9252387I-11402J0D01*
G75*
G01*
X32888596Y-9252387D02*
G02*
X32911400Y-9252387I11402J0D01*
G75*
G01*
X34816400Y-9252387D02*
G02*
X34793596Y-9252387I-11402J0D01*
G75*
G01*
X34793596Y-9252387D02*
G02*
X34816400Y-9252387I11402J0D01*
G75*
G01*
X36721400Y-9252387D02*
G02*
X36698596Y-9252387I-11402J0D01*
G75*
G01*
X36698596Y-9252387D02*
G02*
X36721400Y-9252387I11402J0D01*
G75*
G01*
X38514518Y-10653382D02*
G02*
X38514518Y-10630578I0J11402D01*
G75*
G01*
X38514518Y-10630578D02*
G02*
X38514518Y-10653382I0J-11402D01*
G75*
G01*
X37152524Y-11493574D02*
G02*
X37175328Y-11493574I11402J0D01*
G75*
G01*
X37175328Y-11493574D02*
G02*
X37152524Y-11493574I-11402J0D01*
G75*
G01*
X34291529Y-11493574D02*
G02*
X34314333Y-11493574I11402J0D01*
G75*
G01*
X34314333Y-11493574D02*
G02*
X34291529Y-11493574I-11402J0D01*
G75*
G01*
X30487536Y-11971574D02*
G02*
X30510340Y-11971574I11402J0D01*
G75*
G01*
X30510340Y-11971574D02*
G02*
X30487536Y-11971574I-11402J0D01*
G75*
G01*
X28578538Y-11971571D02*
G02*
X28601342Y-11971571I11402J0D01*
G75*
G01*
X28601342Y-11971571D02*
G02*
X28578538Y-11971571I-11402J0D01*
G75*
G01*
X26675542Y-11971571D02*
G02*
X26698346Y-11971571I11402J0D01*
G75*
G01*
X26698346Y-11971571D02*
G02*
X26675542Y-11971571I-11402J0D01*
G75*
G01*
X24054496Y-11495573D02*
G02*
X24077300Y-11495573I11402J0D01*
G75*
G01*
X24077300Y-11495573D02*
G02*
X24054496Y-11495573I-11402J0D01*
G75*
G01*
X21909552Y-11495573D02*
G02*
X21932356Y-11495573I11402J0D01*
G75*
G01*
X21932356Y-11495573D02*
G02*
X21909552Y-11495573I-11402J0D01*
G75*
G01*
X20009556Y-11495573D02*
G02*
X20032360Y-11495573I11402J0D01*
G75*
G01*
X20032360Y-11495573D02*
G02*
X20009556Y-11495573I-11402J0D01*
G75*
G01*
X13099070Y-11495573D02*
G02*
X13121874Y-11495573I11402J0D01*
G75*
G01*
X13121874Y-11495573D02*
G02*
X13099070Y-11495573I-11402J0D01*
G75*
G01*
X6198296Y-11495573D02*
G02*
X6221100Y-11495573I11402J0D01*
G75*
G01*
X6221100Y-11495573D02*
G02*
X6198296Y-11495573I-11402J0D01*
G75*
G01*
X4293296Y-11495573D02*
G02*
X4316100Y-11495573I11402J0D01*
G75*
G01*
X4316100Y-11495573D02*
G02*
X4293296Y-11495573I-11402J0D01*
G75*
G01*
X2147593Y-11495573D02*
G02*
X2170394Y-11495573I11401J171D01*
G75*
G01*
X2170394Y-11495573D02*
G02*
X2147593Y-11495573I-11400J-170D01*
G75*
G01
X13899921Y-3444697D02*
G03X13899921Y-3444697I-17958J0D01*
M02*
