M48
METRIC,LZ,000.000
;FILE_FORMAT=3:3
;TYPE=PLATED
;Layer: PTH_Through_Via
;EasyEDA v6.5.33, 2023-07-29 01:37:07
;e2284e44ffa54268a608bda52510a791,d031c0a8eb424844af7c2e53bc7358ee,10
;Gerber Generator version 0.2
;Holesize 1 = 0.305 mm
T01C0.305
;Holesize 2 = 0.310 mm
T02C0.310
%
G05
G90
T01
X147828Y078359
X144780Y070866
X146220Y069980
X144870Y069270
X144766Y058178
X156320Y057740
X155770Y065540
X152016Y066778
X150116Y068778
X151316Y069078
X153320Y069140
X160766Y072078
X159258Y071374
X160160Y073000
X151780Y074730
X151316Y071978
T02
X142460Y069380
X148812Y072704
X158670Y070340
X147410Y060870
X147590Y061910
X148480Y062140
X148060Y060020
X149010Y063690
X154277Y066817
X150800Y057740
M30
