G04 Layer: BottomLayer*
G04 EasyEDA v6.5.33, 2023-07-29 01:37:07*
G04 e2284e44ffa54268a608bda52510a791,d031c0a8eb424844af7c2e53bc7358ee,10*
G04 Gerber Generator version 0.2*
G04 Scale: 100 percent, Rotated: No, Reflected: No *
G04 Dimensions in millimeters *
G04 leading zeros omitted , absolute positions ,4 integer and 5 decimal *
%FSLAX45Y45*%
%MOMM*%

%AMMACRO1*21,1,$1,$2,0,0,$3*%
%ADD10C,0.2540*%
%ADD11MACRO1,1.9001X2.4001X0.0000*%
%ADD12MACRO1,1.9X2.4001X0.0000*%
%ADD13MACRO1,0.3149X0.835X0.0000*%
%ADD14MACRO1,0.315X0.835X0.0000*%
%ADD15MACRO1,0.315X0.8351X0.0000*%
%ADD16MACRO1,0.3149X0.8351X0.0000*%
%ADD17R,1.3770X1.1325*%
%ADD18MACRO1,1.377X1.1324X0.0000*%
%ADD19MACRO1,1.377X1.1325X90.0000*%
%ADD20MACRO1,1.377X1.1326X90.0000*%
%ADD21MACRO1,1.377X1.1325X0.0000*%
%ADD22MACRO1,2X1.5001X0.0000*%
%ADD23MACRO1,2X1.5X0.0000*%
%ADD24MACRO1,0.4001X1.5X0.0000*%
%ADD25MACRO1,0.3999X1.5X0.0000*%
%ADD26MACRO1,0.4X1.5X0.0000*%
%ADD27R,1.2960X1.7575*%
%ADD28MACRO1,1.2959X1.7575X0.0000*%
%ADD29MACRO1,1.35X1.41X-90.0000*%
%ADD30MACRO1,1.35X1.4101X-90.0000*%
%ADD31MACRO1,1.3501X1.41X-90.0000*%
%ADD32MACRO1,1.3501X1.4101X-90.0000*%
%ADD33MACRO1,1.3501X1.4101X90.0000*%
%ADD34MACRO1,1.3501X1.4099X90.0000*%
%ADD35MACRO1,1.35X1.4099X-90.0000*%
%ADD36R,1.3500X1.4100*%
%ADD37MACRO1,1.3501X1.41X0.0000*%
%ADD38MACRO1,1.3501X1.4101X0.0000*%
%ADD39MACRO1,0.3X1.15X0.0000*%
%ADD40MACRO1,0.2997X1.1481X0.0000*%
%ADD41C,1.5240*%
%ADD42O,1.1999976X1.7999964*%
%ADD43O,1.1999976X1.9999959999999999*%
%ADD44C,0.6096*%
%ADD45C,0.6200*%
%ADD46C,0.0150*%

%LPD*%
D10*
X14622018Y6997954D02*
G01*
X14533372Y7086600D01*
X14478000Y7086600D01*
X14090954Y6652996D02*
G01*
X14091978Y6652996D01*
X14436986Y6998004D01*
X14621967Y6998004D01*
X14556231Y7619237D02*
G01*
X14556231Y7798815D01*
X14481047Y7874000D01*
X14103095Y7874000D01*
X13986002Y7756905D01*
X13986002Y7026910D01*
X14074902Y6938010D01*
X14246097Y6938010D01*
X14606270Y7619492D02*
G01*
X14606270Y7524750D01*
X14625320Y7505700D01*
X14686788Y7505700D01*
X14706091Y7525258D01*
X14706091Y7619492D01*
X14456156Y7619745D02*
G01*
X14456156Y7476744D01*
X14522958Y7409942D01*
X14863063Y7409942D01*
X14936216Y7483094D01*
X16266668Y7251445D02*
G01*
X16389858Y7128002D01*
X16389858Y6595871D01*
X16279875Y6485889D01*
X15216886Y6452107D02*
G01*
X15216886Y6420865D01*
X15564866Y6072886D01*
X15644875Y6072886D01*
X15681959Y6036055D01*
X15681959Y5808979D01*
X15828263Y5662676D01*
X15951708Y5662676D01*
X15731490Y5922771D02*
G01*
X15780511Y5874004D01*
X16293845Y5874004D01*
X16444975Y6025134D01*
X16444975Y7303008D01*
X16318991Y7428992D01*
X16318991Y8058912D01*
X16182086Y8196071D01*
X15314929Y8196071D01*
X15223997Y8104886D01*
X15223997Y7955026D01*
X15413990Y7765034D01*
X15850870Y7765034D01*
X15955009Y7660894D01*
X15955009Y7375905D01*
X15926054Y7346950D01*
X15926054Y7241031D01*
X16049243Y7117842D01*
X16069818Y7117842D01*
X15079979Y5773928D02*
G01*
X15474950Y5773928D01*
X15531591Y5830570D01*
X15531591Y5922771D01*
X14711679Y5662676D02*
G01*
X14631670Y5662676D01*
X14476475Y5817870D01*
X14711679Y5662676D02*
G01*
X14711679Y5843523D01*
X14790674Y5922771D01*
X14931643Y5922771D01*
X15631629Y5922769D02*
G01*
X15631629Y5784329D01*
X15631947Y5784009D01*
X15631947Y5774004D01*
X14681200Y7708900D02*
G01*
X14681200Y7848600D01*
X14744700Y7912100D01*
X15097759Y7912100D01*
X15273020Y7737855D01*
X15273020Y7707884D01*
X15443961Y7536942D01*
X15697200Y7536942D01*
X15790925Y7630668D01*
X15687040Y7230618D02*
G01*
X15667990Y7230618D01*
X15667990Y7507731D01*
X15790925Y7630668D01*
X14936216Y7619237D02*
G01*
X14936216Y7377684D01*
X14973300Y7340600D01*
X15405354Y7340600D01*
X15474950Y7271004D01*
X15474950Y6978650D01*
X15653004Y6800595D01*
X15766034Y6800595D01*
X15325852Y7245095D02*
G01*
X15411958Y7158989D01*
X15411958Y6885939D01*
X15313659Y6787895D01*
X15051531Y6787895D01*
X15011654Y6827773D01*
X15011654Y6877812D01*
X15866976Y7033996D02*
G01*
X15866976Y7081931D01*
X15811512Y7137394D01*
X15592562Y7137394D01*
X15544977Y7184976D01*
X15544977Y7433360D01*
X15604975Y8007022D02*
G01*
X15678472Y8007022D01*
X16015970Y7669524D01*
X16015970Y7300010D01*
X16076675Y7207758D02*
G01*
X16076675Y7806436D01*
X15876016Y8007095D01*
X15858997Y8007095D01*
X16266413Y7251445D02*
G01*
X16266413Y8023605D01*
X16146018Y8144002D01*
X15487904Y8144002D01*
X15350997Y8007095D01*
X14606216Y7619392D02*
G01*
X14606216Y7837083D01*
X14732012Y7962894D01*
X15125054Y7962894D01*
X15391754Y7696194D01*
X15441264Y7696194D01*
X15510855Y7626604D01*
X15544977Y7626604D01*
X15646908Y6230873D02*
G01*
X15929863Y5947918D01*
X16171925Y5947918D01*
X16268954Y6045200D01*
X16268954Y6061963D01*
X14856231Y7619255D02*
G01*
X14856231Y7762460D01*
X14782815Y7835892D01*
X15231618Y5922771D02*
G01*
X15231618Y6031229D01*
X15117825Y6145021D01*
X14804897Y6145021D01*
X14758924Y6190995D01*
X14740890Y6087110D02*
G01*
X15060929Y6087110D01*
X15131541Y6016244D01*
X15131541Y5922771D01*
X14900909Y6369050D02*
G01*
X14900909Y6313931D01*
X14946884Y6267957D01*
X15193009Y6267957D01*
X15431516Y6029452D01*
X15431516Y5922771D01*
X15216886Y6451854D02*
G01*
X14826995Y6451854D01*
X14637004Y6261862D01*
X14637004Y5972047D01*
X14686279Y5922771D01*
X14931643Y5922771D01*
X14523974Y6151981D02*
G01*
X14523974Y6244993D01*
X14956779Y6677799D01*
X15201615Y6677799D01*
X14323974Y6151981D02*
G01*
X15011671Y6839678D01*
X15011671Y6877799D01*
X14847976Y6213982D02*
G01*
X15155974Y6213982D01*
X15331615Y6038342D01*
X15331615Y5922769D01*
X15765957Y6463385D02*
G01*
X15877964Y6575391D01*
X15877964Y6874098D01*
X15961619Y6957745D01*
X16081623Y6957745D01*
X16279875Y6485889D02*
G01*
X16179800Y6585965D01*
X15965170Y6585965D01*
X15930879Y6620255D01*
X15930879Y6827773D01*
X15976600Y6873494D01*
X14323974Y6151981D02*
G01*
X14323974Y5970419D01*
X14476597Y5817796D01*
X16279977Y6691985D02*
G01*
X16266591Y6705371D01*
X16266591Y6914156D01*
X16062957Y6061986D02*
G01*
X16062957Y6477027D01*
X16053993Y6485991D01*
X16268948Y6061986D02*
G01*
X16268948Y6271991D01*
X16268954Y6271996D01*
X16268948Y6271996D02*
G01*
X16279977Y6283025D01*
X16279977Y6485991D01*
X15765957Y6800621D02*
G01*
X15765957Y6958380D01*
X15686963Y7037374D01*
X14805964Y6001994D02*
G01*
X14831961Y6027991D01*
X14981969Y6027991D01*
X15031615Y5978344D01*
X15031615Y5922769D01*
X15765957Y6463385D02*
G01*
X15765957Y6504000D01*
X15588244Y6681713D01*
X15427721Y6681713D01*
X14989985Y7612961D02*
G01*
X15019977Y7612961D01*
X14909970Y7612961D02*
G01*
X14939995Y7612961D01*
X14429986Y7613368D02*
G01*
X14459988Y7613368D01*
X15019977Y7612961D02*
G01*
X15111460Y7704444D01*
X15116985Y7704444D01*
X14349971Y7613111D02*
G01*
X14258637Y7704444D01*
X14252973Y7704444D01*
X14349971Y7613111D02*
G01*
X14379973Y7613111D01*
X14500956Y6652996D02*
G01*
X14486966Y6666986D01*
X14486966Y6926986D01*
X14656318Y7619232D02*
G01*
X14656318Y7683995D01*
X14681215Y7708892D01*
X14732015Y7708892D01*
X14756142Y7684754D01*
X14756142Y7619232D01*
X16266530Y6914034D02*
G01*
X16266530Y6997854D01*
X16156559Y7107826D01*
X16156559Y7963433D01*
X16112972Y8007019D01*
X15325979Y7444994D02*
G01*
X15297965Y7473007D01*
X15177975Y7473007D01*
X16053993Y6691985D02*
G01*
X16053993Y6820888D01*
X16106602Y6873496D01*
X15765957Y6800621D02*
G01*
X15765957Y6831365D01*
X15976600Y7042007D01*
X16041611Y7042028D02*
G01*
X16041611Y6997748D01*
X16081621Y6957748D01*
X16222985Y6957748D01*
X16266601Y6914131D01*
X15976602Y7042028D02*
G01*
X15976602Y7097750D01*
X15996597Y7117753D01*
X16081621Y7117753D01*
X16106630Y7092759D01*
X16106630Y7042028D01*
X15925812Y7137394D02*
G01*
X15790976Y7272228D01*
X15790976Y7437373D01*
X15131587Y6907781D02*
G01*
X14881227Y7158154D01*
X14881227Y7270371D01*
X15131587Y6907781D02*
G01*
X15131587Y7197773D01*
X15131590Y6907784D02*
G01*
X15137790Y6913981D01*
X15331947Y6913981D01*
X15422956Y6451980D02*
G01*
X15474927Y6451980D01*
X15576958Y6554012D01*
X15576958Y6554012D02*
G01*
X15646958Y6484012D01*
X15646958Y6231001D01*
X15765957Y6463388D02*
G01*
X15852978Y6376367D01*
X15852978Y6231001D01*
X16062957Y6061986D02*
G01*
X16021992Y6061986D01*
X15852978Y6231001D01*
D11*
G01*
X14090966Y6652991D03*
D12*
G01*
X14500970Y6652991D03*
D13*
G01*
X15976586Y7042026D03*
D14*
G01*
X16041612Y7042026D03*
G01*
X16106608Y7042026D03*
D15*
G01*
X16106608Y6873529D03*
D16*
G01*
X15976586Y6873529D03*
D17*
G01*
X15325981Y7444986D03*
D18*
G01*
X15325975Y7244974D03*
D19*
G01*
X14323968Y6151990D03*
D20*
G01*
X14523977Y6151990D03*
D17*
G01*
X15790969Y7630607D03*
D21*
G01*
X15790962Y7437358D03*
D17*
G01*
X15544970Y7626606D03*
D21*
G01*
X15544976Y7433358D03*
D17*
G01*
X15686968Y7037364D03*
D21*
G01*
X15686977Y7230616D03*
D22*
G01*
X15951589Y5662777D03*
D23*
G01*
X14711607Y5662775D03*
D24*
G01*
X15731610Y5922777D03*
D25*
G01*
X15631613Y5922777D03*
D24*
G01*
X15531608Y5922777D03*
D25*
G01*
X15431611Y5922777D03*
G01*
X15331612Y5922777D03*
G01*
X15231609Y5922777D03*
G01*
X15131610Y5922777D03*
G01*
X15031606Y5922777D03*
D26*
G01*
X14931605Y5922777D03*
D27*
G01*
X16266591Y7251395D03*
D28*
G01*
X16266598Y6914150D03*
D29*
G01*
X16268973Y6061984D03*
D30*
G01*
X16062968Y6061984D03*
D31*
G01*
X16268973Y6271986D03*
D32*
G01*
X16062968Y6271986D03*
D33*
G01*
X15646967Y6230988D03*
D34*
G01*
X15852968Y6230988D03*
D30*
G01*
X15422970Y6451988D03*
D35*
G01*
X15216969Y6451988D03*
D36*
G01*
X16279969Y6485983D03*
D37*
G01*
X16279967Y6691984D03*
D36*
G01*
X16053986Y6691983D03*
D38*
G01*
X16053973Y6485995D03*
D27*
G01*
X15765967Y6800616D03*
D28*
G01*
X15765961Y6463376D03*
D39*
G01*
X14349983Y7613106D03*
G01*
X14379986Y7613106D03*
G01*
X14429983Y7613360D03*
G01*
X14459986Y7613360D03*
D40*
G01*
X14509974Y7612954D03*
D39*
G01*
X14559986Y7612954D03*
G01*
X14609984Y7613106D03*
G01*
X14659984Y7612954D03*
G01*
X14709984Y7613106D03*
G01*
X14759984Y7612954D03*
D40*
G01*
X14809948Y7612954D03*
D39*
G01*
X14859984Y7612954D03*
G01*
X14909982Y7612954D03*
G01*
X14939985Y7612954D03*
G01*
X14989982Y7612954D03*
G01*
X15019985Y7612954D03*
D41*
G01*
X16112967Y8007009D03*
G01*
X15858967Y8007009D03*
G01*
X15604967Y8007009D03*
G01*
X15350967Y8007009D03*
D42*
G01*
X14252978Y8122452D03*
G01*
X15116982Y8122452D03*
D43*
G01*
X15116982Y7704444D03*
G01*
X14252978Y7704444D03*
D44*
G01*
X14782800Y7835900D03*
G01*
X14478000Y7086600D03*
G01*
X14621954Y6997994D03*
G01*
X14486956Y6926994D03*
G01*
X14476602Y5817793D03*
G01*
X15631955Y5774001D03*
G01*
X15576958Y6554005D03*
G01*
X15201595Y6677787D03*
G01*
X15011577Y6877786D03*
G01*
X15131592Y6907809D03*
G01*
X15331955Y6913991D03*
G01*
X16076599Y7207783D03*
G01*
X15925800Y7137400D03*
G01*
X16015959Y7300003D03*
G01*
X15177960Y7473010D03*
G01*
X15131592Y7197801D03*
D45*
G01*
X14245970Y6937987D03*
G01*
X14881227Y7270371D03*
G01*
X15866968Y7033986D03*
G01*
X14740971Y6086988D03*
G01*
X14758969Y6190988D03*
G01*
X14847971Y6213988D03*
G01*
X14805969Y6001986D03*
G01*
X14900970Y6368986D03*
G01*
X15427706Y6681723D03*
G01*
X15079969Y5773988D03*
M02*
