G04 Layer: TopLayer*
G04 EasyEDA v6.5.33, 2023-07-29 01:37:07*
G04 e2284e44ffa54268a608bda52510a791,d031c0a8eb424844af7c2e53bc7358ee,10*
G04 Gerber Generator version 0.2*
G04 Scale: 100 percent, Rotated: No, Reflected: No *
G04 Dimensions in millimeters *
G04 leading zeros omitted , absolute positions ,4 integer and 5 decimal *
%FSLAX45Y45*%
%MOMM*%

%AMMACRO1*21,1,$1,$2,0,0,$3*%
%ADD10C,0.2540*%
%ADD11O,1.499997X0.27000199999999996*%
%ADD12O,0.27000199999999996X1.499997*%
%ADD13MACRO1,1.3769X1.1324X0.0000*%
%ADD14R,1.3770X1.1325*%
%ADD15MACRO1,1.377X1.1326X90.0000*%
%ADD16MACRO1,1.377X1.1325X90.0000*%
%ADD17MACRO1,1.377X1.1325X-90.0000*%
%ADD18MACRO1,1.377X1.1326X-90.0000*%
%ADD19R,1.4000X2.0000*%
%ADD20R,0.3000X1.4000*%
%ADD21R,2.0000X2.5000*%
%ADD22MACRO1,1.3501X1.4101X0.0000*%
%ADD23R,1.3500X1.4100*%
%ADD24MACRO1,1.3501X1.4099X0.0000*%
%ADD25C,1.5240*%
%ADD26O,1.1999976X1.7999964*%
%ADD27O,1.1999976X1.9999959999999999*%
%ADD28C,0.6096*%
%ADD29C,0.6200*%
%ADD30C,0.0124*%

%LPD*%
D10*
X14486890Y6927087D02*
G01*
X14486890Y6982968D01*
X14670277Y7166355D01*
X14670277Y7356855D01*
X14719300Y7405623D01*
X14470888Y6549897D02*
G01*
X14470888Y6573012D01*
X14695677Y6797802D01*
X14808454Y6797802D01*
X14245970Y6937984D02*
G01*
X14302592Y6994606D01*
X14302592Y7107986D01*
X14476597Y6034384D02*
G01*
X14801595Y5709386D01*
X14801595Y5649010D01*
X14801595Y5648960D02*
G01*
X15941547Y5648960D01*
X15058643Y6497828D02*
G01*
X15058643Y6411721D01*
X14911070Y6263894D01*
X14911070Y5832094D01*
X14968981Y5773928D01*
X15079979Y5773928D01*
X15721609Y5906541D02*
G01*
X15721609Y5992627D01*
X16243968Y6514985D01*
X16243968Y7397983D01*
X16058967Y7582984D01*
X15460969Y7582984D01*
X15358592Y7480607D01*
X15358592Y7347762D01*
X15108697Y7347699D02*
G01*
X15108697Y7506710D01*
X15283967Y7681981D01*
X16121979Y7681981D01*
X16349972Y7453988D01*
X16349972Y6338001D01*
X15785975Y5774004D01*
X15631947Y5774004D01*
X15408656Y7347712D02*
G01*
X15408656Y7454645D01*
X15487904Y7533894D01*
X16040861Y7533894D01*
X16199866Y7374889D01*
X16199866Y6529070D01*
X15671545Y6000495D01*
X15671545Y5906515D01*
X15458693Y7347712D02*
G01*
X15458693Y7438644D01*
X15502890Y7483094D01*
X16020034Y7483094D01*
X16149066Y7354062D01*
X16149066Y6542023D01*
X15621508Y6014720D01*
X15621508Y5906515D01*
X15658591Y6947662D02*
G01*
X15832074Y6947662D01*
X16020034Y6759955D01*
X16020034Y6478015D01*
X15571724Y6029705D01*
X15571724Y5906515D01*
X15658591Y6897878D02*
G01*
X15810229Y6897878D01*
X15969995Y6737858D01*
X15969995Y6494018D01*
X15521686Y6045707D01*
X15521686Y5906515D01*
X15308579Y7347712D02*
G01*
X15308579Y7494523D01*
X15443961Y7629905D01*
X16092931Y7629905D01*
X16300958Y7421879D01*
X16300958Y6435852D01*
X15771622Y5906515D01*
X15427706Y6681470D02*
G01*
X15254986Y6854444D01*
X15254986Y7001002D01*
X15301722Y7047737D01*
X15401543Y7047737D01*
X15658591Y6797802D02*
G01*
X15770097Y6797802D01*
X15868904Y6698995D01*
X15868904Y6523989D01*
X15421609Y6076695D01*
X15421609Y5906515D01*
X15658591Y6847839D02*
G01*
X15791179Y6847839D01*
X15917925Y6721094D01*
X15917925Y6510020D01*
X15471647Y6063742D01*
X15471647Y5906515D01*
X15658591Y6747763D02*
G01*
X15757143Y6747763D01*
X15817850Y6687058D01*
X15817850Y6543039D01*
X15371572Y6096507D01*
X15371572Y5906515D01*
X15321534Y5906515D02*
G01*
X15321534Y6115557D01*
X15765018Y6559042D01*
X15765018Y6674104D01*
X15741141Y6697726D01*
X15658591Y6697726D01*
X14105356Y7353985D02*
G01*
X14105356Y7556832D01*
X14252971Y7704447D01*
X14470989Y6749973D02*
G01*
X14277162Y6556146D01*
X14113073Y6556146D01*
X14805913Y6002020D02*
G01*
X14712950Y6002020D01*
X14641068Y6073902D01*
X14641068Y6670039D01*
X14718791Y6747763D01*
X14808708Y6747763D01*
X14958565Y6497830D02*
G01*
X14876686Y6497830D01*
X14822970Y6444114D01*
X14822970Y6238989D01*
X14847976Y6213982D01*
X14808570Y6897781D02*
G01*
X14692772Y6897781D01*
X14544964Y6749973D01*
X14470989Y6749973D01*
X14486966Y6926986D02*
G01*
X14642975Y6926986D01*
X14663798Y6947811D01*
X14808570Y6947811D01*
X15008608Y6497779D02*
G01*
X15008608Y6427627D01*
X14949957Y6368973D01*
X14900960Y6368973D01*
X14758974Y6190995D02*
G01*
X14758974Y6597954D01*
X14808708Y6647687D01*
X14808608Y6697774D02*
G01*
X14732756Y6697774D01*
X14688964Y6653987D01*
X14688964Y6138984D01*
X14740966Y6086982D01*
X15658591Y6997773D02*
G01*
X15830750Y6997773D01*
X15866973Y7033996D01*
X15658591Y6647687D02*
G01*
X15658591Y6525513D01*
X15271495Y6138671D01*
X15271495Y5906515D01*
X15508610Y6497779D02*
G01*
X15520723Y6497779D01*
X15576956Y6554012D01*
X15408656Y6497828D02*
G01*
X15408656Y6351523D01*
X15221711Y6164579D01*
X15221711Y5906515D01*
X15358618Y6497828D02*
G01*
X15358618Y6373621D01*
X15171674Y6186678D01*
X15171674Y5906515D01*
X15258541Y6497828D02*
G01*
X15258541Y6344665D01*
X15121636Y6207505D01*
X15121636Y5906515D01*
X15208504Y6497828D02*
G01*
X15208504Y6362700D01*
X15071597Y6225539D01*
X15071597Y5906515D01*
X15158466Y6497828D02*
G01*
X15158466Y6383528D01*
X15021559Y6246621D01*
X15021559Y5906515D01*
X14971522Y5906515D02*
G01*
X14971522Y6263639D01*
X15108681Y6400545D01*
X15108681Y6497828D01*
X14881352Y7270495D02*
G01*
X14958568Y7347712D01*
X14808708Y7197852D02*
G01*
X14881352Y7270495D01*
X14252973Y8122457D02*
G01*
X14252973Y7704444D01*
X15116985Y8122457D02*
G01*
X14252973Y8122457D01*
X15116985Y7704444D02*
G01*
X15116985Y8122457D01*
X15658597Y7197763D02*
G01*
X15131600Y7197763D01*
X14516115Y7465982D02*
G01*
X14579615Y7465982D01*
X14719315Y7605682D01*
X15008616Y7347747D02*
G01*
X15008616Y7606149D01*
X15113208Y7710731D01*
X14719315Y7605682D02*
G01*
X14847917Y7605682D01*
X15008618Y7444973D01*
X15008618Y7347747D01*
X15158590Y7347750D02*
G01*
X15158590Y7453627D01*
X15177973Y7473010D01*
X15508571Y7347861D02*
G01*
X15556423Y7300010D01*
X16015970Y7300010D01*
X15658597Y7047755D02*
G01*
X15786595Y7047755D01*
X15876221Y7137392D01*
X15925815Y7137392D01*
X15658597Y7097760D02*
G01*
X15736628Y7097760D01*
X15846600Y7207745D01*
X16076627Y7207745D01*
X15458549Y6497721D02*
G01*
X15458549Y6650880D01*
X15427820Y6681596D01*
X15011585Y6877801D02*
G01*
X15011585Y7344765D01*
X15008606Y7347747D01*
X15011585Y6877801D02*
G01*
X15011585Y7007766D01*
X15051605Y7047765D01*
X15401612Y7047765D01*
X15501586Y7147768D01*
X15658597Y7147768D01*
X15508571Y6497723D02*
G01*
X15508571Y6737357D01*
X15331947Y6913981D01*
X14808636Y6847740D02*
G01*
X14981560Y6847740D01*
X15011585Y6877801D01*
X14808636Y6797768D02*
G01*
X15021605Y6797768D01*
X15131587Y6907753D01*
X15131587Y6907781D01*
X15308607Y6497754D02*
G01*
X15308607Y6630774D01*
X15261577Y6677799D01*
X15201618Y6677799D01*
X14474977Y6111976D02*
G01*
X14476597Y6110356D01*
X14476597Y5817765D01*
X14112875Y6005804D02*
G01*
X14112875Y6029101D01*
X14401744Y6317970D01*
X14474977Y6317970D01*
X14808621Y6997760D02*
G01*
X14622211Y6997760D01*
X14621967Y6998004D01*
X14516115Y7265979D02*
G01*
X14516115Y7124692D01*
X14478015Y7086592D01*
X14109339Y7107986D02*
G01*
X14109339Y7353985D01*
X14105356Y7353985D01*
X14298599Y7353985D02*
G01*
X14363712Y7419098D01*
X14363712Y7569194D01*
X14630412Y7835894D01*
X14782812Y7835894D01*
D11*
G01*
X14808606Y7197775D03*
G01*
X14808606Y7147763D03*
G01*
X14808606Y7097776D03*
G01*
X14808606Y7047763D03*
G01*
X14808606Y6997776D03*
G01*
X14808606Y6947763D03*
G01*
X14808606Y6897776D03*
G01*
X14808606Y6847763D03*
G01*
X14808606Y6797776D03*
G01*
X14808606Y6747763D03*
G01*
X14808606Y6697776D03*
G01*
X14808606Y6647764D03*
D12*
G01*
X14958593Y6497777D03*
G01*
X15008606Y6497777D03*
G01*
X15058593Y6497777D03*
G01*
X15108605Y6497777D03*
G01*
X15158593Y6497777D03*
G01*
X15208605Y6497777D03*
G01*
X15258592Y6497777D03*
G01*
X15308605Y6497777D03*
G01*
X15358592Y6497777D03*
G01*
X15408605Y6497777D03*
G01*
X15458592Y6497777D03*
G01*
X15508604Y6497777D03*
D11*
G01*
X15658591Y6647764D03*
G01*
X15658591Y6697776D03*
G01*
X15658591Y6747763D03*
G01*
X15658591Y6797776D03*
G01*
X15658591Y6847763D03*
G01*
X15658591Y6897776D03*
G01*
X15658591Y6947763D03*
G01*
X15658591Y6997776D03*
G01*
X15658591Y7047763D03*
G01*
X15658591Y7097776D03*
G01*
X15658591Y7147763D03*
G01*
X15658591Y7197775D03*
D12*
G01*
X15508604Y7347762D03*
G01*
X15458592Y7347762D03*
G01*
X15408605Y7347762D03*
G01*
X15358592Y7347762D03*
G01*
X15308605Y7347762D03*
G01*
X15258592Y7347762D03*
G01*
X15208605Y7347762D03*
G01*
X15158593Y7347762D03*
G01*
X15108605Y7347762D03*
G01*
X15058593Y7347762D03*
G01*
X15008606Y7347762D03*
G01*
X14958593Y7347762D03*
D13*
G01*
X14470971Y6749986D03*
D14*
G01*
X14470976Y6549979D03*
D15*
G01*
X14298590Y7353979D03*
D16*
G01*
X14105338Y7353979D03*
D17*
G01*
X14109339Y7107993D03*
D18*
G01*
X14302591Y7107993D03*
D19*
G01*
X14112872Y6005814D03*
G01*
X14113075Y6556156D03*
D20*
G01*
X14971598Y5906541D03*
G01*
X15021610Y5906541D03*
G01*
X15071597Y5906541D03*
G01*
X15121610Y5906541D03*
G01*
X15171597Y5906541D03*
G01*
X15221610Y5906541D03*
D21*
G01*
X15941598Y5649061D03*
G01*
X14801595Y5649010D03*
D20*
G01*
X15271597Y5906541D03*
G01*
X15321584Y5906541D03*
G01*
X15371597Y5906541D03*
G01*
X15421584Y5906541D03*
G01*
X15471597Y5906541D03*
G01*
X15521584Y5906541D03*
G01*
X15571597Y5906541D03*
G01*
X15621609Y5906541D03*
G01*
X15671596Y5906541D03*
G01*
X15721609Y5906541D03*
G01*
X15771596Y5906541D03*
D22*
G01*
X14474967Y6317982D03*
D23*
G01*
X14474972Y6111989D03*
D22*
G01*
X14719294Y7605703D03*
D23*
G01*
X14719300Y7405700D03*
D24*
G01*
X14516105Y7465994D03*
D23*
G01*
X14516100Y7266000D03*
D25*
G01*
X16112967Y8007009D03*
G01*
X15858967Y8007009D03*
G01*
X15604967Y8007009D03*
G01*
X15350967Y8007009D03*
D26*
G01*
X14252978Y8122452D03*
G01*
X15116982Y8122452D03*
D27*
G01*
X15116982Y7704444D03*
G01*
X14252978Y7704444D03*
D28*
G01*
X14782800Y7835900D03*
G01*
X14478000Y7086600D03*
G01*
X14621954Y6997994D03*
G01*
X14486956Y6926994D03*
G01*
X14476602Y5817793D03*
G01*
X15631955Y5774001D03*
G01*
X15576958Y6554005D03*
G01*
X15201595Y6677787D03*
G01*
X15011577Y6877786D03*
G01*
X15131592Y6907809D03*
G01*
X15331955Y6913991D03*
G01*
X16076599Y7207783D03*
G01*
X15925800Y7137400D03*
G01*
X16015959Y7300003D03*
G01*
X15177960Y7473010D03*
G01*
X15131592Y7197801D03*
D29*
G01*
X14245970Y6937987D03*
G01*
X14881227Y7270371D03*
G01*
X15866968Y7033986D03*
G01*
X14740971Y6086988D03*
G01*
X14758969Y6190988D03*
G01*
X14847971Y6213988D03*
G01*
X14805969Y6001986D03*
G01*
X14900970Y6368986D03*
G01*
X15427706Y6681723D03*
G01*
X15079969Y5773988D03*
M02*
