G04 Layer: TopSolderMaskLayer*
G04 EasyEDA v6.5.33, 2023-07-29 01:37:07*
G04 e2284e44ffa54268a608bda52510a791,d031c0a8eb424844af7c2e53bc7358ee,10*
G04 Gerber Generator version 0.2*
G04 Scale: 100 percent, Rotated: No, Reflected: No *
G04 Dimensions in millimeters *
G04 leading zeros omitted , absolute positions ,4 integer and 5 decimal *
%FSLAX45Y45*%
%MOMM*%

%AMMACRO1*1,1,$1,$2,$3*1,1,$1,$4,$5*1,1,$1,0-$2,0-$3*1,1,$1,0-$4,0-$5*20,1,$1,$2,$3,$4,$5,0*20,1,$1,$4,$5,0-$2,0-$3,0*20,1,$1,0-$2,0-$3,0-$4,0-$5,0*20,1,$1,0-$4,0-$5,$2,$3,0*4,1,4,$2,$3,$4,$5,0-$2,0-$3,0-$4,0-$5,$2,$3,0*%
%ADD10O,1.6000222X0.3700272*%
%ADD11O,0.3700272X1.6000222*%
%ADD12C,1.6256*%
%ADD13MACRO1,0.1016X0.6884X-0.5662X-0.6884X-0.5662*%
%ADD14MACRO1,0.1016X0.6884X0.5662X-0.6884X0.5662*%
%ADD15MACRO1,0.1016X-0.5663X-0.6885X-0.5663X0.6885*%
%ADD16MACRO1,0.1016X0.5662X-0.6885X0.5662X0.6885*%
%ADD17MACRO1,0.1016X0.5662X0.6885X0.5662X-0.6885*%
%ADD18MACRO1,0.1016X-0.5663X0.6885X-0.5663X-0.6885*%
%ADD19MACRO1,0.1016X-0.7X-1X-0.7X1*%
%ADD20MACRO1,0.1016X-0.7X-1.0001X-0.7X1.0001*%
%ADD21MACRO1,0.1016X-0.15X0.7X0.15X0.7*%
%ADD22MACRO1,0.1016X-1X1.2501X1X1.2501*%
%ADD23MACRO1,0.1016X-1X1.25X1X1.25*%
%ADD24MACRO1,0.1016X-0.1501X0.7X0.1501X0.7*%
%ADD25MACRO1,0.1016X0.675X-0.705X-0.675X-0.705*%
%ADD26MACRO1,0.1016X0.675X0.705X-0.675X0.705*%
%ADD27O,1.4031976X2.0031963999999998*%
%ADD28O,1.4031976X2.2031959999999997*%

%LPD*%
D10*
G01*
X14808606Y7197775D03*
G01*
X14808606Y7147763D03*
G01*
X14808606Y7097776D03*
G01*
X14808606Y7047763D03*
G01*
X14808606Y6997776D03*
G01*
X14808606Y6947763D03*
G01*
X14808606Y6897776D03*
G01*
X14808606Y6847763D03*
G01*
X14808606Y6797776D03*
G01*
X14808606Y6747763D03*
G01*
X14808606Y6697776D03*
G01*
X14808606Y6647764D03*
D11*
G01*
X14958593Y6497777D03*
G01*
X15008606Y6497777D03*
G01*
X15058593Y6497777D03*
G01*
X15108605Y6497777D03*
G01*
X15158593Y6497777D03*
G01*
X15208605Y6497777D03*
G01*
X15258592Y6497777D03*
G01*
X15308605Y6497777D03*
G01*
X15358592Y6497777D03*
G01*
X15408605Y6497777D03*
G01*
X15458592Y6497777D03*
G01*
X15508604Y6497777D03*
D10*
G01*
X15658591Y6647764D03*
G01*
X15658591Y6697776D03*
G01*
X15658591Y6747763D03*
G01*
X15658591Y6797776D03*
G01*
X15658591Y6847763D03*
G01*
X15658591Y6897776D03*
G01*
X15658591Y6947763D03*
G01*
X15658591Y6997776D03*
G01*
X15658591Y7047763D03*
G01*
X15658591Y7097776D03*
G01*
X15658591Y7147763D03*
G01*
X15658591Y7197775D03*
D11*
G01*
X15508604Y7347762D03*
G01*
X15458592Y7347762D03*
G01*
X15408605Y7347762D03*
G01*
X15358592Y7347762D03*
G01*
X15308605Y7347762D03*
G01*
X15258592Y7347762D03*
G01*
X15208605Y7347762D03*
G01*
X15158593Y7347762D03*
G01*
X15108605Y7347762D03*
G01*
X15058593Y7347762D03*
G01*
X15008606Y7347762D03*
G01*
X14958593Y7347762D03*
D12*
G01*
X16112967Y8007009D03*
G01*
X15858967Y8007009D03*
G01*
X15604967Y8007009D03*
G01*
X15350967Y8007009D03*
D13*
G01*
X14470971Y6749986D03*
D14*
G01*
X14470971Y6549981D03*
D15*
G01*
X14298590Y7353979D03*
D16*
G01*
X14105338Y7353979D03*
D17*
G01*
X14109339Y7107993D03*
D18*
G01*
X14302591Y7107993D03*
D19*
G01*
X14112872Y6005808D03*
D20*
G01*
X14113074Y6556166D03*
D21*
G01*
X14971598Y5906550D03*
G01*
X15021598Y5906550D03*
G01*
X15071595Y5906550D03*
G01*
X15121600Y5906550D03*
G01*
X15171600Y5906550D03*
G01*
X15221600Y5906550D03*
D22*
G01*
X15941600Y5649052D03*
D23*
G01*
X14801604Y5649004D03*
D21*
G01*
X15271589Y5906550D03*
G01*
X15321589Y5906550D03*
G01*
X15371599Y5906550D03*
G01*
X15421594Y5906550D03*
G01*
X15471592Y5906550D03*
G01*
X15521592Y5906550D03*
G01*
X15571604Y5906550D03*
G01*
X15621599Y5906550D03*
D24*
G01*
X15671598Y5906550D03*
D21*
G01*
X15721606Y5906550D03*
G01*
X15771606Y5906550D03*
D25*
G01*
X14474967Y6317982D03*
D26*
G01*
X14474967Y6111984D03*
D25*
G01*
X14719294Y7605703D03*
D26*
G01*
X14719294Y7405695D03*
D25*
G01*
X14516105Y7465994D03*
D26*
G01*
X14516105Y7265992D03*
D27*
G01*
X14252978Y8122452D03*
G01*
X15116982Y8122452D03*
D28*
G01*
X15116982Y7704444D03*
G01*
X14252978Y7704444D03*
M02*
