G04 Layer: BottomPasteMaskLayer*
G04 EasyEDA v6.5.33, 2023-07-29 01:37:07*
G04 e2284e44ffa54268a608bda52510a791,d031c0a8eb424844af7c2e53bc7358ee,10*
G04 Gerber Generator version 0.2*
G04 Scale: 100 percent, Rotated: No, Reflected: No *
G04 Dimensions in millimeters *
G04 leading zeros omitted , absolute positions ,4 integer and 5 decimal *
%FSLAX45Y45*%
%MOMM*%

%AMMACRO1*21,1,$1,$2,0,0,$3*%
%ADD10MACRO1,1.9001X2.4001X0.0000*%
%ADD11MACRO1,1.9X2.4001X0.0000*%
%ADD12MACRO1,0.3149X0.835X0.0000*%
%ADD13MACRO1,0.315X0.835X0.0000*%
%ADD14MACRO1,0.315X0.8351X0.0000*%
%ADD15MACRO1,0.3149X0.8351X0.0000*%
%ADD16MACRO1,2X1.5001X0.0000*%
%ADD17MACRO1,2X1.5X0.0000*%
%ADD18MACRO1,0.4001X1.5X0.0000*%
%ADD19MACRO1,0.3999X1.5X0.0000*%
%ADD20MACRO1,0.4X1.5X0.0000*%
%ADD21R,1.2960X1.7575*%
%ADD22MACRO1,1.2959X1.7575X0.0000*%
%ADD23MACRO1,0.3X1.15X0.0000*%
%ADD24MACRO1,0.2997X1.1481X0.0000*%

%LPD*%
G36*
X15348966Y7300468D02*
G01*
X15348966Y7255509D01*
X15303957Y7255509D01*
X15303957Y7299452D01*
X15261996Y7299959D01*
X15256967Y7294981D01*
X15256967Y7179970D01*
X15261996Y7174992D01*
X15389961Y7174992D01*
X15394990Y7179970D01*
X15394990Y7294981D01*
X15389961Y7299959D01*
G37*
G36*
X15261996Y7514996D02*
G01*
X15256967Y7509967D01*
X15256967Y7394956D01*
X15261996Y7389977D01*
X15303957Y7389977D01*
X15303957Y7434478D01*
X15348966Y7434478D01*
X15348966Y7390485D01*
X15389961Y7389977D01*
X15394990Y7394956D01*
X15394990Y7509967D01*
X15389961Y7514996D01*
G37*
G36*
X14473986Y6220968D02*
G01*
X14468957Y6215989D01*
X14468449Y6174994D01*
X14513458Y6174994D01*
X14513458Y6129985D01*
X14469465Y6129985D01*
X14468957Y6087973D01*
X14473986Y6082995D01*
X14588998Y6082995D01*
X14593976Y6087973D01*
X14593976Y6215989D01*
X14588998Y6220968D01*
G37*
G36*
X14258950Y6220968D02*
G01*
X14253972Y6215989D01*
X14253972Y6087973D01*
X14258950Y6082995D01*
X14373961Y6082995D01*
X14378990Y6087973D01*
X14378990Y6129985D01*
X14334490Y6129985D01*
X14334490Y6174994D01*
X14378482Y6174994D01*
X14378990Y6215989D01*
X14373961Y6220968D01*
G37*
G36*
X15813938Y7489494D02*
G01*
X15813938Y7444486D01*
X15768980Y7444486D01*
X15768980Y7488478D01*
X15726968Y7488986D01*
X15721990Y7484008D01*
X15721990Y7368997D01*
X15726968Y7363968D01*
X15854984Y7363968D01*
X15859963Y7368997D01*
X15859963Y7484008D01*
X15854984Y7488986D01*
G37*
G36*
X15726968Y7703972D02*
G01*
X15721990Y7698994D01*
X15721990Y7583982D01*
X15726968Y7579004D01*
X15768980Y7579004D01*
X15768980Y7623505D01*
X15813938Y7623505D01*
X15813938Y7579461D01*
X15854984Y7579004D01*
X15859963Y7583982D01*
X15859963Y7698994D01*
X15854984Y7703972D01*
G37*
G36*
X15567964Y7485481D02*
G01*
X15567964Y7440472D01*
X15522956Y7440472D01*
X15522956Y7484465D01*
X15480995Y7484973D01*
X15475966Y7479995D01*
X15475966Y7364984D01*
X15480995Y7360005D01*
X15608960Y7360005D01*
X15613989Y7364984D01*
X15613989Y7479995D01*
X15608960Y7484973D01*
G37*
G36*
X15480995Y7699959D02*
G01*
X15475966Y7694980D01*
X15475966Y7579969D01*
X15480995Y7574991D01*
X15522956Y7574991D01*
X15522956Y7619492D01*
X15567964Y7619492D01*
X15567964Y7575499D01*
X15608960Y7574991D01*
X15613989Y7579969D01*
X15613989Y7694980D01*
X15608960Y7699959D01*
G37*
G36*
X15622981Y7303973D02*
G01*
X15617951Y7298994D01*
X15617951Y7183983D01*
X15622981Y7179005D01*
X15663976Y7178497D01*
X15663976Y7223506D01*
X15708985Y7223506D01*
X15708985Y7179513D01*
X15750997Y7179005D01*
X15755975Y7183983D01*
X15755975Y7298994D01*
X15750997Y7303973D01*
G37*
G36*
X15622981Y7088987D02*
G01*
X15617951Y7084009D01*
X15617951Y6968998D01*
X15622981Y6963968D01*
X15750997Y6963968D01*
X15755975Y6968998D01*
X15755975Y7084009D01*
X15750997Y7088987D01*
X15708985Y7088987D01*
X15708985Y7044486D01*
X15663976Y7044486D01*
X15663976Y7088479D01*
G37*
G36*
X16003473Y6128969D02*
G01*
X15998444Y6123990D01*
X15998444Y5995974D01*
X16003473Y5990996D01*
X16118484Y5990996D01*
X16123462Y5995974D01*
X16123970Y6036970D01*
X16078962Y6036970D01*
X16078962Y6081979D01*
X16122954Y6081979D01*
X16123462Y6123990D01*
X16118484Y6128969D01*
G37*
G36*
X16218458Y6128969D02*
G01*
X16213480Y6123990D01*
X16213480Y6081979D01*
X16257981Y6081979D01*
X16257981Y6036970D01*
X16213988Y6036970D01*
X16213480Y5995974D01*
X16218458Y5990996D01*
X16333469Y5990996D01*
X16338448Y5995974D01*
X16338448Y6123990D01*
X16333469Y6128969D01*
G37*
G36*
X16003473Y6338976D02*
G01*
X15998444Y6333998D01*
X15998444Y6205982D01*
X16003473Y6201003D01*
X16118484Y6201003D01*
X16123462Y6205982D01*
X16123970Y6246977D01*
X16078962Y6246977D01*
X16078962Y6291986D01*
X16122954Y6291986D01*
X16123462Y6333998D01*
X16118484Y6338976D01*
G37*
G36*
X16218458Y6338976D02*
G01*
X16213480Y6333998D01*
X16213480Y6291986D01*
X16257981Y6291986D01*
X16257981Y6246977D01*
X16213988Y6246977D01*
X16213480Y6205982D01*
X16218458Y6201003D01*
X16333469Y6201003D01*
X16338448Y6205982D01*
X16338448Y6333998D01*
X16333469Y6338976D01*
G37*
G36*
X15797479Y6301994D02*
G01*
X15792500Y6297015D01*
X15791992Y6255969D01*
X15836950Y6255969D01*
X15836950Y6211011D01*
X15792957Y6211011D01*
X15792500Y6168999D01*
X15797479Y6163970D01*
X15912490Y6163970D01*
X15917468Y6168999D01*
X15917468Y6297015D01*
X15912490Y6301994D01*
G37*
G36*
X15582493Y6301994D02*
G01*
X15577464Y6297015D01*
X15577464Y6168999D01*
X15582493Y6163970D01*
X15697454Y6163970D01*
X15702483Y6168999D01*
X15702483Y6211011D01*
X15657982Y6211011D01*
X15657982Y6255969D01*
X15701975Y6255969D01*
X15702483Y6297015D01*
X15697454Y6301994D01*
G37*
G36*
X15157450Y6518960D02*
G01*
X15152471Y6513982D01*
X15152471Y6386017D01*
X15157450Y6380988D01*
X15272461Y6380988D01*
X15277439Y6386017D01*
X15277947Y6427012D01*
X15232989Y6427012D01*
X15232989Y6471970D01*
X15276982Y6471970D01*
X15277439Y6513982D01*
X15272461Y6518960D01*
G37*
G36*
X15372486Y6518960D02*
G01*
X15367457Y6513982D01*
X15367457Y6471970D01*
X15411957Y6471970D01*
X15411957Y6427012D01*
X15367965Y6427012D01*
X15367457Y6386017D01*
X15372486Y6380988D01*
X15487446Y6380988D01*
X15492476Y6386017D01*
X15492476Y6513982D01*
X15487446Y6518960D01*
G37*
G36*
X16213937Y6756501D02*
G01*
X16208959Y6751472D01*
X16208959Y6636461D01*
X16213937Y6631482D01*
X16254984Y6630974D01*
X16254984Y6675983D01*
X16299942Y6675983D01*
X16299942Y6631990D01*
X16341953Y6631482D01*
X16346982Y6636461D01*
X16346982Y6751472D01*
X16341953Y6756501D01*
G37*
G36*
X16213937Y6541465D02*
G01*
X16208959Y6536486D01*
X16208959Y6421475D01*
X16213937Y6416497D01*
X16341953Y6416497D01*
X16346982Y6421475D01*
X16346982Y6536486D01*
X16341953Y6541465D01*
X16299942Y6541465D01*
X16299942Y6496964D01*
X16254984Y6496964D01*
X16254984Y6540957D01*
G37*
G36*
X16078962Y6547002D02*
G01*
X16078962Y6501993D01*
X16033953Y6501993D01*
X16033953Y6545986D01*
X15991992Y6546494D01*
X15986963Y6541516D01*
X15986963Y6426504D01*
X15991992Y6421475D01*
X16119957Y6421475D01*
X16124986Y6426504D01*
X16124986Y6541516D01*
X16119957Y6546494D01*
G37*
G36*
X15991992Y6761480D02*
G01*
X15986963Y6756501D01*
X15986963Y6641490D01*
X15991992Y6636512D01*
X16033953Y6636512D01*
X16033953Y6681012D01*
X16078962Y6681012D01*
X16078962Y6637020D01*
X16119957Y6636512D01*
X16124986Y6641490D01*
X16124986Y6756501D01*
X16119957Y6761480D01*
G37*
D10*
G01*
X14090966Y6652991D03*
D11*
G01*
X14500970Y6652991D03*
D12*
G01*
X15976586Y7042026D03*
D13*
G01*
X16041612Y7042026D03*
G01*
X16106608Y7042026D03*
D14*
G01*
X16106608Y6873529D03*
D15*
G01*
X15976586Y6873529D03*
D16*
G01*
X15951589Y5662777D03*
D17*
G01*
X14711607Y5662775D03*
D18*
G01*
X15731610Y5922777D03*
D19*
G01*
X15631613Y5922777D03*
D18*
G01*
X15531608Y5922777D03*
D19*
G01*
X15431611Y5922777D03*
G01*
X15331612Y5922777D03*
G01*
X15231609Y5922777D03*
G01*
X15131610Y5922777D03*
G01*
X15031606Y5922777D03*
D20*
G01*
X14931605Y5922777D03*
D21*
G01*
X16266591Y7251395D03*
D22*
G01*
X16266598Y6914150D03*
D21*
G01*
X15765967Y6800616D03*
D22*
G01*
X15765961Y6463376D03*
D23*
G01*
X14349983Y7613106D03*
G01*
X14379986Y7613106D03*
G01*
X14429983Y7613360D03*
G01*
X14459986Y7613360D03*
D24*
G01*
X14509974Y7612954D03*
D23*
G01*
X14559986Y7612954D03*
G01*
X14609984Y7613106D03*
G01*
X14659984Y7612954D03*
G01*
X14709984Y7613106D03*
G01*
X14759984Y7612954D03*
D24*
G01*
X14809948Y7612954D03*
D23*
G01*
X14859984Y7612954D03*
G01*
X14909982Y7612954D03*
G01*
X14939985Y7612954D03*
G01*
X14989982Y7612954D03*
G01*
X15019985Y7612954D03*
M02*
