G04 Layer: BottomSilkscreenLayer*
G04 EasyEDA v6.5.33, 2023-07-29 01:37:07*
G04 e2284e44ffa54268a608bda52510a791,d031c0a8eb424844af7c2e53bc7358ee,10*
G04 Gerber Generator version 0.2*
G04 Scale: 100 percent, Rotated: No, Reflected: No *
G04 Dimensions in millimeters *
G04 leading zeros omitted , absolute positions ,4 integer and 5 decimal *
%FSLAX45Y45*%
%MOMM*%

%ADD10C,0.1524*%
%ADD11C,0.2540*%
%ADD12C,0.1000*%
%ADD13C,0.3000*%

%LPD*%
G36*
X14280032Y6807352D02*
G01*
X14279524Y6807098D01*
X14279778Y6803034D01*
X14279727Y6792163D01*
X14279524Y6790080D01*
X14275714Y6789318D01*
X14275714Y6788556D01*
X14285874Y6788556D01*
X14285874Y6789318D01*
X14282064Y6790080D01*
X14282064Y6805320D01*
X14285620Y6805066D01*
X14285620Y6805828D01*
G37*
G36*
X14288922Y6807098D02*
G01*
X14288922Y6806336D01*
X14291462Y6805828D01*
X14296034Y6798716D01*
X14290700Y6789826D01*
X14288414Y6789572D01*
X14288414Y6788556D01*
X14296034Y6788556D01*
X14296034Y6789572D01*
X14293494Y6789826D01*
X14297558Y6796684D01*
X14301622Y6789826D01*
X14299336Y6789572D01*
X14299336Y6788556D01*
X14305686Y6788556D01*
X14305686Y6789572D01*
X14303146Y6789826D01*
X14298066Y6797700D01*
X14303146Y6805828D01*
X14305432Y6806336D01*
X14305432Y6807098D01*
X14297558Y6807098D01*
X14297558Y6806336D01*
X14300352Y6805828D01*
X14296542Y6799732D01*
X14292732Y6805828D01*
X14295272Y6806336D01*
X14295272Y6807098D01*
G37*
G36*
X15985744Y6795516D02*
G01*
X15983102Y6795109D01*
X15981019Y6793788D01*
X15979648Y6791350D01*
X15979140Y6787642D01*
X15979140Y6776466D01*
X15981172Y6776466D01*
X15981172Y6787642D01*
X15981527Y6790486D01*
X15982492Y6792264D01*
X15983966Y6793230D01*
X15985744Y6793484D01*
X15987522Y6793230D01*
X15988995Y6792264D01*
X15989960Y6790486D01*
X15990316Y6787642D01*
X15990316Y6776466D01*
X15992348Y6776466D01*
X15992348Y6787642D01*
X15991840Y6791350D01*
X15990366Y6793788D01*
X15988284Y6795109D01*
G37*
G36*
X16015462Y6795516D02*
G01*
X16013430Y6795312D01*
X16011804Y6794703D01*
X16010534Y6793890D01*
X16009619Y6792975D01*
X16010636Y6791452D01*
X16011499Y6792366D01*
X16012566Y6793077D01*
X16013785Y6793534D01*
X16015207Y6793738D01*
X16016782Y6793484D01*
X16018103Y6792722D01*
X16018967Y6791604D01*
X16019272Y6790181D01*
X16018916Y6788607D01*
X16017849Y6787438D01*
X16015969Y6786625D01*
X16013176Y6786372D01*
X16013176Y6784594D01*
X16015716Y6784340D01*
X16017392Y6783578D01*
X16018256Y6782460D01*
X16018510Y6781038D01*
X16018256Y6779717D01*
X16017595Y6778752D01*
X16016579Y6778193D01*
X16015207Y6777990D01*
X16013125Y6778498D01*
X16011398Y6779768D01*
X16010128Y6778498D01*
X16012464Y6776872D01*
X16013785Y6776415D01*
X16015207Y6776212D01*
X16017341Y6776516D01*
X16019018Y6777431D01*
X16020135Y6778904D01*
X16020542Y6780784D01*
X16020288Y6782358D01*
X16019627Y6783628D01*
X16018611Y6784644D01*
X16017240Y6785356D01*
X16018814Y6785965D01*
X16020135Y6786981D01*
X16020999Y6788403D01*
X16021304Y6790181D01*
X16020846Y6792417D01*
X16019627Y6794093D01*
X16017748Y6795160D01*
G37*
G36*
X15997174Y6795008D02*
G01*
X15997174Y6793484D01*
X16001238Y6793484D01*
X16001238Y6779259D01*
X15997936Y6779259D01*
X15997936Y6777736D01*
X16000018Y6777278D01*
X16001746Y6776466D01*
X16003269Y6776466D01*
X16003269Y6793484D01*
X16007080Y6793484D01*
X16007080Y6795008D01*
G37*
G36*
X16023844Y6795008D02*
G01*
X16023844Y6793992D01*
X16027654Y6790283D01*
X16030346Y6787032D01*
X16031972Y6784238D01*
X16032480Y6781800D01*
X16032226Y6780225D01*
X16031565Y6779056D01*
X16030448Y6778244D01*
X16028924Y6777990D01*
X16026688Y6778548D01*
X16025723Y6779158D01*
X16024860Y6780022D01*
X16023590Y6779006D01*
X16026079Y6776923D01*
X16027552Y6776415D01*
X16029178Y6776212D01*
X16031413Y6776567D01*
X16033089Y6777634D01*
X16034156Y6779310D01*
X16034512Y6781546D01*
X16033953Y6784390D01*
X16032429Y6787337D01*
X16029990Y6790334D01*
X16026892Y6793484D01*
X16029940Y6793230D01*
X16035274Y6793230D01*
X16035274Y6795008D01*
G37*
G36*
X15364612Y7355535D02*
G01*
X15362377Y7355078D01*
X15360700Y7353808D01*
X15359634Y7351979D01*
X15359278Y7349693D01*
X15359481Y7347610D01*
X15360040Y7345984D01*
X15360853Y7344714D01*
X15361818Y7343851D01*
X15363088Y7344816D01*
X15361666Y7346746D01*
X15361208Y7347966D01*
X15361056Y7349439D01*
X15361259Y7351014D01*
X15361970Y7352284D01*
X15363088Y7353147D01*
X15364612Y7353503D01*
X15366136Y7353147D01*
X15367355Y7352030D01*
X15368117Y7350150D01*
X15368422Y7347407D01*
X15369946Y7347407D01*
X15370251Y7349947D01*
X15371063Y7351572D01*
X15372283Y7352436D01*
X15373756Y7352741D01*
X15374975Y7352487D01*
X15375940Y7351826D01*
X15376550Y7350810D01*
X15376804Y7349439D01*
X15376296Y7347305D01*
X15375026Y7345629D01*
X15376296Y7344359D01*
X15377871Y7346696D01*
X15378379Y7347966D01*
X15378582Y7349439D01*
X15378226Y7351522D01*
X15377312Y7353249D01*
X15375788Y7354366D01*
X15373756Y7354773D01*
X15372181Y7354519D01*
X15370911Y7353858D01*
X15369997Y7352842D01*
X15369438Y7351471D01*
X15369184Y7351471D01*
X15368574Y7353046D01*
X15367660Y7354316D01*
X15366288Y7355179D01*
G37*
G36*
X15359532Y7341565D02*
G01*
X15359532Y7330135D01*
X15360802Y7330135D01*
X15364358Y7334046D01*
X15367558Y7336739D01*
X15370403Y7338263D01*
X15372994Y7338771D01*
X15374416Y7338568D01*
X15375636Y7337907D01*
X15376499Y7336840D01*
X15376804Y7335215D01*
X15376601Y7334097D01*
X15375382Y7332065D01*
X15374518Y7331151D01*
X15375788Y7330135D01*
X15377718Y7332472D01*
X15378328Y7333843D01*
X15378582Y7335469D01*
X15378176Y7337653D01*
X15377007Y7339330D01*
X15375229Y7340396D01*
X15372994Y7340803D01*
X15370098Y7340244D01*
X15367203Y7338669D01*
X15364206Y7336281D01*
X15361056Y7333132D01*
X15361310Y7335570D01*
X15361310Y7341565D01*
G37*
G36*
X15359532Y7328357D02*
G01*
X15359532Y7325766D01*
X15367660Y7321245D01*
X15367660Y7317689D01*
X15369184Y7317689D01*
X15369387Y7323023D01*
X15370098Y7324547D01*
X15371318Y7325461D01*
X15372994Y7325766D01*
X15374619Y7325461D01*
X15375686Y7324547D01*
X15376347Y7323023D01*
X15376550Y7317689D01*
X15359532Y7317689D01*
X15359532Y7315657D01*
X15378074Y7315657D01*
X15378074Y7321499D01*
X15377820Y7323988D01*
X15376956Y7325969D01*
X15375382Y7327341D01*
X15372994Y7327849D01*
X15370962Y7327493D01*
X15369438Y7326630D01*
X15368371Y7325258D01*
X15367660Y7323531D01*
G37*
G36*
X14427860Y6208014D02*
G01*
X14425676Y6207607D01*
X14423999Y6206540D01*
X14422932Y6204864D01*
X14422526Y6202680D01*
X14423034Y6199784D01*
X14424507Y6196888D01*
X14426844Y6193891D01*
X14429892Y6190742D01*
X14427606Y6190996D01*
X14421510Y6190996D01*
X14421510Y6189218D01*
X14432940Y6189218D01*
X14432940Y6190488D01*
X14429181Y6194044D01*
X14426590Y6197244D01*
X14425066Y6200089D01*
X14424558Y6202680D01*
X14424761Y6204102D01*
X14425422Y6205321D01*
X14426488Y6206185D01*
X14428114Y6206490D01*
X14429232Y6206286D01*
X14431111Y6205067D01*
X14431924Y6204204D01*
X14433194Y6205474D01*
X14430857Y6207302D01*
X14429486Y6207810D01*
G37*
G36*
X14413382Y6208014D02*
G01*
X14410994Y6207404D01*
X14409166Y6205677D01*
X14407997Y6202730D01*
X14407540Y6198616D01*
X14409572Y6198616D01*
X14409877Y6202070D01*
X14410639Y6204508D01*
X14411858Y6205982D01*
X14413382Y6206490D01*
X14414804Y6205982D01*
X14415922Y6204508D01*
X14416684Y6202070D01*
X14416938Y6198616D01*
X14416684Y6194958D01*
X14415922Y6192418D01*
X14414804Y6190945D01*
X14413382Y6190488D01*
X14411858Y6190945D01*
X14410639Y6192418D01*
X14409877Y6194958D01*
X14409572Y6198616D01*
X14407540Y6198616D01*
X14407997Y6194298D01*
X14409166Y6191300D01*
X14410994Y6189522D01*
X14413382Y6188964D01*
X14415668Y6189522D01*
X14417446Y6191300D01*
X14418563Y6194298D01*
X14418970Y6198616D01*
X14418563Y6202730D01*
X14417446Y6205677D01*
X14415668Y6207404D01*
G37*
G36*
X14441830Y6207760D02*
G01*
X14439239Y6207506D01*
X14437258Y6206642D01*
X14435937Y6205067D01*
X14435480Y6202680D01*
X14437512Y6202680D01*
X14437868Y6204254D01*
X14438782Y6205270D01*
X14440204Y6205778D01*
X14442084Y6205982D01*
X14445386Y6205982D01*
X14445386Y6198870D01*
X14442084Y6198870D01*
X14440204Y6199073D01*
X14438782Y6199784D01*
X14437868Y6201003D01*
X14437512Y6202680D01*
X14435480Y6202680D01*
X14435785Y6200648D01*
X14436598Y6199124D01*
X14437969Y6198057D01*
X14439798Y6197346D01*
X14434972Y6189218D01*
X14437258Y6189218D01*
X14441830Y6197346D01*
X14445386Y6197346D01*
X14445386Y6189218D01*
X14447418Y6189218D01*
X14447418Y6207760D01*
G37*
G36*
X15824250Y7535265D02*
G01*
X15821558Y7534706D01*
X15819526Y7533335D01*
X15818307Y7531404D01*
X15817900Y7529169D01*
X15818104Y7527239D01*
X15818662Y7525664D01*
X15820440Y7523327D01*
X15821710Y7524343D01*
X15820288Y7526223D01*
X15819831Y7527493D01*
X15819678Y7528915D01*
X15819983Y7530541D01*
X15820898Y7531912D01*
X15822371Y7532878D01*
X15824250Y7533233D01*
X15826079Y7532928D01*
X15827451Y7532065D01*
X15828263Y7530744D01*
X15828568Y7529169D01*
X15828314Y7527493D01*
X15827552Y7525867D01*
X15828314Y7524851D01*
X15836950Y7525359D01*
X15836950Y7534249D01*
X15835172Y7534249D01*
X15835172Y7527137D01*
X15829330Y7526629D01*
X15830245Y7528814D01*
X15830346Y7529677D01*
X15829940Y7531811D01*
X15828822Y7533589D01*
X15826892Y7534808D01*
G37*
G36*
X15818154Y7521803D02*
G01*
X15818154Y7519517D01*
X15826282Y7514945D01*
X15826282Y7511389D01*
X15828060Y7511389D01*
X15828263Y7516672D01*
X15828975Y7518095D01*
X15830092Y7518958D01*
X15831616Y7519263D01*
X15833242Y7518958D01*
X15834360Y7518095D01*
X15834969Y7516672D01*
X15835172Y7511389D01*
X15818154Y7511389D01*
X15818154Y7509357D01*
X15836950Y7509357D01*
X15836950Y7514945D01*
X15836646Y7517536D01*
X15835680Y7519517D01*
X15834055Y7520838D01*
X15831616Y7521295D01*
X15829686Y7520990D01*
X15828213Y7520178D01*
X15827146Y7518806D01*
X15826536Y7516977D01*
G37*
G36*
X15569590Y7539634D02*
G01*
X15569590Y7537094D01*
X15564256Y7537094D01*
X15564256Y7535316D01*
X15580512Y7535316D01*
X15577718Y7533792D01*
X15571114Y7529220D01*
X15571114Y7535316D01*
X15569590Y7535316D01*
X15569590Y7526934D01*
X15570860Y7526934D01*
X15582798Y7535062D01*
X15582798Y7537094D01*
X15571114Y7537094D01*
X15571114Y7539634D01*
G37*
G36*
X15564256Y7525918D02*
G01*
X15564256Y7523378D01*
X15572384Y7518806D01*
X15572384Y7515250D01*
X15574162Y7515250D01*
X15574365Y7520533D01*
X15575026Y7522006D01*
X15576092Y7522819D01*
X15577718Y7523124D01*
X15579344Y7522819D01*
X15580461Y7522006D01*
X15581071Y7520533D01*
X15581274Y7515250D01*
X15564256Y7515250D01*
X15564256Y7513218D01*
X15582798Y7513218D01*
X15582798Y7518806D01*
X15582544Y7521448D01*
X15581680Y7523530D01*
X15580156Y7524902D01*
X15577718Y7525410D01*
X15575838Y7525105D01*
X15574314Y7524191D01*
X15573248Y7522819D01*
X15572638Y7521092D01*
G37*
G36*
X15663367Y7151776D02*
G01*
X15663367Y7149744D01*
X15672257Y7149744D01*
X15672257Y7146442D01*
X15672003Y7144410D01*
X15671292Y7142988D01*
X15670072Y7142124D01*
X15668447Y7141870D01*
X15666821Y7142124D01*
X15665805Y7142988D01*
X15665297Y7144410D01*
X15665145Y7149744D01*
X15663367Y7149744D01*
X15663367Y7146188D01*
X15663621Y7143546D01*
X15664434Y7141464D01*
X15666008Y7140092D01*
X15668447Y7139584D01*
X15670479Y7139889D01*
X15672054Y7140803D01*
X15673120Y7142124D01*
X15673781Y7143902D01*
X15681909Y7139076D01*
X15681909Y7141616D01*
X15674035Y7146188D01*
X15674035Y7149744D01*
X15681909Y7149744D01*
X15681909Y7151776D01*
G37*
G36*
X15679877Y7137806D02*
G01*
X15678353Y7136536D01*
X15679928Y7134707D01*
X15680436Y7133488D01*
X15680639Y7131964D01*
X15680334Y7130389D01*
X15679572Y7129170D01*
X15678353Y7128408D01*
X15676829Y7128154D01*
X15675254Y7128459D01*
X15674035Y7129424D01*
X15673273Y7131253D01*
X15673019Y7133996D01*
X15671495Y7133996D01*
X15671190Y7131456D01*
X15670428Y7129780D01*
X15669209Y7128916D01*
X15667685Y7128662D01*
X15666466Y7128865D01*
X15665551Y7129525D01*
X15664942Y7130592D01*
X15664637Y7131964D01*
X15665246Y7134047D01*
X15666669Y7135774D01*
X15665145Y7137044D01*
X15663621Y7134707D01*
X15663214Y7133386D01*
X15663113Y7131964D01*
X15663367Y7129830D01*
X15664230Y7128154D01*
X15665653Y7127036D01*
X15667685Y7126630D01*
X15669260Y7126833D01*
X15670530Y7127494D01*
X15671546Y7128560D01*
X15672257Y7129932D01*
X15672866Y7128306D01*
X15673882Y7127036D01*
X15675305Y7126173D01*
X15677083Y7125868D01*
X15679267Y7126325D01*
X15680944Y7127646D01*
X15682010Y7129525D01*
X15682417Y7131710D01*
X15682163Y7133742D01*
X15681604Y7135418D01*
G37*
G36*
X15409163Y5721096D02*
G01*
X15407538Y5720943D01*
X15404998Y5719826D01*
X15404084Y5719064D01*
X15405354Y5717540D01*
X15406878Y5718810D01*
X15409163Y5719318D01*
X15411602Y5718810D01*
X15413532Y5717336D01*
X15414802Y5714949D01*
X15415260Y5711698D01*
X15414853Y5708446D01*
X15413634Y5705957D01*
X15411704Y5704382D01*
X15409163Y5703824D01*
X15407894Y5703976D01*
X15405811Y5704992D01*
X15404846Y5705856D01*
X15403576Y5704586D01*
X15406116Y5702757D01*
X15407640Y5702249D01*
X15409418Y5702046D01*
X15412567Y5702706D01*
X15415056Y5704586D01*
X15416682Y5707634D01*
X15417292Y5711698D01*
X15416682Y5715609D01*
X15414955Y5718606D01*
X15412364Y5720435D01*
G37*
G36*
X15396210Y5721096D02*
G01*
X15393974Y5720740D01*
X15392298Y5719673D01*
X15391231Y5717997D01*
X15390876Y5715762D01*
X15391434Y5712917D01*
X15392958Y5709970D01*
X15395397Y5706973D01*
X15398496Y5703824D01*
X15396870Y5704027D01*
X15390113Y5704078D01*
X15390113Y5702300D01*
X15401544Y5702300D01*
X15401544Y5703570D01*
X15397734Y5707176D01*
X15395041Y5710326D01*
X15393416Y5713171D01*
X15392907Y5715762D01*
X15393162Y5717235D01*
X15393822Y5718403D01*
X15394940Y5719267D01*
X15396463Y5719572D01*
X15398699Y5718911D01*
X15400528Y5717286D01*
X15401798Y5718556D01*
X15399308Y5720384D01*
X15397835Y5720892D01*
G37*
G36*
X15435326Y5720842D02*
G01*
X15435326Y5719064D01*
X15443962Y5719064D01*
X15443962Y5712460D01*
X15436596Y5712460D01*
X15436596Y5710682D01*
X15443962Y5710682D01*
X15443962Y5702300D01*
X15445994Y5702300D01*
X15445994Y5720842D01*
G37*
G36*
X15426944Y5720842D02*
G01*
X15424150Y5720588D01*
X15422016Y5719673D01*
X15420594Y5718048D01*
X15420086Y5715508D01*
X15422118Y5715508D01*
X15422422Y5717235D01*
X15423438Y5718352D01*
X15425013Y5718911D01*
X15429992Y5719064D01*
X15429992Y5711444D01*
X15427198Y5711444D01*
X15424912Y5711698D01*
X15423337Y5712409D01*
X15422422Y5713679D01*
X15422118Y5715508D01*
X15420086Y5715508D01*
X15420543Y5713018D01*
X15421914Y5711291D01*
X15424048Y5710275D01*
X15426944Y5709920D01*
X15429992Y5709920D01*
X15429992Y5702300D01*
X15432024Y5702300D01*
X15432024Y5720842D01*
G37*
G36*
X16267684Y7104888D02*
G01*
X16267684Y7093458D01*
X16268954Y7093458D01*
X16272662Y7097217D01*
X16275812Y7099858D01*
X16278606Y7101331D01*
X16281146Y7101840D01*
X16282720Y7101636D01*
X16283889Y7101027D01*
X16284701Y7099909D01*
X16284956Y7098284D01*
X16284752Y7097166D01*
X16283584Y7095286D01*
X16282669Y7094474D01*
X16283940Y7093203D01*
X16285921Y7095591D01*
X16286530Y7096963D01*
X16286734Y7098538D01*
X16286327Y7100773D01*
X16285159Y7102449D01*
X16283432Y7103516D01*
X16281146Y7103872D01*
X16278402Y7103364D01*
X16275507Y7101890D01*
X16272510Y7099604D01*
X16269462Y7096506D01*
X16269462Y7104888D01*
G37*
G36*
X16267684Y7090409D02*
G01*
X16267684Y7080503D01*
X16269462Y7080503D01*
X16269462Y7084568D01*
X16283686Y7084568D01*
X16283686Y7081520D01*
X16284956Y7081520D01*
X16286226Y7085075D01*
X16286226Y7086853D01*
X16269462Y7086853D01*
X16269462Y7090409D01*
G37*
G36*
X16269969Y7077202D02*
G01*
X16268954Y7076135D01*
X16268141Y7074865D01*
X16267633Y7073392D01*
X16267430Y7071614D01*
X16268090Y7068464D01*
X16269969Y7065975D01*
X16273018Y7064349D01*
X16277082Y7063740D01*
X16281044Y7064349D01*
X16284092Y7065975D01*
X16286022Y7068566D01*
X16286734Y7071868D01*
X16286530Y7073442D01*
X16285210Y7075931D01*
X16284448Y7076948D01*
X16282924Y7075678D01*
X16283736Y7074865D01*
X16284600Y7072985D01*
X16284701Y7071868D01*
X16284194Y7069429D01*
X16282720Y7067499D01*
X16280333Y7066229D01*
X16277082Y7065772D01*
X16273830Y7066178D01*
X16271341Y7067397D01*
X16269766Y7069328D01*
X16269207Y7071868D01*
X16269360Y7073138D01*
X16269766Y7074204D01*
X16270478Y7075220D01*
X16271494Y7076186D01*
G37*
G36*
X16149980Y6044946D02*
G01*
X16146830Y6044336D01*
X16144290Y6042406D01*
X16142665Y6039408D01*
X16142106Y6035294D01*
X16142665Y6031331D01*
X16144341Y6028283D01*
X16146932Y6026353D01*
X16150234Y6025642D01*
X16151809Y6025896D01*
X16153231Y6026404D01*
X16155314Y6027928D01*
X16154044Y6029452D01*
X16153231Y6028639D01*
X16151301Y6027775D01*
X16150234Y6027674D01*
X16147745Y6028232D01*
X16145814Y6029706D01*
X16144595Y6032093D01*
X16144138Y6035294D01*
X16144544Y6038596D01*
X16145763Y6041085D01*
X16147643Y6042660D01*
X16150234Y6043168D01*
X16151453Y6043066D01*
X16152571Y6042609D01*
X16153587Y6041898D01*
X16154552Y6040882D01*
X16155822Y6042406D01*
X16154603Y6043472D01*
X16153282Y6044285D01*
X16151758Y6044793D01*
G37*
G36*
X16158870Y6044692D02*
G01*
X16158870Y6042914D01*
X16163188Y6042914D01*
X16163188Y6028690D01*
X16159886Y6028690D01*
X16159886Y6027420D01*
X16163696Y6026150D01*
X16165220Y6026150D01*
X16165220Y6042914D01*
X16169030Y6042914D01*
X16169030Y6044692D01*
G37*
G36*
X16172840Y6044692D02*
G01*
X16172840Y6042914D01*
X16177158Y6042914D01*
X16177158Y6028690D01*
X16173856Y6028690D01*
X16173856Y6027420D01*
X16177412Y6026150D01*
X16179190Y6026150D01*
X16179190Y6042914D01*
X16183000Y6042914D01*
X16183000Y6044692D01*
G37*
G36*
X16149980Y6245047D02*
G01*
X16146830Y6244386D01*
X16144290Y6242507D01*
X16142665Y6239510D01*
X16142106Y6235395D01*
X16142665Y6231432D01*
X16144341Y6228384D01*
X16146932Y6226454D01*
X16150234Y6225743D01*
X16151809Y6225946D01*
X16153231Y6226403D01*
X16155314Y6228029D01*
X16154044Y6229299D01*
X16152317Y6228029D01*
X16150234Y6227521D01*
X16147745Y6228080D01*
X16145814Y6229654D01*
X16144595Y6232144D01*
X16144138Y6235395D01*
X16144544Y6238697D01*
X16145763Y6241135D01*
X16147643Y6242710D01*
X16150234Y6243269D01*
X16151453Y6243116D01*
X16152571Y6242710D01*
X16153587Y6241999D01*
X16154552Y6240983D01*
X16155822Y6242253D01*
X16154603Y6243472D01*
X16153282Y6244336D01*
X16151758Y6244894D01*
G37*
G36*
X16177666Y6245047D02*
G01*
X16175228Y6244437D01*
X16173399Y6242608D01*
X16172230Y6239611D01*
X16171824Y6235395D01*
X16173856Y6235395D01*
X16174110Y6239002D01*
X16174872Y6241440D01*
X16176091Y6242862D01*
X16177666Y6243269D01*
X16179088Y6242862D01*
X16180206Y6241440D01*
X16180917Y6239002D01*
X16181222Y6235395D01*
X16180917Y6231839D01*
X16180206Y6229400D01*
X16179088Y6227978D01*
X16177666Y6227521D01*
X16176091Y6227978D01*
X16174872Y6229400D01*
X16174110Y6231839D01*
X16173856Y6235395D01*
X16171824Y6235395D01*
X16172230Y6231128D01*
X16173399Y6228130D01*
X16175228Y6226352D01*
X16177666Y6225743D01*
X16180003Y6226352D01*
X16181781Y6228130D01*
X16182848Y6231128D01*
X16183254Y6235395D01*
X16182848Y6239611D01*
X16181781Y6242608D01*
X16180003Y6244437D01*
G37*
G36*
X16158870Y6244793D02*
G01*
X16158870Y6243015D01*
X16163188Y6243015D01*
X16163188Y6228791D01*
X16159886Y6228791D01*
X16159886Y6227267D01*
X16161969Y6226860D01*
X16163696Y6225997D01*
X16165220Y6225997D01*
X16165220Y6243015D01*
X16169030Y6243015D01*
X16169030Y6244793D01*
G37*
G36*
X15763748Y6286296D02*
G01*
X15762122Y6286144D01*
X15760750Y6285687D01*
X15758668Y6284264D01*
X15759938Y6282740D01*
X15761665Y6284010D01*
X15763748Y6284518D01*
X15766186Y6284010D01*
X15768116Y6282537D01*
X15769386Y6280150D01*
X15769844Y6276898D01*
X15769437Y6273647D01*
X15768218Y6271158D01*
X15766288Y6269583D01*
X15763748Y6269024D01*
X15762478Y6269177D01*
X15760395Y6270193D01*
X15759430Y6271056D01*
X15758160Y6269786D01*
X15760700Y6267958D01*
X15762224Y6267450D01*
X15764001Y6267246D01*
X15767151Y6267907D01*
X15769640Y6269786D01*
X15771266Y6272834D01*
X15771876Y6276898D01*
X15771266Y6280810D01*
X15769640Y6283807D01*
X15767050Y6285636D01*
G37*
G36*
X15751048Y6286296D02*
G01*
X15748457Y6285788D01*
X15746425Y6284163D01*
X15745155Y6281470D01*
X15744819Y6278676D01*
X15746730Y6278676D01*
X15747136Y6281216D01*
X15748050Y6283147D01*
X15749320Y6284366D01*
X15751048Y6284772D01*
X15752267Y6284468D01*
X15753232Y6283553D01*
X15753892Y6282182D01*
X15754096Y6280454D01*
X15753892Y6278727D01*
X15753283Y6277356D01*
X15752267Y6276441D01*
X15750794Y6276136D01*
X15749778Y6276289D01*
X15748762Y6276746D01*
X15747746Y6277508D01*
X15746730Y6278676D01*
X15744819Y6278676D01*
X15744698Y6277660D01*
X15745256Y6272834D01*
X15746780Y6269583D01*
X15748965Y6267805D01*
X15751556Y6267246D01*
X15753994Y6267754D01*
X15755874Y6269024D01*
X15754604Y6270294D01*
X15753283Y6269228D01*
X15751556Y6268770D01*
X15749778Y6269228D01*
X15748304Y6270650D01*
X15747238Y6273190D01*
X15746730Y6276898D01*
X15748812Y6275273D01*
X15751048Y6274612D01*
X15753130Y6274968D01*
X15754756Y6276086D01*
X15755772Y6277914D01*
X15756128Y6280454D01*
X15755721Y6282893D01*
X15754654Y6284722D01*
X15753029Y6285890D01*
G37*
G36*
X15316657Y6389268D02*
G01*
X15313507Y6388608D01*
X15311018Y6386728D01*
X15309392Y6383680D01*
X15308783Y6379616D01*
X15309392Y6375501D01*
X15311069Y6372504D01*
X15313609Y6370574D01*
X15316911Y6369964D01*
X15318536Y6370116D01*
X15319959Y6370624D01*
X15321076Y6371336D01*
X15321991Y6372250D01*
X15320721Y6373520D01*
X15318994Y6372250D01*
X15318028Y6371844D01*
X15316911Y6371742D01*
X15314472Y6372250D01*
X15312542Y6373825D01*
X15311272Y6376314D01*
X15310815Y6379616D01*
X15311221Y6382867D01*
X15312440Y6385356D01*
X15314371Y6386931D01*
X15316911Y6387490D01*
X15318181Y6387338D01*
X15320263Y6386169D01*
X15321229Y6385204D01*
X15322499Y6386474D01*
X15321330Y6387642D01*
X15319959Y6388506D01*
X15318435Y6389065D01*
G37*
G36*
X15330373Y6389268D02*
G01*
X15328087Y6388862D01*
X15326207Y6387846D01*
X15324988Y6386271D01*
X15324531Y6384188D01*
X15326309Y6384188D01*
X15326613Y6385560D01*
X15327477Y6386728D01*
X15328798Y6387439D01*
X15330373Y6387744D01*
X15331948Y6387439D01*
X15333167Y6386728D01*
X15333929Y6385712D01*
X15334183Y6384442D01*
X15333776Y6382766D01*
X15332710Y6381546D01*
X15331084Y6380632D01*
X15329103Y6379870D01*
X15328036Y6380581D01*
X15327122Y6381546D01*
X15326563Y6382766D01*
X15326309Y6384188D01*
X15324531Y6384188D01*
X15324836Y6382461D01*
X15325598Y6381038D01*
X15327833Y6379108D01*
X15326207Y6377228D01*
X15325750Y6376060D01*
X15325547Y6374790D01*
X15327325Y6374790D01*
X15327680Y6376263D01*
X15328646Y6377381D01*
X15331643Y6378854D01*
X15333167Y6377127D01*
X15333675Y6375044D01*
X15333472Y6373723D01*
X15332811Y6372555D01*
X15331744Y6371793D01*
X15330373Y6371488D01*
X15329154Y6371691D01*
X15328188Y6372352D01*
X15327579Y6373418D01*
X15327325Y6374790D01*
X15325547Y6374790D01*
X15325902Y6372860D01*
X15326918Y6371285D01*
X15328442Y6370320D01*
X15330373Y6369964D01*
X15332557Y6370320D01*
X15334183Y6371336D01*
X15335148Y6372961D01*
X15335453Y6375044D01*
X15335250Y6376365D01*
X15334691Y6377584D01*
X15333878Y6378600D01*
X15332913Y6379362D01*
X15332913Y6379616D01*
X15334183Y6380429D01*
X15335250Y6381445D01*
X15335961Y6382715D01*
X15336215Y6384442D01*
X15335808Y6386372D01*
X15334640Y6387896D01*
X15332811Y6388862D01*
G37*
G36*
X16296792Y6612585D02*
G01*
X16292728Y6611975D01*
X16289680Y6610299D01*
X16287800Y6607759D01*
X16287140Y6604457D01*
X16287343Y6602882D01*
X16287800Y6601510D01*
X16289426Y6599377D01*
X16290696Y6600647D01*
X16289426Y6602374D01*
X16288918Y6604457D01*
X16289477Y6606895D01*
X16291051Y6608825D01*
X16293541Y6610096D01*
X16296792Y6610553D01*
X16299942Y6610146D01*
X16302329Y6608978D01*
X16303904Y6607098D01*
X16304412Y6604711D01*
X16304310Y6603288D01*
X16303904Y6602120D01*
X16302380Y6600139D01*
X16303650Y6599123D01*
X16304869Y6600190D01*
X16305733Y6601409D01*
X16306292Y6602933D01*
X16306444Y6604711D01*
X16305784Y6607860D01*
X16303802Y6610350D01*
X16300805Y6611975D01*
G37*
G36*
X16303904Y6597345D02*
G01*
X16302380Y6596329D01*
X16304006Y6594297D01*
X16304513Y6593027D01*
X16304666Y6591503D01*
X16304412Y6589928D01*
X16303650Y6588709D01*
X16302532Y6587947D01*
X16301110Y6587693D01*
X16299535Y6587998D01*
X16298214Y6588963D01*
X16297401Y6590792D01*
X16297046Y6593535D01*
X16295522Y6593535D01*
X16295268Y6591147D01*
X16294506Y6589572D01*
X16293388Y6588709D01*
X16291966Y6588455D01*
X16290645Y6588658D01*
X16289680Y6589217D01*
X16289019Y6590182D01*
X16288664Y6591503D01*
X16289324Y6593738D01*
X16289883Y6594703D01*
X16290696Y6595567D01*
X16289172Y6596583D01*
X16287800Y6594297D01*
X16287343Y6592976D01*
X16287140Y6591503D01*
X16287445Y6589369D01*
X16288308Y6587693D01*
X16289731Y6586575D01*
X16291712Y6586169D01*
X16293287Y6586423D01*
X16294607Y6587134D01*
X16295573Y6588201D01*
X16296284Y6589471D01*
X16296894Y6587998D01*
X16297960Y6586778D01*
X16299383Y6585966D01*
X16301110Y6585661D01*
X16303345Y6586118D01*
X16305022Y6587337D01*
X16306088Y6589166D01*
X16306444Y6591503D01*
X16306241Y6593433D01*
X16305682Y6595008D01*
G37*
G36*
X16007537Y6597243D02*
G01*
X16007537Y6585813D01*
X16008807Y6585813D01*
X16012363Y6589775D01*
X16015563Y6592417D01*
X16018408Y6593992D01*
X16020999Y6594449D01*
X16022421Y6594297D01*
X16023640Y6593636D01*
X16024504Y6592519D01*
X16024809Y6590893D01*
X16024606Y6589826D01*
X16024148Y6588810D01*
X16022523Y6586829D01*
X16023793Y6585813D01*
X16025622Y6588201D01*
X16026130Y6589572D01*
X16026333Y6591147D01*
X16025977Y6593382D01*
X16024910Y6595059D01*
X16023234Y6596125D01*
X16020999Y6596481D01*
X16018103Y6595973D01*
X16015207Y6594398D01*
X16012210Y6592011D01*
X16009061Y6588861D01*
X16009315Y6591300D01*
X16009315Y6597243D01*
G37*
G36*
X16009823Y6583781D02*
G01*
X16008654Y6582613D01*
X16007892Y6581292D01*
X16007435Y6579819D01*
X16007283Y6578193D01*
X16007943Y6574993D01*
X16009772Y6572453D01*
X16012718Y6570725D01*
X16016681Y6570065D01*
X16020745Y6570725D01*
X16023793Y6572453D01*
X16025672Y6574993D01*
X16026333Y6578193D01*
X16026130Y6579819D01*
X16025672Y6581241D01*
X16024910Y6582409D01*
X16024047Y6583273D01*
X16022777Y6582257D01*
X16024047Y6580530D01*
X16024555Y6578193D01*
X16023996Y6575806D01*
X16022472Y6573977D01*
X16020034Y6572808D01*
X16016935Y6572351D01*
X16013684Y6572808D01*
X16011194Y6573977D01*
X16009619Y6575806D01*
X16009061Y6578193D01*
X16009569Y6580581D01*
X16011093Y6582511D01*
G37*
G36*
X15827959Y6598462D02*
G01*
X15827959Y6588556D01*
X15829737Y6588556D01*
X15829737Y6592620D01*
X15843961Y6592620D01*
X15843961Y6589318D01*
X15845231Y6589318D01*
X15845739Y6591401D01*
X15846501Y6593128D01*
X15846501Y6594652D01*
X15829737Y6594652D01*
X15829737Y6598462D01*
G37*
G36*
X15830245Y6585254D02*
G01*
X15829026Y6584035D01*
X15828162Y6582765D01*
X15827603Y6581292D01*
X15827451Y6579666D01*
X15828111Y6576466D01*
X15830092Y6573875D01*
X15833090Y6572148D01*
X15837103Y6571538D01*
X15841167Y6572148D01*
X15844215Y6573875D01*
X15846094Y6576466D01*
X15846755Y6579666D01*
X15846551Y6581292D01*
X15846094Y6582664D01*
X15844469Y6584746D01*
X15843199Y6583730D01*
X15844469Y6582003D01*
X15844977Y6579666D01*
X15844418Y6577228D01*
X15842843Y6575399D01*
X15840456Y6574231D01*
X15837357Y6573824D01*
X15834055Y6574231D01*
X15831616Y6575399D01*
X15830042Y6577228D01*
X15829483Y6579666D01*
X15829584Y6580936D01*
X15829991Y6582105D01*
X15831515Y6583984D01*
G37*
D10*
X14425957Y7967911D02*
G01*
X14425957Y8045841D01*
X14431149Y8061426D01*
X14441540Y8071817D01*
X14457128Y8077014D01*
X14467519Y8077014D01*
X14483107Y8071817D01*
X14493496Y8061426D01*
X14498690Y8045841D01*
X14498690Y7967911D01*
X14605721Y7983494D02*
G01*
X14595330Y7973103D01*
X14579739Y7967911D01*
X14558959Y7967911D01*
X14543374Y7973103D01*
X14532983Y7983494D01*
X14532983Y7993882D01*
X14538180Y8004276D01*
X14543374Y8009478D01*
X14553763Y8014667D01*
X14584936Y8025061D01*
X14595330Y8030253D01*
X14600524Y8035455D01*
X14605721Y8045841D01*
X14605721Y8061426D01*
X14595330Y8071817D01*
X14579739Y8077014D01*
X14558959Y8077014D01*
X14543374Y8071817D01*
X14532983Y8061426D01*
X14640008Y7967911D02*
G01*
X14640008Y8077014D01*
X14640008Y7967911D02*
G01*
X14686767Y7967911D01*
X14702355Y7973103D01*
X14707549Y7978305D01*
X14712746Y7988691D01*
X14712746Y7999084D01*
X14707549Y8009478D01*
X14702355Y8014667D01*
X14686767Y8019864D01*
X14640008Y8019864D02*
G01*
X14686767Y8019864D01*
X14702355Y8025061D01*
X14707549Y8030253D01*
X14712746Y8040644D01*
X14712746Y8056234D01*
X14707549Y8066628D01*
X14702355Y8071817D01*
X14686767Y8077014D01*
X14640008Y8077014D01*
X14824969Y7993882D02*
G01*
X14819772Y7983494D01*
X14809381Y7973103D01*
X14798989Y7967911D01*
X14778210Y7967911D01*
X14767819Y7973103D01*
X14757425Y7983494D01*
X14752231Y7993882D01*
X14747034Y8009478D01*
X14747034Y8035455D01*
X14752231Y8051032D01*
X14757425Y8061426D01*
X14767819Y8071817D01*
X14778210Y8077014D01*
X14798989Y8077014D01*
X14809381Y8071817D01*
X14819772Y8061426D01*
X14824969Y8051032D01*
X14859256Y7988691D02*
G01*
X14869647Y7983494D01*
X14885235Y7967911D01*
X14885235Y8077014D01*
G36*
X16346627Y7288479D02*
G01*
X16346627Y7242759D01*
X16361867Y7242759D01*
X16361867Y7288479D01*
G37*
G36*
X16171367Y7288479D02*
G01*
X16171367Y7242759D01*
X16186556Y7242759D01*
X16186556Y7288479D01*
G37*
G36*
X15845993Y6837730D02*
G01*
X15845993Y6792010D01*
X15861182Y6792010D01*
X15861182Y6837730D01*
G37*
G36*
X15670733Y6837730D02*
G01*
X15670733Y6792010D01*
X15685922Y6792010D01*
X15685922Y6837730D01*
G37*
D11*
X13963492Y6582991D02*
G01*
X13963492Y6467980D01*
X14628454Y6467980D01*
X14628454Y6582991D01*
X14628454Y6722996D02*
G01*
X14628454Y6837982D01*
X13963492Y6837982D01*
X13963492Y6722996D01*
X13963469Y6722988D02*
G01*
X13963469Y6582991D01*
X14628472Y6582991D02*
G01*
X14628472Y6722988D01*
D12*
X14234223Y6652049D02*
G01*
X14204226Y6652049D01*
X14244228Y6752051D02*
G01*
X14244228Y6542044D01*
X14314238Y6742038D02*
G01*
X14314238Y6552049D01*
X14274231Y6552049D01*
X14274231Y6742038D01*
X14314238Y6742038D01*
X14344235Y6752051D02*
G01*
X14344235Y6542044D01*
X14389953Y6652986D02*
G01*
X14354388Y6652986D01*
D10*
X16149220Y7027887D02*
G01*
X16149220Y6887657D01*
X15933971Y7027887D02*
G01*
X15933971Y6887657D01*
X16067984Y6887657D02*
G01*
X16015208Y6887657D01*
X15234259Y7392609D02*
G01*
X15234259Y7521100D01*
X15417678Y7521100D01*
X15417678Y7392609D01*
X15234259Y7297364D02*
G01*
X15234259Y7168868D01*
X15417678Y7168868D01*
X15417678Y7297364D01*
X14376346Y6060277D02*
G01*
X14247860Y6060277D01*
X14247860Y6243690D01*
X14376346Y6243690D01*
X14471596Y6060277D02*
G01*
X14600092Y6060277D01*
X14600092Y6243690D01*
X14471596Y6243690D01*
X15699259Y7581592D02*
G01*
X15699259Y7710088D01*
X15882678Y7710088D01*
X15882678Y7581592D01*
X15699259Y7486365D02*
G01*
X15699259Y7357869D01*
X15882678Y7357869D01*
X15882678Y7486365D01*
X15453260Y7577592D02*
G01*
X15453260Y7706088D01*
X15636679Y7706088D01*
X15636679Y7577592D01*
X15453260Y7482365D02*
G01*
X15453260Y7353868D01*
X15636679Y7353868D01*
X15636679Y7482365D01*
X15778678Y7086373D02*
G01*
X15778678Y6957877D01*
X15595259Y6957877D01*
X15595259Y7086373D01*
X15778678Y7181611D02*
G01*
X15778678Y7310107D01*
X15595259Y7310107D01*
X15595259Y7181611D01*
D11*
X16031311Y5358523D02*
G01*
X14641301Y5358523D01*
X16026594Y5760897D02*
G01*
X16026594Y5919767D01*
X15774718Y5919767D01*
X16026594Y5373575D02*
G01*
X16026594Y5564670D01*
X14636607Y5760880D02*
G01*
X14636607Y5922777D01*
X14888494Y5922777D01*
X14636607Y5373575D02*
G01*
X14636607Y5564652D01*
D10*
X16354224Y6915152D02*
G01*
X16354224Y7250389D01*
X16178971Y6915152D02*
G01*
X16178971Y7250389D01*
X16354224Y7143198D02*
G01*
X16178971Y7143198D01*
X16347092Y5971613D02*
G01*
X16206088Y5971613D01*
X16206088Y6152337D02*
G01*
X16347092Y6152337D01*
X16362326Y6137107D02*
G01*
X16362326Y5986866D01*
X15984844Y5971613D02*
G01*
X16125858Y5971613D01*
X16125858Y6152337D02*
G01*
X15984844Y6152337D01*
X15969609Y6137107D02*
G01*
X15969609Y5986866D01*
X16347092Y6181636D02*
G01*
X16206088Y6181636D01*
X16206088Y6362354D02*
G01*
X16347092Y6362354D01*
X16362326Y6347106D02*
G01*
X16362326Y6196865D01*
X15984844Y6181636D02*
G01*
X16125858Y6181636D01*
X16125858Y6362354D02*
G01*
X15984844Y6362354D01*
X15969609Y6347106D02*
G01*
X15969609Y6196865D01*
X15568846Y6321356D02*
G01*
X15709844Y6321356D01*
X15709844Y6140632D02*
G01*
X15568846Y6140632D01*
X15553611Y6155867D02*
G01*
X15553611Y6306108D01*
X15931093Y6321356D02*
G01*
X15790090Y6321356D01*
X15790090Y6140632D02*
G01*
X15931093Y6140632D01*
X15946328Y6155867D02*
G01*
X15946328Y6306108D01*
X15501091Y6361635D02*
G01*
X15360093Y6361635D01*
X15360093Y6542354D02*
G01*
X15501091Y6542354D01*
X15516326Y6527106D02*
G01*
X15516326Y6376865D01*
X15138844Y6361635D02*
G01*
X15279847Y6361635D01*
X15279847Y6542354D02*
G01*
X15138844Y6542354D01*
X15123609Y6527106D02*
G01*
X15123609Y6376865D01*
X16189599Y6407856D02*
G01*
X16189599Y6548869D01*
X16370322Y6548869D02*
G01*
X16370322Y6407856D01*
X16355087Y6392626D02*
G01*
X16204846Y6392626D01*
X16189599Y6770108D02*
G01*
X16189599Y6629095D01*
X16370322Y6629095D02*
G01*
X16370322Y6770108D01*
X16355087Y6785338D02*
G01*
X16204846Y6785338D01*
X16144341Y6770115D02*
G01*
X16144341Y6629112D01*
X15963618Y6629112D02*
G01*
X15963618Y6770115D01*
X15978852Y6785355D02*
G01*
X16129093Y6785355D01*
X16144341Y6407873D02*
G01*
X16144341Y6548876D01*
X15963618Y6548876D02*
G01*
X15963618Y6407873D01*
X15978852Y6392638D02*
G01*
X16129093Y6392638D01*
X15853587Y6464378D02*
G01*
X15853587Y6799615D01*
X15678335Y6464378D02*
G01*
X15678335Y6799615D01*
X15853587Y6692425D02*
G01*
X15678335Y6692425D01*
D11*
X14809670Y7612740D02*
G01*
X14809670Y7737741D01*
X14984671Y7737741D01*
X14984671Y7612740D01*
X14384982Y7612951D02*
G01*
X14384982Y7737947D01*
X14559983Y7737947D01*
X14559983Y7612951D01*
X15116980Y8357956D02*
G01*
X14252981Y8357951D01*
X14252981Y8357951D02*
G01*
X14252981Y7612951D01*
X15116980Y7612951D02*
G01*
X15116980Y8357956D01*
X14252981Y7612951D02*
G01*
X15116980Y7612951D01*
D10*
G75*
G01*
X16347092Y6152337D02*
G02*
X16362327Y6137107I-5J-15240D01*
G75*
G01*
X16362327Y5986866D02*
G02*
X16347092Y5971614I-15240J-12D01*
G75*
G01*
X15984845Y6152337D02*
G03*
X15969610Y6137107I5J-15240D01*
G75*
G01*
X15969610Y5986866D02*
G03*
X15984845Y5971614I15240J-12D01*
G75*
G01*
X16347092Y6362355D02*
G02*
X16362327Y6347107I-5J-15240D01*
G75*
G01*
X16362327Y6196866D02*
G02*
X16347092Y6181636I-15240J10D01*
G75*
G01*
X15984845Y6362355D02*
G03*
X15969610Y6347107I5J-15240D01*
G75*
G01*
X15969610Y6196866D02*
G03*
X15984845Y6181636I15240J10D01*
G75*
G01*
X15568846Y6140633D02*
G02*
X15553611Y6155868I5J15240D01*
G75*
G01*
X15553611Y6306109D02*
G02*
X15568846Y6321356I15240J7D01*
G75*
G01*
X15931093Y6140633D02*
G03*
X15946328Y6155868I-5J15240D01*
G75*
G01*
X15946328Y6306109D02*
G03*
X15931093Y6321356I-15240J7D01*
G75*
G01*
X15501092Y6542354D02*
G02*
X15516327Y6527107I-5J-15240D01*
G75*
G01*
X15516327Y6376866D02*
G02*
X15501092Y6361636I-15240J10D01*
G75*
G01*
X15138844Y6542354D02*
G03*
X15123610Y6527107I6J-15240D01*
G75*
G01*
X15123610Y6376866D02*
G03*
X15138844Y6361636I15240J10D01*
G75*
G01*
X16370323Y6407856D02*
G02*
X16355088Y6392626I-15240J10D01*
G75*
G01*
X16204847Y6392626D02*
G02*
X16189599Y6407856I-8J15240D01*
G75*
G01*
X16370323Y6770108D02*
G03*
X16355088Y6785338I-15240J-10D01*
G75*
G01*
X16204847Y6785338D02*
G03*
X16189599Y6770108I-8J-15240D01*
G75*
G01*
X15963618Y6770116D02*
G02*
X15978853Y6785356I15240J0D01*
G75*
G01*
X16129094Y6785356D02*
G02*
X16144342Y6770116I8J-15240D01*
G75*
G01*
X15963618Y6407874D02*
G03*
X15978853Y6392639I15240J5D01*
G75*
G01*
X16129094Y6392639D02*
G03*
X16144342Y6407874I8J15240D01*
D13*
G75*
G01
X15930626Y7057288D02*
G03X15930626Y7057288I-15011J0D01*
D11*
G75*
G01
X14866061Y5973572D02*
G03X14866061Y5973572I-17958J0D01*
M02*
