G04 Layer: TopSilkscreenLayer*
G04 EasyEDA v6.5.33, 2023-07-29 01:37:07*
G04 e2284e44ffa54268a608bda52510a791,d031c0a8eb424844af7c2e53bc7358ee,10*
G04 Gerber Generator version 0.2*
G04 Scale: 100 percent, Rotated: No, Reflected: No *
G04 Dimensions in millimeters *
G04 leading zeros omitted , absolute positions ,4 integer and 5 decimal *
%FSLAX45Y45*%
%MOMM*%

%ADD10C,0.2000*%
%ADD11C,0.2540*%
%ADD12C,0.1524*%
%ADD13C,0.2500*%
%ADD14C,0.4000*%
%ADD15C,0.0162*%

%LPD*%
G36*
X15351760Y6983984D02*
G01*
X15351506Y6981698D01*
X15341092Y6981698D01*
X15337637Y6981190D01*
X15335300Y6979818D01*
X15333929Y6977634D01*
X15333472Y6974840D01*
X15333929Y6972198D01*
X15335351Y6970115D01*
X15337840Y6968744D01*
X15341600Y6968236D01*
X15351251Y6968236D01*
X15351760Y6965696D01*
X15352522Y6965696D01*
X15352522Y6972553D01*
X15351760Y6972553D01*
X15351251Y6969506D01*
X15342107Y6969506D01*
X15339060Y6969810D01*
X15336977Y6970674D01*
X15335859Y6972198D01*
X15335504Y6974331D01*
X15335808Y6976262D01*
X15336875Y6977786D01*
X15338806Y6978802D01*
X15341854Y6979158D01*
X15351251Y6978903D01*
X15351760Y6976109D01*
X15352522Y6976109D01*
X15352522Y6983984D01*
G37*
G36*
X15333980Y6962648D02*
G01*
X15333980Y6952488D01*
X15334996Y6952488D01*
X15335504Y6956298D01*
X15352522Y6956298D01*
X15352776Y6956806D01*
X15351506Y6962394D01*
X15350490Y6962394D01*
X15350744Y6958838D01*
X15335504Y6958838D01*
X15334996Y6962648D01*
G37*
G36*
X15337536Y6949694D02*
G01*
X15335757Y6949033D01*
X15334589Y6947865D01*
X15333929Y6946290D01*
X15333726Y6944359D01*
X15334081Y6941769D01*
X15335148Y6939737D01*
X15336824Y6938467D01*
X15339060Y6938009D01*
X15340685Y6938314D01*
X15342158Y6939178D01*
X15343225Y6940600D01*
X15343886Y6942581D01*
X15344648Y6940905D01*
X15345714Y6939737D01*
X15346984Y6939025D01*
X15348457Y6938772D01*
X15350337Y6939127D01*
X15351810Y6940194D01*
X15352725Y6941769D01*
X15353030Y6943852D01*
X15352776Y6945680D01*
X15352115Y6947255D01*
X15350998Y6948474D01*
X15349474Y6949186D01*
X15348661Y6948627D01*
X15348457Y6947916D01*
X15348864Y6946849D01*
X15351760Y6945884D01*
X15352013Y6944359D01*
X15351760Y6942988D01*
X15351048Y6941921D01*
X15349880Y6941312D01*
X15348204Y6941058D01*
X15346629Y6941312D01*
X15345460Y6942124D01*
X15344648Y6943394D01*
X15344394Y6946138D01*
X15343124Y6946138D01*
X15342869Y6943039D01*
X15342057Y6941667D01*
X15340787Y6940854D01*
X15339060Y6940550D01*
X15337332Y6940803D01*
X15335961Y6941616D01*
X15335046Y6942886D01*
X15334742Y6945020D01*
X15334996Y6946392D01*
X15336519Y6946646D01*
X15337891Y6947357D01*
X15338196Y6947763D01*
X15338247Y6948779D01*
G37*
G36*
X15337536Y6935724D02*
G01*
X15335757Y6935063D01*
X15334589Y6933895D01*
X15333929Y6932320D01*
X15333726Y6930390D01*
X15334081Y6927799D01*
X15335148Y6925767D01*
X15336824Y6924497D01*
X15339060Y6924040D01*
X15340685Y6924344D01*
X15342158Y6925157D01*
X15343225Y6926630D01*
X15343886Y6928612D01*
X15344648Y6926935D01*
X15345714Y6925767D01*
X15346984Y6925056D01*
X15348457Y6924802D01*
X15350337Y6925157D01*
X15351810Y6926224D01*
X15352725Y6927799D01*
X15353030Y6929881D01*
X15352776Y6931812D01*
X15352115Y6933387D01*
X15350998Y6934555D01*
X15349474Y6935216D01*
X15348661Y6934657D01*
X15348457Y6933946D01*
X15348864Y6932879D01*
X15351760Y6931914D01*
X15352013Y6930390D01*
X15351760Y6929018D01*
X15351048Y6928002D01*
X15349880Y6927342D01*
X15348204Y6927088D01*
X15346629Y6927342D01*
X15345460Y6928154D01*
X15344648Y6929424D01*
X15344394Y6932168D01*
X15343124Y6932168D01*
X15342869Y6929069D01*
X15342057Y6927697D01*
X15340787Y6926884D01*
X15339060Y6926580D01*
X15337332Y6926834D01*
X15335961Y6927646D01*
X15335046Y6928916D01*
X15334742Y6931152D01*
X15334996Y6932422D01*
X15337891Y6933387D01*
X15338298Y6934453D01*
X15338094Y6935165D01*
G37*
G36*
X15773603Y7818272D02*
G01*
X15770961Y7817815D01*
X15768878Y7816392D01*
X15767507Y7813852D01*
X15766999Y7810144D01*
X15766999Y7800492D01*
X15764459Y7800238D01*
X15764459Y7799222D01*
X15771063Y7799222D01*
X15771063Y7800238D01*
X15768269Y7800492D01*
X15768269Y7809636D01*
X15768574Y7812735D01*
X15769488Y7814868D01*
X15770961Y7816088D01*
X15773095Y7816494D01*
X15775025Y7816189D01*
X15776448Y7815122D01*
X15777362Y7813141D01*
X15777667Y7810144D01*
X15777667Y7800492D01*
X15774873Y7800238D01*
X15774873Y7799222D01*
X15782747Y7799222D01*
X15782747Y7800238D01*
X15780461Y7800492D01*
X15780207Y7810652D01*
X15779750Y7814106D01*
X15778429Y7816443D01*
X15776346Y7817815D01*
G37*
G36*
X15743123Y7818272D02*
G01*
X15740532Y7817866D01*
X15738551Y7816748D01*
X15737230Y7815072D01*
X15736773Y7812938D01*
X15737078Y7811160D01*
X15737941Y7809738D01*
X15739363Y7808620D01*
X15741345Y7807858D01*
X15739719Y7807147D01*
X15738500Y7806131D01*
X15737789Y7804861D01*
X15737535Y7803286D01*
X15737941Y7801508D01*
X15738957Y7800035D01*
X15740532Y7799070D01*
X15742615Y7798714D01*
X15744444Y7798917D01*
X15746069Y7799628D01*
X15747288Y7800746D01*
X15747949Y7802270D01*
X15747441Y7803032D01*
X15746679Y7803286D01*
X15745612Y7802880D01*
X15744901Y7801762D01*
X15744647Y7799984D01*
X15741751Y7800187D01*
X15740735Y7800898D01*
X15740075Y7802016D01*
X15739821Y7803540D01*
X15740126Y7805216D01*
X15740938Y7806385D01*
X15742208Y7807096D01*
X15744901Y7807350D01*
X15744901Y7808620D01*
X15741700Y7808874D01*
X15740329Y7809738D01*
X15739567Y7811058D01*
X15739313Y7812938D01*
X15739618Y7814513D01*
X15740430Y7815834D01*
X15741700Y7816697D01*
X15743377Y7817002D01*
X15745155Y7817002D01*
X15745409Y7815224D01*
X15746120Y7813852D01*
X15746933Y7813446D01*
X15747796Y7813649D01*
X15748457Y7814208D01*
X15747847Y7816037D01*
X15746679Y7817256D01*
X15745104Y7818018D01*
G37*
G36*
X15751251Y7817764D02*
G01*
X15751251Y7817002D01*
X15755061Y7816494D01*
X15755061Y7799222D01*
X15755315Y7798968D01*
X15761157Y7800492D01*
X15761157Y7801254D01*
X15757347Y7801000D01*
X15757398Y7813040D01*
X15757601Y7816494D01*
X15761411Y7817002D01*
X15761411Y7817764D01*
G37*
G36*
X15723311Y7817764D02*
G01*
X15723311Y7817002D01*
X15727121Y7816494D01*
X15727375Y7803286D01*
X15727121Y7799222D01*
X15727629Y7798968D01*
X15733217Y7800492D01*
X15733217Y7801254D01*
X15729661Y7801000D01*
X15729661Y7816494D01*
X15733471Y7817002D01*
X15733471Y7817764D01*
G37*
G36*
X14422475Y6656273D02*
G01*
X14420748Y6656019D01*
X14419326Y6655308D01*
X14418157Y6654038D01*
X14417141Y6652209D01*
X14415973Y6653784D01*
X14414754Y6654800D01*
X14413534Y6655358D01*
X14412315Y6655511D01*
X14410588Y6655206D01*
X14409216Y6654241D01*
X14408302Y6652717D01*
X14407997Y6650685D01*
X14409267Y6650685D01*
X14409521Y6651853D01*
X14410232Y6652768D01*
X14411198Y6653275D01*
X14412315Y6653479D01*
X14413585Y6653377D01*
X14414652Y6653022D01*
X14415668Y6652310D01*
X14416633Y6651193D01*
X14415923Y6649923D01*
X14418411Y6649923D01*
X14419529Y6652006D01*
X14420596Y6653326D01*
X14421662Y6654038D01*
X14422729Y6654241D01*
X14424253Y6653987D01*
X14425371Y6653225D01*
X14426082Y6652107D01*
X14426285Y6650685D01*
X14426031Y6649262D01*
X14425269Y6648145D01*
X14424050Y6647383D01*
X14422475Y6647129D01*
X14421256Y6647332D01*
X14420189Y6647840D01*
X14419224Y6648754D01*
X14418411Y6649923D01*
X14415923Y6649923D01*
X14414550Y6648348D01*
X14413382Y6647789D01*
X14412061Y6647637D01*
X14410893Y6647891D01*
X14410029Y6648602D01*
X14409470Y6649567D01*
X14409267Y6650685D01*
X14407997Y6650685D01*
X14408353Y6648703D01*
X14409267Y6647078D01*
X14410690Y6646011D01*
X14412569Y6645605D01*
X14414195Y6645808D01*
X14415617Y6646418D01*
X14416887Y6647434D01*
X14417903Y6648907D01*
X14418919Y6647230D01*
X14420037Y6645909D01*
X14421307Y6645148D01*
X14422729Y6644843D01*
X14424761Y6645300D01*
X14426184Y6646519D01*
X14427047Y6648399D01*
X14427301Y6650685D01*
X14426996Y6652971D01*
X14426031Y6654698D01*
X14424507Y6655866D01*
G37*
G36*
X14426031Y6643319D02*
G01*
X14425777Y6641287D01*
X14420138Y6639306D01*
X14419122Y6638594D01*
X14418411Y6637680D01*
X14417903Y6636461D01*
X14417294Y6638594D01*
X14416278Y6640118D01*
X14414957Y6640982D01*
X14413331Y6641287D01*
X14411299Y6640830D01*
X14409775Y6639509D01*
X14408861Y6637426D01*
X14408505Y6634683D01*
X14408505Y6632143D01*
X14409521Y6632143D01*
X14409521Y6634429D01*
X14409775Y6636410D01*
X14410486Y6637731D01*
X14411655Y6638493D01*
X14413331Y6638747D01*
X14414957Y6638442D01*
X14416227Y6637629D01*
X14417090Y6636156D01*
X14417395Y6634175D01*
X14417395Y6631889D01*
X14408505Y6632143D01*
X14408505Y6626809D01*
X14409267Y6626809D01*
X14409775Y6629349D01*
X14420342Y6629603D01*
X14425777Y6629349D01*
X14426031Y6626809D01*
X14427047Y6626809D01*
X14427047Y6634683D01*
X14426031Y6634683D01*
X14425777Y6632143D01*
X14418411Y6631889D01*
X14418563Y6634886D01*
X14418970Y6636003D01*
X14419834Y6636715D01*
X14426336Y6638798D01*
X14426895Y6639306D01*
X14427200Y6640118D01*
X14427301Y6642404D01*
X14427047Y6643319D01*
G37*
G36*
X14177822Y7436053D02*
G01*
X14177822Y7435240D01*
X14180362Y7434732D01*
X14180362Y7427163D01*
X14182902Y7427163D01*
X14183156Y7435037D01*
X14185442Y7435037D01*
X14187424Y7434783D01*
X14188744Y7434072D01*
X14189557Y7432852D01*
X14189760Y7431227D01*
X14189506Y7429601D01*
X14188643Y7428331D01*
X14187220Y7427468D01*
X14185188Y7427163D01*
X14180362Y7427163D01*
X14180362Y7418781D01*
X14177822Y7418527D01*
X14177822Y7417511D01*
X14185696Y7417511D01*
X14185696Y7418527D01*
X14183156Y7418781D01*
X14182902Y7426147D01*
X14185950Y7425994D01*
X14187017Y7425588D01*
X14187779Y7424724D01*
X14189811Y7418171D01*
X14190370Y7417663D01*
X14191183Y7417308D01*
X14194332Y7417511D01*
X14194332Y7418527D01*
X14192046Y7418781D01*
X14190319Y7424420D01*
X14189608Y7425436D01*
X14188694Y7426147D01*
X14187474Y7426655D01*
X14189659Y7427214D01*
X14191132Y7428230D01*
X14192046Y7429601D01*
X14192300Y7431227D01*
X14191843Y7433259D01*
X14190522Y7434783D01*
X14188440Y7435697D01*
X14185696Y7436053D01*
G37*
G36*
X14196110Y7436053D02*
G01*
X14196110Y7434021D01*
X14205762Y7434021D01*
X14198396Y7417714D01*
X14198650Y7417511D01*
X14200682Y7417511D01*
X14207286Y7434732D01*
X14207286Y7436053D01*
G37*
G36*
X14214703Y7101331D02*
G01*
X14213890Y7101078D01*
X14213890Y7100062D01*
X14215922Y7099808D01*
X14217192Y7095490D01*
X14218462Y7093153D01*
X14219326Y7092442D01*
X14220494Y7091934D01*
X14218462Y7091324D01*
X14216938Y7090257D01*
X14215973Y7088886D01*
X14215668Y7087362D01*
X14218462Y7087362D01*
X14218767Y7088987D01*
X14219580Y7090257D01*
X14220951Y7091121D01*
X14222780Y7091425D01*
X14225066Y7091425D01*
X14225066Y7083552D01*
X14222526Y7083552D01*
X14220698Y7083806D01*
X14219428Y7084517D01*
X14218716Y7085685D01*
X14218462Y7087362D01*
X14215668Y7087362D01*
X14216126Y7085330D01*
X14217497Y7083806D01*
X14219631Y7082891D01*
X14222526Y7082536D01*
X14230400Y7082536D01*
X14230400Y7083298D01*
X14227606Y7083552D01*
X14227606Y7099808D01*
X14230400Y7100062D01*
X14230400Y7101078D01*
X14222526Y7101078D01*
X14222526Y7100062D01*
X14225066Y7099808D01*
X14225066Y7092442D01*
X14222069Y7092594D01*
X14221053Y7093000D01*
X14220342Y7093864D01*
X14219732Y7095236D01*
X14218412Y7100366D01*
X14217904Y7100925D01*
X14217091Y7101230D01*
G37*
G36*
X14206270Y7101331D02*
G01*
X14203984Y7100976D01*
X14202257Y7099808D01*
X14201089Y7097928D01*
X14200759Y7095744D01*
X14202968Y7095744D01*
X14203222Y7097775D01*
X14203883Y7099198D01*
X14204899Y7100062D01*
X14206270Y7100316D01*
X14207794Y7099909D01*
X14208912Y7098588D01*
X14209572Y7096353D01*
X14209826Y7092442D01*
X14208150Y7091425D01*
X14206270Y7091172D01*
X14204899Y7091476D01*
X14203883Y7092340D01*
X14203222Y7093762D01*
X14202968Y7095744D01*
X14200759Y7095744D01*
X14200682Y7095236D01*
X14201038Y7093000D01*
X14202054Y7091222D01*
X14203578Y7090054D01*
X14205508Y7089648D01*
X14207744Y7090156D01*
X14209826Y7091425D01*
X14209064Y7088327D01*
X14207439Y7085888D01*
X14204950Y7084059D01*
X14201444Y7082790D01*
X14201444Y7082028D01*
X14206169Y7083348D01*
X14209572Y7085838D01*
X14211655Y7089343D01*
X14212366Y7093458D01*
X14211960Y7096861D01*
X14210741Y7099300D01*
X14208810Y7100824D01*
G37*
G36*
X13977010Y6071158D02*
G01*
X13976502Y6067348D01*
X13959230Y6067348D01*
X13958976Y6067094D01*
X13960500Y6061252D01*
X13961262Y6061252D01*
X13961008Y6065062D01*
X13976502Y6065062D01*
X13977010Y6060998D01*
X13977772Y6060998D01*
X13977772Y6071158D01*
G37*
G36*
X13959230Y6058712D02*
G01*
X13959230Y6052362D01*
X13960246Y6052362D01*
X13960500Y6054902D01*
X13969136Y6050838D01*
X13960500Y6046774D01*
X13960246Y6049568D01*
X13959230Y6049568D01*
X13959230Y6041694D01*
X13960246Y6041694D01*
X13960246Y6043980D01*
X13970406Y6048806D01*
X13976502Y6048806D01*
X13976756Y6046012D01*
X13977772Y6046012D01*
X13977772Y6054394D01*
X13976756Y6054394D01*
X13976502Y6051346D01*
X13970406Y6051346D01*
X13960500Y6056172D01*
X13960246Y6058712D01*
G37*
G36*
X13972946Y6040678D02*
G01*
X13972946Y6039154D01*
X13976502Y6038646D01*
X13976502Y6031534D01*
X13968882Y6031280D01*
X13968882Y6035598D01*
X13971676Y6035852D01*
X13971676Y6037122D01*
X13965072Y6037122D01*
X13965072Y6035852D01*
X13967866Y6035598D01*
X13967866Y6031280D01*
X13960500Y6031534D01*
X13960500Y6038138D01*
X13964056Y6038646D01*
X13964056Y6040170D01*
X13959230Y6039916D01*
X13959230Y6026200D01*
X13960246Y6026200D01*
X13960500Y6028740D01*
X13976502Y6028740D01*
X13976756Y6026200D01*
X13977772Y6026200D01*
X13977772Y6040424D01*
G37*
G36*
X13976756Y6024930D02*
G01*
X13976502Y6022644D01*
X13966088Y6017056D01*
X13960500Y6021628D01*
X13960246Y6024422D01*
X13959230Y6024422D01*
X13959230Y6018072D01*
X13960246Y6018072D01*
X13960500Y6020104D01*
X13969644Y6012738D01*
X13960500Y6012738D01*
X13960246Y6015532D01*
X13959230Y6015532D01*
X13959230Y6007658D01*
X13960246Y6007658D01*
X13960500Y6010198D01*
X13976502Y6010198D01*
X13976756Y6007658D01*
X13977772Y6007658D01*
X13977772Y6015278D01*
X13976756Y6015278D01*
X13976502Y6012738D01*
X13971422Y6012738D01*
X13968120Y6015532D01*
X13976502Y6020104D01*
X13976756Y6017818D01*
X13977772Y6017818D01*
X13977772Y6024930D01*
G37*
G36*
X15185644Y5599938D02*
G01*
X15182748Y5599531D01*
X15180056Y5598414D01*
X15180056Y5594350D01*
X15181580Y5594350D01*
X15182088Y5597906D01*
X15183815Y5598464D01*
X15185390Y5598668D01*
X15188184Y5598109D01*
X15190368Y5596432D01*
X15191740Y5593740D01*
X15192248Y5590032D01*
X15191689Y5586374D01*
X15190266Y5583732D01*
X15188082Y5582158D01*
X15185390Y5581650D01*
X15182342Y5582158D01*
X15181834Y5585714D01*
X15180310Y5585714D01*
X15180310Y5581650D01*
X15182951Y5580634D01*
X15185644Y5580380D01*
X15189352Y5581091D01*
X15192349Y5583123D01*
X15194330Y5586171D01*
X15195042Y5590032D01*
X15194381Y5594045D01*
X15192451Y5597194D01*
X15189454Y5599226D01*
G37*
G36*
X15219426Y5599430D02*
G01*
X15219426Y5598414D01*
X15222219Y5598160D01*
X15222219Y5590540D01*
X15217901Y5590540D01*
X15217394Y5593334D01*
X15216378Y5593334D01*
X15216378Y5586730D01*
X15217394Y5586730D01*
X15217901Y5589270D01*
X15222219Y5589270D01*
X15222219Y5581904D01*
X15215616Y5581904D01*
X15214854Y5585714D01*
X15213330Y5585714D01*
X15213584Y5580888D01*
X15227300Y5580888D01*
X15227300Y5581650D01*
X15224760Y5582158D01*
X15224760Y5598160D01*
X15227300Y5598414D01*
X15227300Y5599430D01*
G37*
G36*
X15203678Y5599430D02*
G01*
X15203678Y5598414D01*
X15206218Y5598160D01*
X15206472Y5592064D01*
X15204948Y5592064D01*
X15201341Y5591606D01*
X15198902Y5590387D01*
X15197531Y5588508D01*
X15197074Y5586222D01*
X15199613Y5586222D01*
X15199918Y5588101D01*
X15200782Y5589574D01*
X15202306Y5590489D01*
X15204440Y5590794D01*
X15206472Y5590794D01*
X15206218Y5581904D01*
X15204440Y5581904D01*
X15202306Y5582208D01*
X15200782Y5583021D01*
X15199918Y5584393D01*
X15199613Y5586222D01*
X15197074Y5586222D01*
X15197531Y5583986D01*
X15198801Y5582310D01*
X15201036Y5581243D01*
X15204186Y5580888D01*
X15211551Y5580888D01*
X15211551Y5581650D01*
X15209012Y5582158D01*
X15208757Y5592673D01*
X15209012Y5598160D01*
X15211551Y5598414D01*
X15211551Y5599430D01*
G37*
G36*
X15166340Y5599430D02*
G01*
X15166340Y5598668D01*
X15170404Y5597906D01*
X15170404Y5580888D01*
X15170657Y5580634D01*
X15176500Y5581904D01*
X15176500Y5582920D01*
X15172690Y5582666D01*
X15172690Y5597906D01*
X15176754Y5598668D01*
X15176754Y5599430D01*
G37*
G36*
X14411451Y6219545D02*
G01*
X14411451Y6208115D01*
X14413484Y6208115D01*
X14413484Y6218021D01*
X14429740Y6210401D01*
X14429994Y6210655D01*
X14429994Y6212941D01*
X14412722Y6219545D01*
G37*
G36*
X14424913Y6205575D02*
G01*
X14424913Y6204051D01*
X14428469Y6203289D01*
X14429079Y6201765D01*
X14429232Y6200241D01*
X14428673Y6197447D01*
X14427047Y6195314D01*
X14424304Y6193891D01*
X14420596Y6193383D01*
X14416938Y6193942D01*
X14414347Y6195415D01*
X14412772Y6197600D01*
X14412213Y6200241D01*
X14412468Y6202426D01*
X14412722Y6203035D01*
X14416278Y6203797D01*
X14416278Y6205321D01*
X14412213Y6205321D01*
X14411198Y6202578D01*
X14410944Y6199987D01*
X14411706Y6196279D01*
X14413687Y6193282D01*
X14416735Y6191300D01*
X14420596Y6190589D01*
X14424609Y6191300D01*
X14427657Y6193180D01*
X14429587Y6196177D01*
X14430248Y6199987D01*
X14429994Y6202883D01*
X14429638Y6204254D01*
X14428978Y6205575D01*
G37*
G36*
X14653006Y7517638D02*
G01*
X14650719Y7517282D01*
X14648992Y7516215D01*
X14647824Y7514640D01*
X14647418Y7512558D01*
X14647521Y7511796D01*
X14648942Y7511796D01*
X14649246Y7513167D01*
X14650059Y7514234D01*
X14651532Y7514844D01*
X14653513Y7515098D01*
X14655495Y7514894D01*
X14656968Y7514234D01*
X14657781Y7513269D01*
X14658086Y7512050D01*
X14657628Y7510475D01*
X14656358Y7509306D01*
X14654123Y7508494D01*
X14650466Y7508240D01*
X14649297Y7510119D01*
X14648942Y7511796D01*
X14647521Y7511796D01*
X14647976Y7510322D01*
X14648586Y7509357D01*
X14649450Y7508494D01*
X14646300Y7509256D01*
X14643760Y7510881D01*
X14641830Y7513370D01*
X14640560Y7516875D01*
X14639798Y7516622D01*
X14641220Y7512050D01*
X14643811Y7508697D01*
X14647214Y7506665D01*
X14651228Y7505953D01*
X14654631Y7506360D01*
X14657222Y7507528D01*
X14658797Y7509408D01*
X14659356Y7511796D01*
X14658949Y7514234D01*
X14657730Y7516063D01*
X14655698Y7517231D01*
G37*
G36*
X14653768Y7503668D02*
G01*
X14653768Y7502144D01*
X14657324Y7501381D01*
X14657882Y7499807D01*
X14658086Y7498080D01*
X14657527Y7495438D01*
X14655901Y7493355D01*
X14653260Y7491984D01*
X14649704Y7491475D01*
X14645995Y7492034D01*
X14643303Y7493457D01*
X14641626Y7495641D01*
X14641068Y7498334D01*
X14641271Y7499705D01*
X14641830Y7501128D01*
X14645386Y7501890D01*
X14645386Y7503414D01*
X14641322Y7503414D01*
X14640102Y7500569D01*
X14639798Y7498080D01*
X14640509Y7494219D01*
X14642541Y7491171D01*
X14645690Y7489139D01*
X14649704Y7488428D01*
X14653564Y7489139D01*
X14656612Y7491171D01*
X14658644Y7494219D01*
X14659356Y7498080D01*
X14659000Y7500874D01*
X14658086Y7503668D01*
G37*
G36*
X14442694Y7367778D02*
G01*
X14440154Y7367320D01*
X14438325Y7366050D01*
X14437207Y7364120D01*
X14436851Y7360970D01*
X14437106Y7358888D01*
X14432026Y7359396D01*
X14432026Y7367270D01*
X14429740Y7367270D01*
X14429740Y7358125D01*
X14438376Y7357618D01*
X14438630Y7358380D01*
X14438376Y7360310D01*
X14438680Y7362799D01*
X14439493Y7364272D01*
X14440966Y7365187D01*
X14442948Y7365492D01*
X14444878Y7365187D01*
X14446402Y7364374D01*
X14447418Y7363002D01*
X14447723Y7360767D01*
X14447519Y7359396D01*
X14444370Y7358430D01*
X14443963Y7357364D01*
X14444167Y7356652D01*
X14444980Y7356094D01*
X14446656Y7356754D01*
X14447824Y7357922D01*
X14448536Y7359497D01*
X14448790Y7361428D01*
X14448332Y7364018D01*
X14447062Y7366050D01*
X14445132Y7367320D01*
G37*
G36*
X14443456Y7353808D02*
G01*
X14443456Y7352284D01*
X14446757Y7351775D01*
X14447418Y7350048D01*
X14447519Y7348474D01*
X14447012Y7345680D01*
X14445437Y7343495D01*
X14442795Y7342124D01*
X14439138Y7341616D01*
X14435429Y7342174D01*
X14432737Y7343648D01*
X14431060Y7345883D01*
X14430501Y7348728D01*
X14430705Y7350048D01*
X14431263Y7351522D01*
X14434819Y7352030D01*
X14434819Y7353553D01*
X14430756Y7353553D01*
X14429638Y7350912D01*
X14429232Y7348220D01*
X14429943Y7344511D01*
X14431975Y7341514D01*
X14435124Y7339533D01*
X14439138Y7338822D01*
X14442998Y7339482D01*
X14446046Y7341412D01*
X14448078Y7344409D01*
X14448790Y7348220D01*
X14448434Y7351115D01*
X14447519Y7353808D01*
G37*
D10*
X15567609Y7212335D02*
G01*
X15567609Y6592570D01*
X14902126Y6592570D01*
X14902126Y7255517D01*
X15567609Y7255517D01*
X15567609Y7179317D01*
D11*
X16227267Y7867284D02*
G01*
X15223967Y7867284D01*
X15223967Y8146684D01*
X16239967Y8146684D01*
X16239967Y7867284D01*
D12*
X14562681Y6697596D02*
G01*
X14562681Y6826092D01*
X14379262Y6826092D01*
X14379262Y6697596D01*
X14562681Y6602369D02*
G01*
X14562681Y6473873D01*
X14379262Y6473873D01*
X14379262Y6602369D01*
X14249590Y7262276D02*
G01*
X14378086Y7262276D01*
X14378086Y7445695D01*
X14249590Y7445695D01*
X14154345Y7262276D02*
G01*
X14025849Y7262276D01*
X14025849Y7445695D01*
X14154345Y7445695D01*
X14158346Y7199696D02*
G01*
X14029850Y7199696D01*
X14029850Y7016277D01*
X14158346Y7016277D01*
X14253591Y7199696D02*
G01*
X14382087Y7199696D01*
X14382087Y7016277D01*
X14253591Y7016277D01*
D13*
X13963119Y6080386D02*
G01*
X13963119Y6480385D01*
X14263110Y6480385D01*
X14263110Y6080386D01*
X13963119Y6080386D01*
X14012898Y6132073D02*
G01*
X14012898Y6432075D01*
X14212892Y6432075D01*
X14212892Y6132073D01*
X14012898Y6132073D01*
D11*
X14721677Y5797113D02*
G01*
X14721677Y5902807D01*
X16019307Y5500941D02*
G01*
X16019307Y5345965D01*
X14723897Y5345965D01*
X14721677Y5348198D01*
X14721677Y5500895D01*
X16019307Y5797163D02*
G01*
X16019307Y5902807D01*
X16019307Y5902807D02*
G01*
X15809711Y5902807D01*
X14933493Y5902807D02*
G01*
X14721677Y5902807D01*
D12*
X14384606Y6396103D02*
G01*
X14384606Y6255105D01*
X14565330Y6255105D02*
G01*
X14565330Y6396103D01*
X14550087Y6411333D02*
G01*
X14399846Y6411333D01*
X14384606Y6033856D02*
G01*
X14384606Y6174864D01*
X14565330Y6174864D02*
G01*
X14565330Y6033856D01*
X14550087Y6018621D02*
G01*
X14399846Y6018621D01*
X14628926Y7686817D02*
G01*
X14628926Y7545814D01*
X14809650Y7545814D02*
G01*
X14809650Y7686817D01*
X14794415Y7702052D02*
G01*
X14644174Y7702052D01*
X14628926Y7324587D02*
G01*
X14628926Y7465578D01*
X14809650Y7465578D02*
G01*
X14809650Y7324587D01*
X14794415Y7309335D02*
G01*
X14644174Y7309335D01*
X14425749Y7547117D02*
G01*
X14425749Y7406109D01*
X14606473Y7406109D02*
G01*
X14606473Y7547117D01*
X14591225Y7562347D02*
G01*
X14440984Y7562347D01*
X14425749Y7184870D02*
G01*
X14425749Y7325878D01*
X14606473Y7325878D02*
G01*
X14606473Y7184870D01*
X14591225Y7169640D02*
G01*
X14440984Y7169640D01*
D14*
G75*
G01*
X14827606Y7261776D02*
G03*
X14827606Y7261520I-20000J-128D01*
D12*
G75*
G01*
X14565330Y6396104D02*
G03*
X14550088Y6411333I-15240J-11D01*
G75*
G01*
X14399847Y6411333D02*
G03*
X14384607Y6396104I0J-15240D01*
G75*
G01*
X14565330Y6033856D02*
G02*
X14550088Y6018621I-15240J5D01*
G75*
G01*
X14399847Y6018621D02*
G02*
X14384607Y6033856I0J15240D01*
G75*
G01*
X14809650Y7686817D02*
G03*
X14794415Y7702052I-15240J-5D01*
G75*
G01*
X14644174Y7702052D02*
G03*
X14628927Y7686817I-7J-15240D01*
G75*
G01*
X14809650Y7324588D02*
G02*
X14794415Y7309335I-15240J-13D01*
G75*
G01*
X14644174Y7309335D02*
G02*
X14628927Y7324588I-7J15240D01*
G75*
G01*
X14606473Y7547117D02*
G03*
X14591226Y7562347I-15240J-10D01*
G75*
G01*
X14440985Y7562347D02*
G03*
X14425750Y7547117I5J-15240D01*
G75*
G01*
X14606473Y7184870D02*
G02*
X14591226Y7169640I-15240J10D01*
G75*
G01*
X14440985Y7169640D02*
G02*
X14425750Y7184870I5J15240D01*
D11*
G75*
G01
X14967636Y7184796D02*
G03X14967636Y7184796I-17043J0D01*
G75*
G01
X14175636Y6280440D02*
G03X14175636Y6280440I-62484J0D01*
M02*
