G04 Layer: TopPasteMaskLayer*
G04 EasyEDA v6.5.33, 2023-07-29 01:37:07*
G04 e2284e44ffa54268a608bda52510a791,d031c0a8eb424844af7c2e53bc7358ee,10*
G04 Gerber Generator version 0.2*
G04 Scale: 100 percent, Rotated: No, Reflected: No *
G04 Dimensions in millimeters *
G04 leading zeros omitted , absolute positions ,4 integer and 5 decimal *
%FSLAX45Y45*%
%MOMM*%

%ADD10O,1.499997X0.27000199999999996*%
%ADD11O,0.27000199999999996X1.499997*%
%ADD12R,1.4000X2.0000*%
%ADD13R,0.3000X1.4000*%
%ADD14R,2.0000X2.5000*%

%LPD*%
G36*
X14447977Y6605473D02*
G01*
X14406981Y6604965D01*
X14401952Y6599986D01*
X14401952Y6484975D01*
X14406981Y6479997D01*
X14534997Y6479997D01*
X14539976Y6484975D01*
X14539976Y6599986D01*
X14534997Y6604965D01*
X14492986Y6604508D01*
X14492986Y6560464D01*
X14447977Y6560464D01*
G37*
G36*
X14406981Y6820001D02*
G01*
X14401952Y6814972D01*
X14401952Y6700012D01*
X14406981Y6694982D01*
X14447977Y6695490D01*
X14447977Y6739483D01*
X14492986Y6739483D01*
X14492986Y6694982D01*
X14534997Y6694982D01*
X14539976Y6700012D01*
X14539976Y6814972D01*
X14534997Y6820001D01*
G37*
G36*
X14036954Y7422997D02*
G01*
X14031976Y7417968D01*
X14031976Y7290003D01*
X14036954Y7284974D01*
X14151965Y7284974D01*
X14156944Y7290003D01*
X14156486Y7331964D01*
X14112443Y7331964D01*
X14112443Y7376972D01*
X14157451Y7376972D01*
X14156944Y7417968D01*
X14151965Y7422997D01*
G37*
G36*
X14251940Y7422997D02*
G01*
X14246961Y7417968D01*
X14247469Y7376972D01*
X14291462Y7376972D01*
X14291462Y7331964D01*
X14246961Y7331964D01*
X14246961Y7290003D01*
X14251940Y7284974D01*
X14366951Y7284974D01*
X14371980Y7290003D01*
X14371980Y7417968D01*
X14366951Y7422997D01*
G37*
G36*
X14255953Y7176973D02*
G01*
X14250974Y7171994D01*
X14251482Y7129983D01*
X14295475Y7129983D01*
X14295475Y7084974D01*
X14250466Y7084974D01*
X14250974Y7043978D01*
X14255953Y7039000D01*
X14370964Y7039000D01*
X14375993Y7043978D01*
X14375993Y7171994D01*
X14370964Y7176973D01*
G37*
G36*
X14040967Y7176973D02*
G01*
X14035989Y7171994D01*
X14035989Y7043978D01*
X14040967Y7039000D01*
X14155978Y7039000D01*
X14160957Y7043978D01*
X14160449Y7084974D01*
X14116456Y7084974D01*
X14116456Y7129983D01*
X14160957Y7129983D01*
X14160957Y7171994D01*
X14155978Y7176973D01*
G37*
G36*
X14449958Y6172962D02*
G01*
X14408962Y6172454D01*
X14403984Y6167475D01*
X14403984Y6052464D01*
X14408962Y6047486D01*
X14536978Y6047486D01*
X14541957Y6052464D01*
X14541957Y6167475D01*
X14536978Y6172454D01*
X14494967Y6171996D01*
X14494967Y6127953D01*
X14449958Y6127953D01*
G37*
G36*
X14408962Y6387490D02*
G01*
X14403984Y6382461D01*
X14403984Y6267500D01*
X14408962Y6262471D01*
X14449958Y6262979D01*
X14449958Y6306972D01*
X14494967Y6306972D01*
X14494967Y6262471D01*
X14536978Y6262471D01*
X14541957Y6267500D01*
X14541957Y6382461D01*
X14536978Y6387490D01*
G37*
G36*
X14694306Y7463688D02*
G01*
X14653310Y7463180D01*
X14648281Y7458202D01*
X14648281Y7343190D01*
X14653310Y7338212D01*
X14781276Y7338212D01*
X14786305Y7343190D01*
X14786305Y7458202D01*
X14781276Y7463180D01*
X14739264Y7462723D01*
X14739264Y7418679D01*
X14694306Y7418679D01*
G37*
G36*
X14653310Y7678216D02*
G01*
X14648281Y7673187D01*
X14648281Y7558227D01*
X14653310Y7553198D01*
X14694306Y7553706D01*
X14694306Y7597698D01*
X14739264Y7597698D01*
X14739264Y7553198D01*
X14781276Y7553198D01*
X14786305Y7558227D01*
X14786305Y7673187D01*
X14781276Y7678216D01*
G37*
G36*
X14491106Y7323988D02*
G01*
X14450110Y7323480D01*
X14445081Y7318502D01*
X14445081Y7203490D01*
X14450110Y7198512D01*
X14578126Y7198512D01*
X14583105Y7203490D01*
X14583105Y7318502D01*
X14578126Y7323480D01*
X14536115Y7323023D01*
X14536115Y7278979D01*
X14491106Y7278979D01*
G37*
G36*
X14450110Y7538466D02*
G01*
X14445081Y7533487D01*
X14445081Y7418476D01*
X14450110Y7413498D01*
X14491106Y7414006D01*
X14491106Y7457998D01*
X14536115Y7457998D01*
X14536115Y7413498D01*
X14578126Y7413498D01*
X14583105Y7418476D01*
X14583105Y7533487D01*
X14578126Y7538466D01*
G37*
D10*
G01*
X14808606Y7197775D03*
G01*
X14808606Y7147763D03*
G01*
X14808606Y7097776D03*
G01*
X14808606Y7047763D03*
G01*
X14808606Y6997776D03*
G01*
X14808606Y6947763D03*
G01*
X14808606Y6897776D03*
G01*
X14808606Y6847763D03*
G01*
X14808606Y6797776D03*
G01*
X14808606Y6747763D03*
G01*
X14808606Y6697776D03*
G01*
X14808606Y6647764D03*
D11*
G01*
X14958593Y6497777D03*
G01*
X15008606Y6497777D03*
G01*
X15058593Y6497777D03*
G01*
X15108605Y6497777D03*
G01*
X15158593Y6497777D03*
G01*
X15208605Y6497777D03*
G01*
X15258592Y6497777D03*
G01*
X15308605Y6497777D03*
G01*
X15358592Y6497777D03*
G01*
X15408605Y6497777D03*
G01*
X15458592Y6497777D03*
G01*
X15508604Y6497777D03*
D10*
G01*
X15658591Y6647764D03*
G01*
X15658591Y6697776D03*
G01*
X15658591Y6747763D03*
G01*
X15658591Y6797776D03*
G01*
X15658591Y6847763D03*
G01*
X15658591Y6897776D03*
G01*
X15658591Y6947763D03*
G01*
X15658591Y6997776D03*
G01*
X15658591Y7047763D03*
G01*
X15658591Y7097776D03*
G01*
X15658591Y7147763D03*
G01*
X15658591Y7197775D03*
D11*
G01*
X15508604Y7347762D03*
G01*
X15458592Y7347762D03*
G01*
X15408605Y7347762D03*
G01*
X15358592Y7347762D03*
G01*
X15308605Y7347762D03*
G01*
X15258592Y7347762D03*
G01*
X15208605Y7347762D03*
G01*
X15158593Y7347762D03*
G01*
X15108605Y7347762D03*
G01*
X15058593Y7347762D03*
G01*
X15008606Y7347762D03*
G01*
X14958593Y7347762D03*
D12*
G01*
X14112872Y6005814D03*
G01*
X14113075Y6556156D03*
D13*
G01*
X14971598Y5906541D03*
G01*
X15021610Y5906541D03*
G01*
X15071597Y5906541D03*
G01*
X15121610Y5906541D03*
G01*
X15171597Y5906541D03*
G01*
X15221610Y5906541D03*
D14*
G01*
X15941598Y5649061D03*
G01*
X14801595Y5649010D03*
D13*
G01*
X15271597Y5906541D03*
G01*
X15321584Y5906541D03*
G01*
X15371597Y5906541D03*
G01*
X15421584Y5906541D03*
G01*
X15471597Y5906541D03*
G01*
X15521584Y5906541D03*
G01*
X15571597Y5906541D03*
G01*
X15621609Y5906541D03*
G01*
X15671596Y5906541D03*
G01*
X15721609Y5906541D03*
G01*
X15771596Y5906541D03*
M02*
